<svg width="282" height="319" viewBox="0 0 282 319" fill="none" xmlns="http://www.w3.org/2000/svg">
<g clip-path="url(#clip0_1164_158494)">
<path fill-rule="evenodd" clip-rule="evenodd" d="M36.2054 314.6C37.4233 314.6 38.4107 315.585 38.4107 316.8C38.4107 318.015 37.4233 319 36.2054 319C34.9874 319 34 318.015 34 316.8C34 315.585 34.9874 314.6 36.2054 314.6ZM52.378 314.6C53.596 314.6 54.5833 315.585 54.5833 316.8C54.5833 318.015 53.596 319 52.378 319C51.16 319 50.1726 318.015 50.1726 316.8C50.1726 315.585 51.16 314.6 52.378 314.6ZM68.5506 314.6C69.7686 314.6 70.756 315.585 70.756 316.8C70.756 318.015 69.7686 319 68.5506 319C67.3326 319 66.3452 318.015 66.3452 316.8C66.3452 315.585 67.3326 314.6 68.5506 314.6ZM84.7232 314.6C85.9412 314.6 86.9286 315.585 86.9286 316.8C86.9286 318.015 85.9412 319 84.7232 319C83.5052 319 82.5179 318.015 82.5179 316.8C82.5179 315.585 83.5052 314.6 84.7232 314.6ZM100.896 314.6C102.114 314.6 103.101 315.585 103.101 316.8C103.101 318.015 102.114 319 100.896 319C99.6778 319 98.6905 318.015 98.6905 316.8C98.6905 315.585 99.6778 314.6 100.896 314.6ZM117.068 314.6C118.286 314.6 119.274 315.585 119.274 316.8C119.274 318.015 118.286 319 117.068 319C115.85 319 114.863 318.015 114.863 316.8C114.863 315.585 115.85 314.6 117.068 314.6ZM133.241 314.6C134.459 314.6 135.446 315.585 135.446 316.8C135.446 318.015 134.459 319 133.241 319C132.023 319 131.036 318.015 131.036 316.8C131.036 315.585 132.023 314.6 133.241 314.6ZM149.414 314.6C150.632 314.6 151.619 315.585 151.619 316.8C151.619 318.015 150.632 319 149.414 319C148.196 319 147.208 318.015 147.208 316.8C147.208 315.585 148.196 314.6 149.414 314.6ZM165.586 314.6C166.804 314.6 167.792 315.585 167.792 316.8C167.792 318.015 166.804 319 165.586 319C164.368 319 163.381 318.015 163.381 316.8C163.381 315.585 164.368 314.6 165.586 314.6ZM181.759 314.508C182.977 314.508 183.964 315.493 183.964 316.708C183.964 317.923 182.977 318.908 181.759 318.908C180.541 318.908 179.554 317.923 179.554 316.708C179.554 315.493 180.541 314.508 181.759 314.508ZM197.932 314.508C199.15 314.508 200.137 315.493 200.137 316.708C200.137 317.923 199.15 318.908 197.932 318.908C196.714 318.908 195.726 317.923 195.726 316.708C195.726 315.493 196.714 314.508 197.932 314.508ZM214.104 314.508C215.322 314.508 216.31 315.493 216.31 316.708C216.31 317.923 215.322 318.908 214.104 318.908C212.886 318.908 211.899 317.923 211.899 316.708C211.899 315.493 212.886 314.508 214.104 314.508ZM230.277 314.508C231.495 314.508 232.482 315.493 232.482 316.708C232.482 317.923 231.495 318.908 230.277 318.908C229.059 318.908 228.071 317.923 228.071 316.708C228.071 315.493 229.059 314.508 230.277 314.508ZM246.449 314.508C247.667 314.508 248.655 315.493 248.655 316.708C248.655 317.923 247.667 318.908 246.449 318.908C245.231 318.908 244.244 317.923 244.244 316.708C244.244 315.493 245.231 314.508 246.449 314.508ZM262.622 314.508C263.84 314.508 264.827 315.493 264.827 316.708C264.827 317.923 263.84 318.908 262.622 318.908C261.404 318.908 260.417 317.923 260.417 316.708C260.417 315.493 261.404 314.508 262.622 314.508ZM278.795 314.508C280.013 314.508 281 315.493 281 316.708C281 317.923 280.013 318.908 278.795 318.908C277.577 318.908 276.589 317.923 276.589 316.708C276.589 315.493 277.577 314.508 278.795 314.508ZM165.586 298.467C166.804 298.467 167.792 299.452 167.792 300.667C167.792 301.882 166.804 302.867 165.586 302.867C164.368 302.867 163.381 301.882 163.381 300.667C163.381 299.452 164.368 298.467 165.586 298.467ZM181.759 298.374C182.977 298.374 183.964 299.359 183.964 300.574C183.964 301.789 182.977 302.774 181.759 302.774C180.541 302.774 179.554 301.789 179.554 300.574C179.554 299.359 180.541 298.374 181.759 298.374ZM197.932 298.374C199.15 298.374 200.137 299.359 200.137 300.574C200.137 301.789 199.15 302.774 197.932 302.774C196.714 302.774 195.726 301.789 195.726 300.574C195.726 299.359 196.714 298.374 197.932 298.374ZM214.104 298.374C215.322 298.374 216.31 299.359 216.31 300.574C216.31 301.789 215.322 302.774 214.104 302.774C212.886 302.774 211.899 301.789 211.899 300.574C211.899 299.359 212.886 298.374 214.104 298.374ZM36.2054 298.467C37.4233 298.467 38.4107 299.452 38.4107 300.667C38.4107 301.882 37.4233 302.867 36.2054 302.867C34.9874 302.867 34 301.882 34 300.667C34 299.452 34.9874 298.467 36.2054 298.467ZM68.5506 298.467C69.7686 298.467 70.756 299.452 70.756 300.667C70.756 301.882 69.7686 302.867 68.5506 302.867C67.3326 302.867 66.3452 301.882 66.3452 300.667C66.3452 299.452 67.3326 298.467 68.5506 298.467ZM100.896 298.467C102.114 298.467 103.101 299.452 103.101 300.667C103.101 301.882 102.114 302.867 100.896 302.867C99.6778 302.867 98.6905 301.882 98.6905 300.667C98.6905 299.452 99.6778 298.467 100.896 298.467ZM133.241 298.467C134.459 298.467 135.446 299.452 135.446 300.667C135.446 301.882 134.459 302.867 133.241 302.867C132.023 302.867 131.036 301.882 131.036 300.667C131.036 299.452 132.023 298.467 133.241 298.467ZM149.414 298.467C150.632 298.467 151.619 299.452 151.619 300.667C151.619 301.882 150.632 302.867 149.414 302.867C148.196 302.867 147.208 301.882 147.208 300.667C147.208 299.452 148.196 298.467 149.414 298.467ZM246.449 298.374C247.667 298.374 248.655 299.359 248.655 300.574C248.655 301.789 247.667 302.774 246.449 302.774C245.231 302.774 244.244 301.789 244.244 300.574C244.244 299.359 245.231 298.374 246.449 298.374ZM52.378 298.467C53.596 298.467 54.5833 299.452 54.5833 300.667C54.5833 301.882 53.596 302.867 52.378 302.867C51.16 302.867 50.1726 301.882 50.1726 300.667C50.1726 299.452 51.16 298.467 52.378 298.467ZM262.622 298.374C263.84 298.374 264.827 299.359 264.827 300.574C264.827 301.789 263.84 302.774 262.622 302.774C261.404 302.774 260.417 301.789 260.417 300.574C260.417 299.359 261.404 298.374 262.622 298.374ZM84.7232 298.467C85.9412 298.467 86.9286 299.452 86.9286 300.667C86.9286 301.882 85.9412 302.867 84.7232 302.867C83.5052 302.867 82.5179 301.882 82.5179 300.667C82.5179 299.452 83.5052 298.467 84.7232 298.467ZM278.795 298.374C280.013 298.374 281 299.359 281 300.574C281 301.789 280.013 302.774 278.795 302.774C277.577 302.774 276.589 301.789 276.589 300.574C276.589 299.359 277.577 298.374 278.795 298.374ZM117.068 298.467C118.286 298.467 119.274 299.452 119.274 300.667C119.274 301.882 118.286 302.867 117.068 302.867C115.85 302.867 114.863 301.882 114.863 300.667C114.863 299.452 115.85 298.467 117.068 298.467ZM230.277 298.374C231.495 298.374 232.482 299.359 232.482 300.574C232.482 301.789 231.495 302.774 230.277 302.774C229.059 302.774 228.071 301.789 228.071 300.574C228.071 299.359 229.059 298.374 230.277 298.374ZM68.5506 282.333C69.7686 282.333 70.756 283.318 70.756 284.533C70.756 285.748 69.7686 286.733 68.5506 286.733C67.3326 286.733 66.3452 285.748 66.3452 284.533C66.3452 283.318 67.3326 282.333 68.5506 282.333ZM100.896 282.333C102.114 282.333 103.101 283.318 103.101 284.533C103.101 285.748 102.114 286.733 100.896 286.733C99.6778 286.733 98.6905 285.748 98.6905 284.533C98.6905 283.318 99.6778 282.333 100.896 282.333ZM117.068 282.333C118.286 282.333 119.274 283.318 119.274 284.533C119.274 285.748 118.286 286.733 117.068 286.733C115.85 286.733 114.863 285.748 114.863 284.533C114.863 283.318 115.85 282.333 117.068 282.333ZM133.241 282.333C134.459 282.333 135.446 283.318 135.446 284.533C135.446 285.748 134.459 286.733 133.241 286.733C132.023 286.733 131.036 285.748 131.036 284.533C131.036 283.318 132.023 282.333 133.241 282.333ZM149.414 282.333C150.632 282.333 151.619 283.318 151.619 284.533C151.619 285.748 150.632 286.733 149.414 286.733C148.196 286.733 147.208 285.748 147.208 284.533C147.208 283.318 148.196 282.333 149.414 282.333ZM36.2054 282.333C37.4233 282.333 38.4107 283.318 38.4107 284.533C38.4107 285.748 37.4233 286.733 36.2054 286.733C34.9874 286.733 34 285.748 34 284.533C34 283.318 34.9874 282.333 36.2054 282.333ZM52.378 282.333C53.596 282.333 54.5833 283.318 54.5833 284.533C54.5833 285.748 53.596 286.733 52.378 286.733C51.16 286.733 50.1726 285.748 50.1726 284.533C50.1726 283.318 51.16 282.333 52.378 282.333ZM84.7232 282.333C85.9412 282.333 86.9286 283.318 86.9286 284.533C86.9286 285.748 85.9412 286.733 84.7232 286.733C83.5052 286.733 82.5179 285.748 82.5179 284.533C82.5179 283.318 83.5052 282.333 84.7232 282.333ZM165.586 282.333C166.804 282.333 167.792 283.318 167.792 284.533C167.792 285.748 166.804 286.733 165.586 286.733C164.368 286.733 163.381 285.748 163.381 284.533C163.381 283.318 164.368 282.333 165.586 282.333ZM181.759 282.241C182.977 282.241 183.964 283.226 183.964 284.441C183.964 285.656 182.977 286.641 181.759 286.641C180.541 286.641 179.554 285.656 179.554 284.441C179.554 283.226 180.541 282.241 181.759 282.241ZM197.932 282.241C199.15 282.241 200.137 283.226 200.137 284.441C200.137 285.656 199.15 286.641 197.932 286.641C196.714 286.641 195.726 285.656 195.726 284.441C195.726 283.226 196.714 282.241 197.932 282.241ZM214.104 282.241C215.322 282.241 216.31 283.226 216.31 284.441C216.31 285.656 215.322 286.641 214.104 286.641C212.886 286.641 211.899 285.656 211.899 284.441C211.899 283.226 212.886 282.241 214.104 282.241ZM230.277 282.241C231.495 282.241 232.482 283.226 232.482 284.441C232.482 285.656 231.495 286.641 230.277 286.641C229.059 286.641 228.071 285.656 228.071 284.441C228.071 283.226 229.059 282.241 230.277 282.241ZM246.449 282.241C247.667 282.241 248.655 283.226 248.655 284.441C248.655 285.656 247.667 286.641 246.449 286.641C245.231 286.641 244.244 285.656 244.244 284.441C244.244 283.226 245.231 282.241 246.449 282.241ZM262.622 282.241C263.84 282.241 264.827 283.226 264.827 284.441C264.827 285.656 263.84 286.641 262.622 286.641C261.404 286.641 260.417 285.656 260.417 284.441C260.417 283.226 261.404 282.241 262.622 282.241ZM278.795 282.241C280.013 282.241 281 283.226 281 284.441C281 285.656 280.013 286.641 278.795 286.641C277.577 286.641 276.589 285.656 276.589 284.441C276.589 283.226 277.577 282.241 278.795 282.241ZM36.2054 266.2C37.4233 266.2 38.4107 267.185 38.4107 268.4C38.4107 269.615 37.4233 270.6 36.2054 270.6C34.9874 270.6 34 269.615 34 268.4C34 267.185 34.9874 266.2 36.2054 266.2ZM52.378 266.2C53.596 266.2 54.5833 267.185 54.5833 268.4C54.5833 269.615 53.596 270.6 52.378 270.6C51.16 270.6 50.1726 269.615 50.1726 268.4C50.1726 267.185 51.16 266.2 52.378 266.2ZM68.5506 266.2C69.7686 266.2 70.756 267.185 70.756 268.4C70.756 269.615 69.7686 270.6 68.5506 270.6C67.3326 270.6 66.3452 269.615 66.3452 268.4C66.3452 267.185 67.3326 266.2 68.5506 266.2ZM84.7232 266.2C85.9412 266.2 86.9286 267.185 86.9286 268.4C86.9286 269.615 85.9412 270.6 84.7232 270.6C83.5052 270.6 82.5179 269.615 82.5179 268.4C82.5179 267.185 83.5052 266.2 84.7232 266.2ZM100.896 266.2C102.114 266.2 103.101 267.185 103.101 268.4C103.101 269.615 102.114 270.6 100.896 270.6C99.6778 270.6 98.6905 269.615 98.6905 268.4C98.6905 267.185 99.6778 266.2 100.896 266.2ZM117.068 266.2C118.286 266.2 119.274 267.185 119.274 268.4C119.274 269.615 118.286 270.6 117.068 270.6C115.85 270.6 114.863 269.615 114.863 268.4C114.863 267.185 115.85 266.2 117.068 266.2ZM133.241 266.2C134.459 266.2 135.446 267.185 135.446 268.4C135.446 269.615 134.459 270.6 133.241 270.6C132.023 270.6 131.036 269.615 131.036 268.4C131.036 267.185 132.023 266.2 133.241 266.2ZM149.414 266.2C150.632 266.2 151.619 267.185 151.619 268.4C151.619 269.615 150.632 270.6 149.414 270.6C148.196 270.6 147.208 269.615 147.208 268.4C147.208 267.185 148.196 266.2 149.414 266.2ZM165.586 266.2C166.804 266.2 167.792 267.185 167.792 268.4C167.792 269.615 166.804 270.6 165.586 270.6C164.368 270.6 163.381 269.615 163.381 268.4C163.381 267.185 164.368 266.2 165.586 266.2ZM181.759 266.108C182.977 266.108 183.964 267.093 183.964 268.308C183.964 269.523 182.977 270.508 181.759 270.508C180.541 270.508 179.554 269.523 179.554 268.308C179.554 267.093 180.541 266.108 181.759 266.108ZM197.932 266.108C199.15 266.108 200.137 267.093 200.137 268.308C200.137 269.523 199.15 270.508 197.932 270.508C196.714 270.508 195.726 269.523 195.726 268.308C195.726 267.093 196.714 266.108 197.932 266.108ZM214.104 266.108C215.322 266.108 216.31 267.093 216.31 268.308C216.31 269.523 215.322 270.508 214.104 270.508C212.886 270.508 211.899 269.523 211.899 268.308C211.899 267.093 212.886 266.108 214.104 266.108ZM230.277 266.108C231.495 266.108 232.482 267.093 232.482 268.308C232.482 269.523 231.495 270.508 230.277 270.508C229.059 270.508 228.071 269.523 228.071 268.308C228.071 267.093 229.059 266.108 230.277 266.108ZM246.449 266.108C247.667 266.108 248.655 267.093 248.655 268.308C248.655 269.523 247.667 270.508 246.449 270.508C245.231 270.508 244.244 269.523 244.244 268.308C244.244 267.093 245.231 266.108 246.449 266.108ZM262.622 266.108C263.84 266.108 264.827 267.093 264.827 268.308C264.827 269.523 263.84 270.508 262.622 270.508C261.404 270.508 260.417 269.523 260.417 268.308C260.417 267.093 261.404 266.108 262.622 266.108ZM278.795 266.108C280.013 266.108 281 267.093 281 268.308C281 269.523 280.013 270.508 278.795 270.508C277.577 270.508 276.589 269.523 276.589 268.308C276.589 267.093 277.577 266.108 278.795 266.108ZM36.2054 250.067C37.4233 250.067 38.4107 251.052 38.4107 252.267C38.4107 253.482 37.4233 254.467 36.2054 254.467C34.9874 254.467 34 253.482 34 252.267C34 251.052 34.9874 250.067 36.2054 250.067ZM52.378 250.067C53.596 250.067 54.5833 251.052 54.5833 252.267C54.5833 253.482 53.596 254.467 52.378 254.467C51.16 254.467 50.1726 253.482 50.1726 252.267C50.1726 251.052 51.16 250.067 52.378 250.067ZM68.5506 250.067C69.7686 250.067 70.756 251.052 70.756 252.267C70.756 253.482 69.7686 254.467 68.5506 254.467C67.3326 254.467 66.3452 253.482 66.3452 252.267C66.3452 251.052 67.3326 250.067 68.5506 250.067ZM84.7232 250.067C85.9412 250.067 86.9286 251.052 86.9286 252.267C86.9286 253.482 85.9412 254.467 84.7232 254.467C83.5052 254.467 82.5179 253.482 82.5179 252.267C82.5179 251.052 83.5052 250.067 84.7232 250.067ZM100.896 250.067C102.114 250.067 103.101 251.052 103.101 252.267C103.101 253.482 102.114 254.467 100.896 254.467C99.6778 254.467 98.6905 253.482 98.6905 252.267C98.6905 251.052 99.6778 250.067 100.896 250.067ZM117.068 250.067C118.286 250.067 119.274 251.052 119.274 252.267C119.274 253.482 118.286 254.467 117.068 254.467C115.85 254.467 114.863 253.482 114.863 252.267C114.863 251.052 115.85 250.067 117.068 250.067ZM133.241 250.067C134.459 250.067 135.446 251.052 135.446 252.267C135.446 253.482 134.459 254.467 133.241 254.467C132.023 254.467 131.036 253.482 131.036 252.267C131.036 251.052 132.023 250.067 133.241 250.067ZM149.414 250.067C150.632 250.067 151.619 251.052 151.619 252.267C151.619 253.482 150.632 254.467 149.414 254.467C148.196 254.467 147.208 253.482 147.208 252.267C147.208 251.052 148.196 250.067 149.414 250.067ZM165.586 250.067C166.804 250.067 167.792 251.052 167.792 252.267C167.792 253.482 166.804 254.467 165.586 254.467C164.368 254.467 163.381 253.482 163.381 252.267C163.381 251.052 164.368 250.067 165.586 250.067ZM78.8423 2.2C78.8423 3.41503 77.8549 4.4 76.6369 4.4C75.4189 4.4 74.4315 3.41503 74.4315 2.2C74.4315 0.984974 75.4189 0 76.6369 0C77.8549 0 78.8423 0.984974 78.8423 2.2ZM78.8423 18.3333C78.8423 19.5484 77.8549 20.5333 76.6369 20.5333C75.4189 20.5333 74.4315 19.5484 74.4315 18.3333C74.4315 17.1183 75.4189 16.1333 76.6369 16.1333C77.8549 16.1333 78.8423 17.1183 78.8423 18.3333ZM78.8423 34.4667C78.8423 35.6817 77.8549 36.6667 76.6369 36.6667C75.4189 36.6667 74.4315 35.6817 74.4315 34.4667C74.4315 33.2516 75.4189 32.2667 76.6369 32.2667C77.8549 32.2667 78.8423 33.2516 78.8423 34.4667ZM78.8423 50.6C78.8423 51.815 77.8549 52.8 76.6369 52.8C75.4189 52.8 74.4315 51.815 74.4315 50.6C74.4315 49.385 75.4189 48.4 76.6369 48.4C77.8549 48.4 78.8423 49.385 78.8423 50.6ZM78.8423 66.7333C78.8423 67.9484 77.8549 68.9333 76.6369 68.9333C75.4189 68.9333 74.4315 67.9484 74.4315 66.7333C74.4315 65.5183 75.4189 64.5333 76.6369 64.5333C77.8549 64.5333 78.8423 65.5183 78.8423 66.7333ZM78.8423 82.8667C78.8423 84.0817 77.8549 85.0667 76.6369 85.0667C75.4189 85.0667 74.4315 84.0817 74.4315 82.8667C74.4315 81.6516 75.4189 80.6667 76.6369 80.6667C77.8549 80.6667 78.8423 81.6516 78.8423 82.8667ZM78.8423 99C78.8423 100.215 77.8549 101.2 76.6369 101.2C75.4189 101.2 74.4315 100.215 74.4315 99C74.4315 97.785 75.4189 96.8 76.6369 96.8C77.8549 96.8 78.8423 97.785 78.8423 99ZM78.8423 115.133C78.8423 116.348 77.8549 117.333 76.6369 117.333C75.4189 117.333 74.4315 116.348 74.4315 115.133C74.4315 113.918 75.4189 112.933 76.6369 112.933C77.8549 112.933 78.8423 113.918 78.8423 115.133ZM78.8423 131.267C78.8423 132.482 77.8549 133.467 76.6369 133.467C75.4189 133.467 74.4315 132.482 74.4315 131.267C74.4315 130.052 75.4189 129.067 76.6369 129.067C77.8549 129.067 78.8423 130.052 78.8423 131.267ZM78.8423 147.4C78.8423 148.615 77.8549 149.6 76.6369 149.6C75.4189 149.6 74.4315 148.615 74.4315 147.4C74.4315 146.185 75.4189 145.2 76.6369 145.2C77.8549 145.2 78.8423 146.185 78.8423 147.4ZM78.8423 163.533C78.8423 164.748 77.8549 165.733 76.6369 165.733C75.4189 165.733 74.4315 164.748 74.4315 163.533C74.4315 162.318 75.4189 161.333 76.6369 161.333C77.8549 161.333 78.8423 162.318 78.8423 163.533ZM78.8423 179.667C78.8423 180.882 77.8549 181.867 76.6369 181.867C75.4189 181.867 74.4315 180.882 74.4315 179.667C74.4315 178.452 75.4189 177.467 76.6369 177.467C77.8549 177.467 78.8423 178.452 78.8423 179.667ZM78.8423 195.8C78.8423 197.015 77.8549 198 76.6369 198C75.4189 198 74.4315 197.015 74.4315 195.8C74.4315 194.585 75.4189 193.6 76.6369 193.6C77.8549 193.6 78.8423 194.585 78.8423 195.8ZM78.8423 211.933C78.8423 213.148 77.8549 214.133 76.6369 214.133C75.4189 214.133 74.4315 213.148 74.4315 211.933C74.4315 210.718 75.4189 209.733 76.6369 209.733C77.8549 209.733 78.8423 210.718 78.8423 211.933ZM95.0149 99C95.0149 100.215 94.0275 101.2 92.8095 101.2C91.5915 101.2 90.6042 100.215 90.6042 99C90.6042 97.785 91.5915 96.8 92.8095 96.8C94.0275 96.8 95.0149 97.785 95.0149 99ZM95.0149 115.133C95.0149 116.348 94.0275 117.333 92.8095 117.333C91.5915 117.333 90.6042 116.348 90.6042 115.133C90.6042 113.918 91.5915 112.933 92.8095 112.933C94.0275 112.933 95.0149 113.918 95.0149 115.133ZM95.0149 131.267C95.0149 132.482 94.0275 133.467 92.8095 133.467C91.5915 133.467 90.6042 132.482 90.6042 131.267C90.6042 130.052 91.5915 129.067 92.8095 129.067C94.0275 129.067 95.0149 130.052 95.0149 131.267ZM95.0149 147.4C95.0149 148.615 94.0275 149.6 92.8095 149.6C91.5915 149.6 90.6042 148.615 90.6042 147.4C90.6042 146.185 91.5915 145.2 92.8095 145.2C94.0275 145.2 95.0149 146.185 95.0149 147.4ZM95.0149 2.2C95.0149 3.41503 94.0275 4.4 92.8095 4.4C91.5915 4.4 90.6042 3.41503 90.6042 2.2C90.6042 0.984974 91.5915 0 92.8095 0C94.0275 0 95.0149 0.984974 95.0149 2.2ZM95.0149 34.4667C95.0149 35.6817 94.0275 36.6667 92.8095 36.6667C91.5915 36.6667 90.6042 35.6817 90.6042 34.4667C90.6042 33.2516 91.5915 32.2667 92.8095 32.2667C94.0275 32.2667 95.0149 33.2516 95.0149 34.4667ZM95.0149 66.7333C95.0149 67.9484 94.0275 68.9333 92.8095 68.9333C91.5915 68.9333 90.6042 67.9484 90.6042 66.7333C90.6042 65.5183 91.5915 64.5333 92.8095 64.5333C94.0275 64.5333 95.0149 65.5183 95.0149 66.7333ZM95.0149 82.8667C95.0149 84.0817 94.0275 85.0667 92.8095 85.0667C91.5915 85.0667 90.6042 84.0817 90.6042 82.8667C90.6042 81.6516 91.5915 80.6667 92.8095 80.6667C94.0275 80.6667 95.0149 81.6516 95.0149 82.8667ZM95.0149 179.667C95.0149 180.882 94.0275 181.867 92.8095 181.867C91.5915 181.867 90.6042 180.882 90.6042 179.667C90.6042 178.452 91.5915 177.467 92.8095 177.467C94.0275 177.467 95.0149 178.452 95.0149 179.667ZM95.0149 195.8C95.0149 197.015 94.0275 198 92.8095 198C91.5915 198 90.6042 197.015 90.6042 195.8C90.6042 194.585 91.5915 193.6 92.8095 193.6C94.0275 193.6 95.0149 194.585 95.0149 195.8ZM95.0149 18.3333C95.0149 19.5484 94.0275 20.5333 92.8095 20.5333C91.5915 20.5333 90.6042 19.5484 90.6042 18.3333C90.6042 17.1183 91.5915 16.1333 92.8095 16.1333C94.0275 16.1333 95.0149 17.1183 95.0149 18.3333ZM95.0149 211.933C95.0149 213.148 94.0275 214.133 92.8095 214.133C91.5915 214.133 90.6042 213.148 90.6042 211.933C90.6042 210.718 91.5915 209.733 92.8095 209.733C94.0275 209.733 95.0149 210.718 95.0149 211.933ZM95.0149 50.6C95.0149 51.815 94.0275 52.8 92.8095 52.8C91.5915 52.8 90.6042 51.815 90.6042 50.6C90.6042 49.385 91.5915 48.4 92.8095 48.4C94.0275 48.4 95.0149 49.385 95.0149 50.6ZM95.0149 163.533C95.0149 164.748 94.0275 165.733 92.8095 165.733C91.5915 165.733 90.6042 164.748 90.6042 163.533C90.6042 162.318 91.5915 161.333 92.8095 161.333C94.0275 161.333 95.0149 162.318 95.0149 163.533ZM111.188 2.2C111.188 3.41503 110.2 4.4 108.982 4.4C107.764 4.4 106.777 3.41503 106.777 2.2C106.777 0.984974 107.764 0 108.982 0C110.2 0 111.188 0.984974 111.188 2.2ZM111.188 34.4667C111.188 35.6817 110.2 36.6667 108.982 36.6667C107.764 36.6667 106.777 35.6817 106.777 34.4667C106.777 33.2516 107.764 32.2667 108.982 32.2667C110.2 32.2667 111.188 33.2516 111.188 34.4667ZM111.188 50.6C111.188 51.815 110.2 52.8 108.982 52.8C107.764 52.8 106.777 51.815 106.777 50.6C106.777 49.385 107.764 48.4 108.982 48.4C110.2 48.4 111.188 49.385 111.188 50.6ZM111.188 66.7333C111.188 67.9484 110.2 68.9333 108.982 68.9333C107.764 68.9333 106.777 67.9484 106.777 66.7333C106.777 65.5183 107.764 64.5333 108.982 64.5333C110.2 64.5333 111.188 65.5183 111.188 66.7333ZM111.188 82.8667C111.188 84.0817 110.2 85.0667 108.982 85.0667C107.764 85.0667 106.777 84.0817 106.777 82.8667C106.777 81.6516 107.764 80.6667 108.982 80.6667C110.2 80.6667 111.188 81.6516 111.188 82.8667ZM111.188 18.3333C111.188 19.5484 110.2 20.5333 108.982 20.5333C107.764 20.5333 106.777 19.5484 106.777 18.3333C106.777 17.1183 107.764 16.1333 108.982 16.1333C110.2 16.1333 111.188 17.1183 111.188 18.3333ZM111.188 99C111.188 100.215 110.2 101.2 108.982 101.2C107.764 101.2 106.777 100.215 106.777 99C106.777 97.785 107.764 96.8 108.982 96.8C110.2 96.8 111.188 97.785 111.188 99ZM111.188 115.133C111.188 116.348 110.2 117.333 108.982 117.333C107.764 117.333 106.777 116.348 106.777 115.133C106.777 113.918 107.764 112.933 108.982 112.933C110.2 112.933 111.188 113.918 111.188 115.133ZM111.188 131.267C111.188 132.482 110.2 133.467 108.982 133.467C107.764 133.467 106.777 132.482 106.777 131.267C106.777 130.052 107.764 129.067 108.982 129.067C110.2 129.067 111.188 130.052 111.188 131.267ZM111.188 147.4C111.188 148.615 110.2 149.6 108.982 149.6C107.764 149.6 106.777 148.615 106.777 147.4C106.777 146.185 107.764 145.2 108.982 145.2C110.2 145.2 111.188 146.185 111.188 147.4ZM111.188 163.533C111.188 164.748 110.2 165.733 108.982 165.733C107.764 165.733 106.777 164.748 106.777 163.533C106.777 162.318 107.764 161.333 108.982 161.333C110.2 161.333 111.188 162.318 111.188 163.533ZM111.188 179.667C111.188 180.882 110.2 181.867 108.982 181.867C107.764 181.867 106.777 180.882 106.777 179.667C106.777 178.452 107.764 177.467 108.982 177.467C110.2 177.467 111.188 178.452 111.188 179.667ZM111.188 195.8C111.188 197.015 110.2 198 108.982 198C107.764 198 106.777 197.015 106.777 195.8C106.777 194.585 107.764 193.6 108.982 193.6C110.2 193.6 111.188 194.585 111.188 195.8ZM111.188 211.933C111.188 213.148 110.2 214.133 108.982 214.133C107.764 214.133 106.777 213.148 106.777 211.933C106.777 210.718 107.764 209.733 108.982 209.733C110.2 209.733 111.188 210.718 111.188 211.933ZM127.36 2.2C127.36 3.41503 126.373 4.4 125.155 4.4C123.937 4.4 122.949 3.41503 122.949 2.2C122.949 0.984974 123.937 0 125.155 0C126.373 0 127.36 0.984974 127.36 2.2ZM127.36 18.3333C127.36 19.5484 126.373 20.5333 125.155 20.5333C123.937 20.5333 122.949 19.5484 122.949 18.3333C122.949 17.1183 123.937 16.1333 125.155 16.1333C126.373 16.1333 127.36 17.1183 127.36 18.3333ZM127.36 34.4667C127.36 35.6817 126.373 36.6667 125.155 36.6667C123.937 36.6667 122.949 35.6817 122.949 34.4667C122.949 33.2516 123.937 32.2667 125.155 32.2667C126.373 32.2667 127.36 33.2516 127.36 34.4667ZM127.36 50.6C127.36 51.815 126.373 52.8 125.155 52.8C123.937 52.8 122.949 51.815 122.949 50.6C122.949 49.385 123.937 48.4 125.155 48.4C126.373 48.4 127.36 49.385 127.36 50.6ZM127.36 66.7333C127.36 67.9484 126.373 68.9333 125.155 68.9333C123.937 68.9333 122.949 67.9484 122.949 66.7333C122.949 65.5183 123.937 64.5333 125.155 64.5333C126.373 64.5333 127.36 65.5183 127.36 66.7333ZM127.36 82.8667C127.36 84.0817 126.373 85.0667 125.155 85.0667C123.937 85.0667 122.949 84.0817 122.949 82.8667C122.949 81.6516 123.937 80.6667 125.155 80.6667C126.373 80.6667 127.36 81.6516 127.36 82.8667ZM127.36 99C127.36 100.215 126.373 101.2 125.155 101.2C123.937 101.2 122.949 100.215 122.949 99C122.949 97.785 123.937 96.8 125.155 96.8C126.373 96.8 127.36 97.785 127.36 99ZM127.36 115.133C127.36 116.348 126.373 117.333 125.155 117.333C123.937 117.333 122.949 116.348 122.949 115.133C122.949 113.918 123.937 112.933 125.155 112.933C126.373 112.933 127.36 113.918 127.36 115.133ZM127.36 131.267C127.36 132.482 126.373 133.467 125.155 133.467C123.937 133.467 122.949 132.482 122.949 131.267C122.949 130.052 123.937 129.067 125.155 129.067C126.373 129.067 127.36 130.052 127.36 131.267ZM127.36 147.4C127.36 148.615 126.373 149.6 125.155 149.6C123.937 149.6 122.949 148.615 122.949 147.4C122.949 146.185 123.937 145.2 125.155 145.2C126.373 145.2 127.36 146.185 127.36 147.4ZM127.36 163.533C127.36 164.748 126.373 165.733 125.155 165.733C123.937 165.733 122.949 164.748 122.949 163.533C122.949 162.318 123.937 161.333 125.155 161.333C126.373 161.333 127.36 162.318 127.36 163.533ZM127.36 179.667C127.36 180.882 126.373 181.867 125.155 181.867C123.937 181.867 122.949 180.882 122.949 179.667C122.949 178.452 123.937 177.467 125.155 177.467C126.373 177.467 127.36 178.452 127.36 179.667ZM127.36 195.8C127.36 197.015 126.373 198 125.155 198C123.937 198 122.949 197.015 122.949 195.8C122.949 194.585 123.937 193.6 125.155 193.6C126.373 193.6 127.36 194.585 127.36 195.8ZM127.36 211.933C127.36 213.148 126.373 214.133 125.155 214.133C123.937 214.133 122.949 213.148 122.949 211.933C122.949 210.718 123.937 209.733 125.155 209.733C126.373 209.733 127.36 210.718 127.36 211.933ZM143.533 2.2C143.533 3.41503 142.545 4.4 141.327 4.4C140.109 4.4 139.122 3.41503 139.122 2.2C139.122 0.984974 140.109 0 141.327 0C142.545 0 143.533 0.984974 143.533 2.2ZM143.533 18.3333C143.533 19.5484 142.545 20.5333 141.327 20.5333C140.109 20.5333 139.122 19.5484 139.122 18.3333C139.122 17.1183 140.109 16.1333 141.327 16.1333C142.545 16.1333 143.533 17.1183 143.533 18.3333ZM143.533 34.4667C143.533 35.6817 142.545 36.6667 141.327 36.6667C140.109 36.6667 139.122 35.6817 139.122 34.4667C139.122 33.2516 140.109 32.2667 141.327 32.2667C142.545 32.2667 143.533 33.2516 143.533 34.4667ZM143.533 50.6C143.533 51.815 142.545 52.8 141.327 52.8C140.109 52.8 139.122 51.815 139.122 50.6C139.122 49.385 140.109 48.4 141.327 48.4C142.545 48.4 143.533 49.385 143.533 50.6ZM143.533 66.7333C143.533 67.9484 142.545 68.9333 141.327 68.9333C140.109 68.9333 139.122 67.9484 139.122 66.7333C139.122 65.5183 140.109 64.5333 141.327 64.5333C142.545 64.5333 143.533 65.5183 143.533 66.7333ZM143.533 82.8667C143.533 84.0817 142.545 85.0667 141.327 85.0667C140.109 85.0667 139.122 84.0817 139.122 82.8667C139.122 81.6516 140.109 80.6667 141.327 80.6667C142.545 80.6667 143.533 81.6516 143.533 82.8667ZM143.533 99C143.533 100.215 142.545 101.2 141.327 101.2C140.109 101.2 139.122 100.215 139.122 99C139.122 97.785 140.109 96.8 141.327 96.8C142.545 96.8 143.533 97.785 143.533 99ZM143.533 115.133C143.533 116.348 142.545 117.333 141.327 117.333C140.109 117.333 139.122 116.348 139.122 115.133C139.122 113.918 140.109 112.933 141.327 112.933C142.545 112.933 143.533 113.918 143.533 115.133ZM143.533 131.267C143.533 132.482 142.545 133.467 141.327 133.467C140.109 133.467 139.122 132.482 139.122 131.267C139.122 130.052 140.109 129.067 141.327 129.067C142.545 129.067 143.533 130.052 143.533 131.267ZM143.533 147.4C143.533 148.615 142.545 149.6 141.327 149.6C140.109 149.6 139.122 148.615 139.122 147.4C139.122 146.185 140.109 145.2 141.327 145.2C142.545 145.2 143.533 146.185 143.533 147.4ZM143.533 163.533C143.533 164.748 142.545 165.733 141.327 165.733C140.109 165.733 139.122 164.748 139.122 163.533C139.122 162.318 140.109 161.333 141.327 161.333C142.545 161.333 143.533 162.318 143.533 163.533ZM143.533 179.667C143.533 180.882 142.545 181.867 141.327 181.867C140.109 181.867 139.122 180.882 139.122 179.667C139.122 178.452 140.109 177.467 141.327 177.467C142.545 177.467 143.533 178.452 143.533 179.667ZM143.533 195.8C143.533 197.015 142.545 198 141.327 198C140.109 198 139.122 197.015 139.122 195.8C139.122 194.585 140.109 193.6 141.327 193.6C142.545 193.6 143.533 194.585 143.533 195.8ZM143.533 211.933C143.533 213.148 142.545 214.133 141.327 214.133C140.109 214.133 139.122 213.148 139.122 211.933C139.122 210.718 140.109 209.733 141.327 209.733C142.545 209.733 143.533 210.718 143.533 211.933ZM159.705 2.2C159.705 3.41503 158.718 4.4 157.5 4.4C156.282 4.4 155.295 3.41503 155.295 2.2C155.295 0.984974 156.282 0 157.5 0C158.718 0 159.705 0.984974 159.705 2.2ZM159.705 18.3333C159.705 19.5484 158.718 20.5333 157.5 20.5333C156.282 20.5333 155.295 19.5484 155.295 18.3333C155.295 17.1183 156.282 16.1333 157.5 16.1333C158.718 16.1333 159.705 17.1183 159.705 18.3333ZM159.705 34.4667C159.705 35.6817 158.718 36.6667 157.5 36.6667C156.282 36.6667 155.295 35.6817 155.295 34.4667C155.295 33.2516 156.282 32.2667 157.5 32.2667C158.718 32.2667 159.705 33.2516 159.705 34.4667ZM159.705 50.6C159.705 51.815 158.718 52.8 157.5 52.8C156.282 52.8 155.295 51.815 155.295 50.6C155.295 49.385 156.282 48.4 157.5 48.4C158.718 48.4 159.705 49.385 159.705 50.6ZM159.705 66.7333C159.705 67.9484 158.718 68.9333 157.5 68.9333C156.282 68.9333 155.295 67.9484 155.295 66.7333C155.295 65.5183 156.282 64.5333 157.5 64.5333C158.718 64.5333 159.705 65.5183 159.705 66.7333ZM159.705 82.8667C159.705 84.0817 158.718 85.0667 157.5 85.0667C156.282 85.0667 155.295 84.0817 155.295 82.8667C155.295 81.6516 156.282 80.6667 157.5 80.6667C158.718 80.6667 159.705 81.6516 159.705 82.8667ZM159.705 99C159.705 100.215 158.718 101.2 157.5 101.2C156.282 101.2 155.295 100.215 155.295 99C155.295 97.785 156.282 96.8 157.5 96.8C158.718 96.8 159.705 97.785 159.705 99ZM159.705 115.133C159.705 116.348 158.718 117.333 157.5 117.333C156.282 117.333 155.295 116.348 155.295 115.133C155.295 113.918 156.282 112.933 157.5 112.933C158.718 112.933 159.705 113.918 159.705 115.133ZM159.705 131.267C159.705 132.482 158.718 133.467 157.5 133.467C156.282 133.467 155.295 132.482 155.295 131.267C155.295 130.052 156.282 129.067 157.5 129.067C158.718 129.067 159.705 130.052 159.705 131.267ZM159.705 147.4C159.705 148.615 158.718 149.6 157.5 149.6C156.282 149.6 155.295 148.615 155.295 147.4C155.295 146.185 156.282 145.2 157.5 145.2C158.718 145.2 159.705 146.185 159.705 147.4ZM159.705 163.533C159.705 164.748 158.718 165.733 157.5 165.733C156.282 165.733 155.295 164.748 155.295 163.533C155.295 162.318 156.282 161.333 157.5 161.333C158.718 161.333 159.705 162.318 159.705 163.533ZM159.705 179.667C159.705 180.882 158.718 181.867 157.5 181.867C156.282 181.867 155.295 180.882 155.295 179.667C155.295 178.452 156.282 177.467 157.5 177.467C158.718 177.467 159.705 178.452 159.705 179.667ZM159.705 195.8C159.705 197.015 158.718 198 157.5 198C156.282 198 155.295 197.015 155.295 195.8C155.295 194.585 156.282 193.6 157.5 193.6C158.718 193.6 159.705 194.585 159.705 195.8ZM159.705 211.933C159.705 213.148 158.718 214.133 157.5 214.133C156.282 214.133 155.295 213.148 155.295 211.933C155.295 210.718 156.282 209.733 157.5 209.733C158.718 209.733 159.705 210.718 159.705 211.933ZM175.878 2.2C175.878 3.41503 174.891 4.4 173.673 4.4C172.455 4.4 171.467 3.41503 171.467 2.2C171.467 0.984974 172.455 0 173.673 0C174.891 0 175.878 0.984974 175.878 2.2ZM175.878 18.3333C175.878 19.5484 174.891 20.5333 173.673 20.5333C172.455 20.5333 171.467 19.5484 171.467 18.3333C171.467 17.1183 172.455 16.1333 173.673 16.1333C174.891 16.1333 175.878 17.1183 175.878 18.3333ZM175.878 34.4667C175.878 35.6817 174.891 36.6667 173.673 36.6667C172.455 36.6667 171.467 35.6817 171.467 34.4667C171.467 33.2516 172.455 32.2667 173.673 32.2667C174.891 32.2667 175.878 33.2516 175.878 34.4667ZM175.878 50.6C175.878 51.815 174.891 52.8 173.673 52.8C172.455 52.8 171.467 51.815 171.467 50.6C171.467 49.385 172.455 48.4 173.673 48.4C174.891 48.4 175.878 49.385 175.878 50.6ZM175.878 66.7333C175.878 67.9484 174.891 68.9333 173.673 68.9333C172.455 68.9333 171.467 67.9484 171.467 66.7333C171.467 65.5183 172.455 64.5333 173.673 64.5333C174.891 64.5333 175.878 65.5183 175.878 66.7333ZM175.878 82.8667C175.878 84.0817 174.891 85.0667 173.673 85.0667C172.455 85.0667 171.467 84.0817 171.467 82.8667C171.467 81.6516 172.455 80.6667 173.673 80.6667C174.891 80.6667 175.878 81.6516 175.878 82.8667ZM175.878 99C175.878 100.215 174.891 101.2 173.673 101.2C172.455 101.2 171.467 100.215 171.467 99C171.467 97.785 172.455 96.8 173.673 96.8C174.891 96.8 175.878 97.785 175.878 99ZM175.878 115.133C175.878 116.348 174.891 117.333 173.673 117.333C172.455 117.333 171.467 116.348 171.467 115.133C171.467 113.918 172.455 112.933 173.673 112.933C174.891 112.933 175.878 113.918 175.878 115.133ZM175.878 131.267C175.878 132.482 174.891 133.467 173.673 133.467C172.455 133.467 171.467 132.482 171.467 131.267C171.467 130.052 172.455 129.067 173.673 129.067C174.891 129.067 175.878 130.052 175.878 131.267ZM175.878 147.4C175.878 148.615 174.891 149.6 173.673 149.6C172.455 149.6 171.467 148.615 171.467 147.4C171.467 146.185 172.455 145.2 173.673 145.2C174.891 145.2 175.878 146.185 175.878 147.4ZM175.878 163.533C175.878 164.748 174.891 165.733 173.673 165.733C172.455 165.733 171.467 164.748 171.467 163.533C171.467 162.318 172.455 161.333 173.673 161.333C174.891 161.333 175.878 162.318 175.878 163.533ZM175.878 179.667C175.878 180.882 174.891 181.867 173.673 181.867C172.455 181.867 171.467 180.882 171.467 179.667C171.467 178.452 172.455 177.467 173.673 177.467C174.891 177.467 175.878 178.452 175.878 179.667ZM175.878 195.8C175.878 197.015 174.891 198 173.673 198C172.455 198 171.467 197.015 171.467 195.8C171.467 194.585 172.455 193.6 173.673 193.6C174.891 193.6 175.878 194.585 175.878 195.8ZM175.878 211.933C175.878 213.148 174.891 214.133 173.673 214.133C172.455 214.133 171.467 213.148 171.467 211.933C171.467 210.718 172.455 209.733 173.673 209.733C174.891 209.733 175.878 210.718 175.878 211.933ZM192.051 2.2C192.051 3.41503 191.063 4.4 189.845 4.4C188.627 4.4 187.64 3.41503 187.64 2.2C187.64 0.984974 188.627 0 189.845 0C191.063 0 192.051 0.984974 192.051 2.2ZM192.051 18.3333C192.051 19.5484 191.063 20.5333 189.845 20.5333C188.627 20.5333 187.64 19.5484 187.64 18.3333C187.64 17.1183 188.627 16.1333 189.845 16.1333C191.063 16.1333 192.051 17.1183 192.051 18.3333ZM192.051 34.4667C192.051 35.6817 191.063 36.6667 189.845 36.6667C188.627 36.6667 187.64 35.6817 187.64 34.4667C187.64 33.2516 188.627 32.2667 189.845 32.2667C191.063 32.2667 192.051 33.2516 192.051 34.4667ZM192.051 50.6C192.051 51.815 191.063 52.8 189.845 52.8C188.627 52.8 187.64 51.815 187.64 50.6C187.64 49.385 188.627 48.4 189.845 48.4C191.063 48.4 192.051 49.385 192.051 50.6ZM192.051 66.7333C192.051 67.9484 191.063 68.9333 189.845 68.9333C188.627 68.9333 187.64 67.9484 187.64 66.7333C187.64 65.5183 188.627 64.5333 189.845 64.5333C191.063 64.5333 192.051 65.5183 192.051 66.7333ZM192.051 82.8667C192.051 84.0817 191.063 85.0667 189.845 85.0667C188.627 85.0667 187.64 84.0817 187.64 82.8667C187.64 81.6516 188.627 80.6667 189.845 80.6667C191.063 80.6667 192.051 81.6516 192.051 82.8667ZM192.051 99C192.051 100.215 191.063 101.2 189.845 101.2C188.627 101.2 187.64 100.215 187.64 99C187.64 97.785 188.627 96.8 189.845 96.8C191.063 96.8 192.051 97.785 192.051 99ZM192.051 115.133C192.051 116.348 191.063 117.333 189.845 117.333C188.627 117.333 187.64 116.348 187.64 115.133C187.64 113.918 188.627 112.933 189.845 112.933C191.063 112.933 192.051 113.918 192.051 115.133ZM192.051 131.267C192.051 132.482 191.063 133.467 189.845 133.467C188.627 133.467 187.64 132.482 187.64 131.267C187.64 130.052 188.627 129.067 189.845 129.067C191.063 129.067 192.051 130.052 192.051 131.267ZM192.051 147.4C192.051 148.615 191.063 149.6 189.845 149.6C188.627 149.6 187.64 148.615 187.64 147.4C187.64 146.185 188.627 145.2 189.845 145.2C191.063 145.2 192.051 146.185 192.051 147.4ZM192.051 163.533C192.051 164.748 191.063 165.733 189.845 165.733C188.627 165.733 187.64 164.748 187.64 163.533C187.64 162.318 188.627 161.333 189.845 161.333C191.063 161.333 192.051 162.318 192.051 163.533ZM192.051 179.667C192.051 180.882 191.063 181.867 189.845 181.867C188.627 181.867 187.64 180.882 187.64 179.667C187.64 178.452 188.627 177.467 189.845 177.467C191.063 177.467 192.051 178.452 192.051 179.667ZM192.051 195.8C192.051 197.015 191.063 198 189.845 198C188.627 198 187.64 197.015 187.64 195.8C187.64 194.585 188.627 193.6 189.845 193.6C191.063 193.6 192.051 194.585 192.051 195.8ZM192.051 211.933C192.051 213.148 191.063 214.133 189.845 214.133C188.627 214.133 187.64 213.148 187.64 211.933C187.64 210.718 188.627 209.733 189.845 209.733C191.063 209.733 192.051 210.718 192.051 211.933Z" fill="#F6F6F6"/>
<path fill-rule="evenodd" clip-rule="evenodd" d="M227.941 59.1506C256.169 71.0344 276.034 99.3457 280.843 128.88C285.652 158.415 275.197 189.173 254.497 211.018C233.796 232.863 202.849 245.97 171.066 254.708C139.074 263.621 106.245 268.165 81.1534 258.903C56.0615 249.64 38.7063 226.397 23.6512 202.804C8.59603 179.386 -4.15902 155.619 1.27756 135.346C6.92323 115.074 30.5514 98.4719 54.3887 86.0639C78.2261 73.6558 101.854 65.2673 132.174 58.8011C162.493 52.1602 199.504 47.4416 227.941 59.1506Z" fill="#F6F6F6"/>
<path fill-rule="evenodd" clip-rule="evenodd" d="M4.40625 249.671C5.48304 249.671 6.4594 250.111 7.16665 250.819C7.87413 251.528 8.3125 252.506 8.3125 253.586C8.3125 254.665 7.87405 255.643 7.16649 256.352C6.45926 257.061 5.48296 257.5 4.40625 257.5C3.32954 257.5 2.35324 257.061 1.64601 256.352C0.938453 255.643 0.5 254.665 0.5 253.586C0.5 252.506 0.938373 251.528 1.64585 250.819C2.3531 250.111 3.32946 249.671 4.40625 249.671ZM4.40625 249.998C3.41885 249.998 2.52309 250.401 1.87434 251.051C1.22604 251.7 0.82459 252.597 0.82459 253.586C0.82459 254.575 1.22604 255.471 1.87434 256.121C2.52309 256.771 3.41885 257.173 4.40625 257.173C5.39395 257.173 6.28961 256.771 6.93825 256.121C7.58656 255.472 7.98791 254.575 7.98791 253.586C7.98791 252.597 7.58656 251.7 6.93825 251.05C6.28961 250.401 5.39395 249.998 4.40625 249.998ZM232.73 198.171C232.807 198.171 232.883 198.201 232.943 198.261C233.002 198.32 233.031 198.397 233.031 198.474C233.031 198.552 233.002 198.63 232.942 198.689L229.551 202.085L232.942 205.483C233.002 205.542 233.031 205.619 233.031 205.697C233.031 205.775 233.002 205.852 232.942 205.912C232.884 205.97 232.807 206 232.73 206C232.653 206 232.576 205.97 232.517 205.912L229.125 202.513L225.733 205.912C225.674 205.97 225.597 206 225.52 206C225.443 206 225.366 205.97 225.308 205.912C225.248 205.852 225.219 205.775 225.219 205.697C225.219 205.619 225.248 205.542 225.308 205.483L228.698 202.085L225.308 198.689C225.248 198.63 225.219 198.552 225.219 198.474C225.219 198.397 225.248 198.32 225.308 198.26C225.367 198.201 225.443 198.171 225.52 198.171L229.125 201.657L232.517 198.26C232.576 198.201 232.653 198.171 232.73 198.171ZM56.4796 189.343C56.5568 189.343 56.6338 189.373 56.6927 189.432C56.7517 189.491 56.781 189.568 56.781 189.646C56.781 189.724 56.7514 189.801 56.6927 189.86L53.3012 193.257L56.6923 196.654C56.7515 196.713 56.7812 196.791 56.7812 196.868C56.7812 196.946 56.7515 197.024 56.6923 197.083C56.6337 197.142 56.5567 197.171 56.4796 197.171C56.4026 197.171 56.3256 197.142 56.2669 197.083L52.8747 193.684L49.4831 197.083C49.4244 197.142 49.3474 197.171 49.2704 197.171C49.1933 197.171 49.1163 197.142 49.0577 197.083C48.9985 197.024 48.9688 196.946 48.9688 196.868C48.9688 196.791 48.9985 196.713 49.0577 196.654L52.4482 193.257L49.0578 189.861C48.9986 189.801 48.969 189.724 48.969 189.646C48.969 189.568 48.9983 189.491 49.0573 189.432C49.1162 189.373 49.1932 189.343 49.2704 189.343L52.8747 192.83L56.2677 189.431C56.3262 189.372 56.4029 189.343 56.4796 189.343ZM229.125 114.3C230.202 114.3 231.178 114.739 231.885 115.447C232.593 116.156 233.031 117.135 233.031 118.214C233.031 119.293 232.593 120.272 231.885 120.981C231.178 121.689 230.202 122.129 229.125 122.129C228.048 122.129 227.072 121.689 226.365 120.981C225.657 120.272 225.219 119.293 225.219 118.214C225.219 117.135 225.657 116.156 226.365 115.448C227.072 114.739 228.048 114.3 229.125 114.3ZM229.125 114.627C228.137 114.627 227.242 115.029 226.593 115.679C225.945 116.328 225.543 117.225 225.543 118.214C225.543 119.203 225.945 120.1 226.593 120.749C227.242 121.399 228.137 121.802 229.125 121.802C230.112 121.802 231.008 121.399 231.657 120.749C232.305 120.1 232.707 119.203 232.707 118.214C232.707 117.225 232.305 116.328 231.657 115.679C231.008 115.029 230.112 114.627 229.125 114.627ZM281.199 52.5C281.276 52.5 281.352 52.5293 281.411 52.5881C281.47 52.6474 281.5 52.7251 281.5 52.8028C281.5 52.8802 281.47 52.9576 281.411 53.017L278.02 56.414L281.411 59.8112C281.47 59.8705 281.5 59.948 281.5 60.0256C281.5 60.1033 281.47 60.1808 281.411 60.2401C281.352 60.2989 281.275 60.3286 281.198 60.3286C281.121 60.3286 281.044 60.2989 280.986 60.2401L277.593 56.8412L274.202 60.2401C274.143 60.2989 274.066 60.3286 273.989 60.3286C273.912 60.3286 273.835 60.2989 273.776 60.2401C273.717 60.1808 273.688 60.1033 273.688 60.0256C273.688 59.948 273.717 59.8705 273.776 59.8112L277.167 56.414L273.776 53.0165C273.717 52.9576 273.688 52.8802 273.688 52.8028C273.688 52.7251 273.717 52.6474 273.776 52.5881C273.835 52.5293 273.912 52.5 273.989 52.5L277.593 55.9857L280.985 52.5885C281.044 52.5296 281.121 52.5 281.199 52.5ZM55.4548 53.472C56.2642 54.1846 56.7086 55.1609 56.7731 56.1614C56.8375 57.162 56.5221 58.1872 55.8107 58.9979C55.1251 59.7796 54.1777 60.249 53.1415 60.3194C51.9344 60.3249 51.0213 59.9919 50.2972 59.3536C49.5131 58.6639 49.0446 57.7094 48.977 56.6652C48.9101 55.6218 49.2524 54.6143 49.9422 53.8284C50.653 53.0179 51.6267 52.5727 52.6248 52.5082C53.623 52.4437 54.6457 52.7597 55.4548 53.472ZM52.8781 52.8269C51.8827 52.8269 50.8921 53.239 50.1847 54.0449C49.5535 54.7652 49.2395 55.688 49.3018 56.6448C49.3634 57.6004 49.7929 58.4754 50.5109 59.1076C51.2305 59.7413 52.1545 60.0585 53.1081 59.9936C54.0618 59.9321 54.9356 59.501 55.5669 58.7814C56.2186 58.0387 56.5083 57.0996 56.4493 56.1828C56.3904 55.2659 55.9829 54.3716 55.2414 53.7182C54.5619 53.1208 53.7181 52.8269 52.8781 52.8269Z" stroke="#E5E5E5"/>
<path fill-rule="evenodd" clip-rule="evenodd" d="M187.8 105.8C186.807 105.8 186 104.992 186 104C186 103.007 186.807 102.2 187.8 102.2C188.793 102.2 189.6 103.007 189.6 104C189.6 104.992 188.793 105.8 187.8 105.8ZM139.2 219.2C138.207 219.2 137.4 218.392 137.4 217.4C137.4 216.407 138.207 215.6 139.2 215.6C140.193 215.6 141 216.407 141 217.4C141 218.392 140.193 219.2 139.2 219.2ZM92.4 100.4C91.4075 100.4 90.6 99.5923 90.6 98.5998C90.6 97.6072 91.4075 96.7998 92.4 96.7998C93.3925 96.7998 94.2 97.6072 94.2 98.5998C94.2 99.5923 93.3925 100.4 92.4 100.4Z" fill="#CACAFB"/>
<path d="M97.8 123.8C97.8 124.793 98.6075 125.6 99.6 125.6C100.593 125.6 101.4 124.793 101.4 123.8C101.4 122.807 100.593 122 99.6 122C98.6075 122 97.8 122.807 97.8 123.8Z" fill="#E1000F"/>
<path d="M105 123.8C105 124.793 105.807 125.6 106.8 125.6C107.793 125.6 108.6 124.793 108.6 123.8C108.6 122.807 107.793 122 106.8 122C105.807 122 105 122.807 105 123.8Z" fill="#E1000F"/>
<path d="M112.2 123.8C112.2 124.793 113.007 125.6 114 125.6C114.993 125.6 115.8 124.793 115.8 123.8C115.8 122.807 114.993 122 114 122C113.007 122 112.2 122.807 112.2 123.8Z" fill="#E1000F"/>
<path d="M184.2 123.8C184.2 122.806 183.394 122 182.4 122H128.4L128.19 122.012C127.295 122.116 126.6 122.877 126.6 123.8C126.6 124.794 127.406 125.6 128.4 125.6H182.4L182.61 125.588C183.505 125.484 184.2 124.723 184.2 123.8Z" fill="#E1000F"/>
<path fill-rule="evenodd" clip-rule="evenodd" d="M189.6 114.8C190.523 114.8 191.284 115.495 191.388 116.39L191.4 116.6V145.4C191.4 146.394 190.594 147.2 189.6 147.2C188.677 147.2 187.916 146.505 187.812 145.61L187.8 145.4V118.4H94.2L94.199 129.199L160.8 129.2C161.794 129.2 162.6 130.006 162.6 131C162.6 131.923 161.905 132.684 161.01 132.788L160.8 132.8H94.199L94.2 197.6H135.6C136.523 197.6 137.284 198.295 137.388 199.19L137.4 199.4C137.4 200.323 136.705 201.084 135.81 201.188L135.6 201.2H92.4C91.4769 201.2 90.7161 200.505 90.6121 199.61L90.6 199.4V116.6C90.6 115.677 91.2948 114.916 92.1901 114.812L92.4 114.8H189.6ZM128.4 165.2C129.394 165.2 130.2 166.006 130.2 167C130.2 167.923 129.505 168.684 128.61 168.788L128.4 168.8H106.8C105.806 168.8 105 167.994 105 167C105 166.077 105.695 165.316 106.59 165.212L106.8 165.2H128.4ZM132 154.4C132.994 154.4 133.8 155.206 133.8 156.2C133.8 157.123 133.105 157.884 132.21 157.988L132 158H106.8C105.806 158 105 157.194 105 156.2C105 155.277 105.695 154.516 106.59 154.412L106.8 154.4H132ZM139.2 143.6C140.194 143.6 141 144.406 141 145.4C141 146.323 140.305 147.084 139.41 147.188L139.2 147.2H106.8C105.806 147.2 105 146.394 105 145.4C105 144.477 105.695 143.716 106.59 143.612L106.8 143.6H139.2Z" fill="#000091"/>
<path fill-rule="evenodd" clip-rule="evenodd" d="M160.917 156.666V151.833H185.083V156.666H197.167V161.5H192.333V197.75C192.333 199.084 191.251 200.166 189.917 200.166H156.083C154.749 200.166 153.667 199.084 153.667 197.75V161.5H148.833V156.666H160.917ZM158.5 161.5V195.333H187.5V161.5H158.5ZM165.75 168.75H170.583V188.083H165.75V168.75ZM175.417 168.75H180.25V188.083H175.417V168.75Z" fill="#E1000F"/>
</g>
<defs>
<clipPath id="clip0_1164_158494">
<rect width="282" height="319" fill="white"/>
</clipPath>
</defs>
</svg>
