<svg width="389" height="440" viewBox="0 0 389 440" fill="none" xmlns="http://www.w3.org/2000/svg">
<g clip-path="url(#clip0_1601_146795)">
<path fill-rule="evenodd" clip-rule="evenodd" d="M49.9445 433.931C51.6246 433.931 52.9866 435.289 52.9866 436.965C52.9866 438.641 51.6246 440 49.9445 440C48.2644 440 46.9023 438.641 46.9023 436.965C46.9023 435.289 48.2644 433.931 49.9445 433.931ZM72.2535 433.931C73.9337 433.931 75.2957 435.289 75.2957 436.965C75.2957 438.641 73.9337 440 72.2535 440C70.5734 440 69.2114 438.641 69.2114 436.965C69.2114 435.289 70.5734 433.931 72.2535 433.931ZM94.5626 433.931C96.2427 433.931 97.6047 435.289 97.6047 436.965C97.6047 438.641 96.2427 440 94.5626 440C92.8824 440 91.5204 438.641 91.5204 436.965C91.5204 435.289 92.8824 433.931 94.5626 433.931ZM116.872 433.931C118.552 433.931 119.914 435.289 119.914 436.965C119.914 438.641 118.552 440 116.872 440C115.191 440 113.829 438.641 113.829 436.965C113.829 435.289 115.191 433.931 116.872 433.931ZM139.181 433.931C140.861 433.931 142.223 435.289 142.223 436.965C142.223 438.641 140.861 440 139.181 440C137.501 440 136.139 438.641 136.139 436.965C136.139 435.289 137.501 433.931 139.181 433.931ZM161.49 433.931C163.17 433.931 164.532 435.289 164.532 436.965C164.532 438.641 163.17 440 161.49 440C159.81 440 158.448 438.641 158.448 436.965C158.448 435.289 159.81 433.931 161.49 433.931ZM183.799 433.931C185.479 433.931 186.841 435.289 186.841 436.965C186.841 438.641 185.479 440 183.799 440C182.119 440 180.757 438.641 180.757 436.965C180.757 435.289 182.119 433.931 183.799 433.931ZM206.108 433.931C207.788 433.931 209.15 435.289 209.15 436.965C209.15 438.641 207.788 440 206.108 440C204.428 440 203.066 438.641 203.066 436.965C203.066 435.289 204.428 433.931 206.108 433.931ZM228.417 433.931C230.097 433.931 231.459 435.289 231.459 436.965C231.459 438.641 230.097 440 228.417 440C226.737 440 225.375 438.641 225.375 436.965C225.375 435.289 226.737 433.931 228.417 433.931ZM250.726 433.803C252.406 433.803 253.768 435.162 253.768 436.838C253.768 438.514 252.406 439.872 250.726 439.872C249.046 439.872 247.684 438.514 247.684 436.838C247.684 435.162 249.046 433.803 250.726 433.803ZM273.035 433.803C274.715 433.803 276.077 435.162 276.077 436.838C276.077 438.514 274.715 439.872 273.035 439.872C271.355 439.872 269.993 438.514 269.993 436.838C269.993 435.162 271.355 433.803 273.035 433.803ZM295.344 433.803C297.024 433.803 298.386 435.162 298.386 436.838C298.386 438.514 297.024 439.872 295.344 439.872C293.664 439.872 292.302 438.514 292.302 436.838C292.302 435.162 293.664 433.803 295.344 433.803ZM317.653 433.803C319.333 433.803 320.695 435.162 320.695 436.838C320.695 438.514 319.333 439.872 317.653 439.872C315.973 439.872 314.611 438.514 314.611 436.838C314.611 435.162 315.973 433.803 317.653 433.803ZM339.962 433.803C341.642 433.803 343.004 435.162 343.004 436.838C343.004 438.514 341.642 439.872 339.962 439.872C338.282 439.872 336.92 438.514 336.92 436.838C336.92 435.162 338.282 433.803 339.962 433.803ZM362.271 433.803C363.951 433.803 365.313 435.162 365.313 436.838C365.313 438.514 363.951 439.872 362.271 439.872C360.591 439.872 359.229 438.514 359.229 436.838C359.229 435.162 360.591 433.803 362.271 433.803ZM384.58 433.803C386.26 433.803 387.622 435.162 387.622 436.838C387.622 438.514 386.26 439.872 384.58 439.872C382.9 439.872 381.538 438.514 381.538 436.838C381.538 435.162 382.9 433.803 384.58 433.803ZM228.417 411.678C230.097 411.678 231.459 413.036 231.459 414.712C231.459 416.388 230.097 417.747 228.417 417.747C226.737 417.747 225.375 416.388 225.375 414.712C225.375 413.036 226.737 411.678 228.417 411.678ZM250.726 411.55C252.406 411.55 253.768 412.909 253.768 414.585C253.768 416.261 252.406 417.619 250.726 417.619C249.046 417.619 247.684 416.261 247.684 414.585C247.684 412.909 249.046 411.55 250.726 411.55ZM273.035 411.55C274.715 411.55 276.077 412.909 276.077 414.585C276.077 416.261 274.715 417.619 273.035 417.619C271.355 417.619 269.993 416.261 269.993 414.585C269.993 412.909 271.355 411.55 273.035 411.55ZM295.344 411.55C297.024 411.55 298.386 412.909 298.386 414.585C298.386 416.261 297.024 417.619 295.344 417.619C293.664 417.619 292.302 416.261 292.302 414.585C292.302 412.909 293.664 411.55 295.344 411.55ZM49.9445 411.678C51.6246 411.678 52.9866 413.036 52.9866 414.712C52.9866 416.388 51.6246 417.747 49.9445 417.747C48.2644 417.747 46.9023 416.388 46.9023 414.712C46.9023 413.036 48.2644 411.678 49.9445 411.678ZM94.5626 411.678C96.2427 411.678 97.6047 413.036 97.6047 414.712C97.6047 416.388 96.2427 417.747 94.5626 417.747C92.8824 417.747 91.5204 416.388 91.5204 414.712C91.5204 413.036 92.8824 411.678 94.5626 411.678ZM139.181 411.678C140.861 411.678 142.223 413.036 142.223 414.712C142.223 416.388 140.861 417.747 139.181 417.747C137.501 417.747 136.139 416.388 136.139 414.712C136.139 413.036 137.501 411.678 139.181 411.678ZM183.799 411.678C185.479 411.678 186.841 413.036 186.841 414.712C186.841 416.388 185.479 417.747 183.799 417.747C182.119 417.747 180.757 416.388 180.757 414.712C180.757 413.036 182.119 411.678 183.799 411.678ZM206.108 411.678C207.788 411.678 209.15 413.036 209.15 414.712C209.15 416.388 207.788 417.747 206.108 417.747C204.428 417.747 203.066 416.388 203.066 414.712C203.066 413.036 204.428 411.678 206.108 411.678ZM339.962 411.55C341.642 411.55 343.004 412.909 343.004 414.585C343.004 416.261 341.642 417.619 339.962 417.619C338.282 417.619 336.92 416.261 336.92 414.585C336.92 412.909 338.282 411.55 339.962 411.55ZM72.2535 411.678C73.9337 411.678 75.2957 413.036 75.2957 414.712C75.2957 416.388 73.9337 417.747 72.2535 417.747C70.5734 417.747 69.2114 416.388 69.2114 414.712C69.2114 413.036 70.5734 411.678 72.2535 411.678ZM362.271 411.55C363.951 411.55 365.313 412.909 365.313 414.585C365.313 416.261 363.951 417.619 362.271 417.619C360.591 417.619 359.229 416.261 359.229 414.585C359.229 412.909 360.591 411.55 362.271 411.55ZM116.872 411.678C118.552 411.678 119.914 413.036 119.914 414.712C119.914 416.388 118.552 417.747 116.872 417.747C115.191 417.747 113.829 416.388 113.829 414.712C113.829 413.036 115.191 411.678 116.872 411.678ZM384.58 411.55C386.26 411.55 387.622 412.909 387.622 414.585C387.622 416.261 386.26 417.619 384.58 417.619C382.9 417.619 381.538 416.261 381.538 414.585C381.538 412.909 382.9 411.55 384.58 411.55ZM161.49 411.678C163.17 411.678 164.532 413.036 164.532 414.712C164.532 416.388 163.17 417.747 161.49 417.747C159.81 417.747 158.448 416.388 158.448 414.712C158.448 413.036 159.81 411.678 161.49 411.678ZM317.653 411.55C319.333 411.55 320.695 412.909 320.695 414.585C320.695 416.261 319.333 417.619 317.653 417.619C315.973 417.619 314.611 416.261 314.611 414.585C314.611 412.909 315.973 411.55 317.653 411.55ZM94.5626 389.425C96.2427 389.425 97.6047 390.783 97.6047 392.459C97.6047 394.135 96.2427 395.494 94.5626 395.494C92.8824 395.494 91.5204 394.135 91.5204 392.459C91.5204 390.783 92.8824 389.425 94.5626 389.425ZM139.181 389.425C140.861 389.425 142.223 390.783 142.223 392.459C142.223 394.135 140.861 395.494 139.181 395.494C137.501 395.494 136.139 394.135 136.139 392.459C136.139 390.783 137.501 389.425 139.181 389.425ZM161.49 389.425C163.17 389.425 164.532 390.783 164.532 392.459C164.532 394.135 163.17 395.494 161.49 395.494C159.81 395.494 158.448 394.135 158.448 392.459C158.448 390.783 159.81 389.425 161.49 389.425ZM183.799 389.425C185.479 389.425 186.841 390.783 186.841 392.459C186.841 394.135 185.479 395.494 183.799 395.494C182.119 395.494 180.757 394.135 180.757 392.459C180.757 390.783 182.119 389.425 183.799 389.425ZM206.108 389.425C207.788 389.425 209.15 390.783 209.15 392.459C209.15 394.135 207.788 395.494 206.108 395.494C204.428 395.494 203.066 394.135 203.066 392.459C203.066 390.783 204.428 389.425 206.108 389.425ZM49.9445 389.425C51.6246 389.425 52.9866 390.783 52.9866 392.459C52.9866 394.135 51.6246 395.494 49.9445 395.494C48.2644 395.494 46.9023 394.135 46.9023 392.459C46.9023 390.783 48.2644 389.425 49.9445 389.425ZM72.2535 389.425C73.9337 389.425 75.2957 390.783 75.2957 392.459C75.2957 394.135 73.9337 395.494 72.2535 395.494C70.5734 395.494 69.2114 394.135 69.2114 392.459C69.2114 390.783 70.5734 389.425 72.2535 389.425ZM116.872 389.425C118.552 389.425 119.914 390.783 119.914 392.459C119.914 394.135 118.552 395.494 116.872 395.494C115.191 395.494 113.829 394.135 113.829 392.459C113.829 390.783 115.191 389.425 116.872 389.425ZM228.417 389.425C230.097 389.425 231.459 390.783 231.459 392.459C231.459 394.135 230.097 395.494 228.417 395.494C226.737 395.494 225.375 394.135 225.375 392.459C225.375 390.783 226.737 389.425 228.417 389.425ZM250.726 389.298C252.406 389.298 253.768 390.656 253.768 392.332C253.768 394.008 252.406 395.367 250.726 395.367C249.046 395.367 247.684 394.008 247.684 392.332C247.684 390.656 249.046 389.298 250.726 389.298ZM273.035 389.298C274.715 389.298 276.077 390.656 276.077 392.332C276.077 394.008 274.715 395.367 273.035 395.367C271.355 395.367 269.993 394.008 269.993 392.332C269.993 390.656 271.355 389.298 273.035 389.298ZM295.344 389.298C297.024 389.298 298.386 390.656 298.386 392.332C298.386 394.008 297.024 395.367 295.344 395.367C293.664 395.367 292.302 394.008 292.302 392.332C292.302 390.656 293.664 389.298 295.344 389.298ZM317.653 389.298C319.333 389.298 320.695 390.656 320.695 392.332C320.695 394.008 319.333 395.367 317.653 395.367C315.973 395.367 314.611 394.008 314.611 392.332C314.611 390.656 315.973 389.298 317.653 389.298ZM339.962 389.298C341.642 389.298 343.004 390.656 343.004 392.332C343.004 394.008 341.642 395.367 339.962 395.367C338.282 395.367 336.92 394.008 336.92 392.332C336.92 390.656 338.282 389.298 339.962 389.298ZM362.271 389.298C363.951 389.298 365.313 390.656 365.313 392.332C365.313 394.008 363.951 395.367 362.271 395.367C360.591 395.367 359.229 394.008 359.229 392.332C359.229 390.656 360.591 389.298 362.271 389.298ZM384.58 389.298C386.26 389.298 387.622 390.656 387.622 392.332C387.622 394.008 386.26 395.367 384.58 395.367C382.9 395.367 381.538 394.008 381.538 392.332C381.538 390.656 382.9 389.298 384.58 389.298ZM49.9445 367.172C51.6246 367.172 52.9866 368.531 52.9866 370.206C52.9866 371.882 51.6246 373.241 49.9445 373.241C48.2644 373.241 46.9023 371.882 46.9023 370.206C46.9023 368.531 48.2644 367.172 49.9445 367.172ZM72.2535 367.172C73.9337 367.172 75.2957 368.531 75.2957 370.206C75.2957 371.882 73.9337 373.241 72.2535 373.241C70.5734 373.241 69.2114 371.882 69.2114 370.206C69.2114 368.531 70.5734 367.172 72.2535 367.172ZM94.5626 367.172C96.2427 367.172 97.6047 368.531 97.6047 370.206C97.6047 371.882 96.2427 373.241 94.5626 373.241C92.8824 373.241 91.5204 371.882 91.5204 370.206C91.5204 368.531 92.8824 367.172 94.5626 367.172ZM116.872 367.172C118.552 367.172 119.914 368.531 119.914 370.206C119.914 371.882 118.552 373.241 116.872 373.241C115.191 373.241 113.829 371.882 113.829 370.206C113.829 368.531 115.191 367.172 116.872 367.172ZM139.181 367.172C140.861 367.172 142.223 368.531 142.223 370.206C142.223 371.882 140.861 373.241 139.181 373.241C137.501 373.241 136.139 371.882 136.139 370.206C136.139 368.531 137.501 367.172 139.181 367.172ZM161.49 367.172C163.17 367.172 164.532 368.531 164.532 370.206C164.532 371.882 163.17 373.241 161.49 373.241C159.81 373.241 158.448 371.882 158.448 370.206C158.448 368.531 159.81 367.172 161.49 367.172ZM183.799 367.172C185.479 367.172 186.841 368.531 186.841 370.206C186.841 371.882 185.479 373.241 183.799 373.241C182.119 373.241 180.757 371.882 180.757 370.206C180.757 368.531 182.119 367.172 183.799 367.172ZM206.108 367.172C207.788 367.172 209.15 368.531 209.15 370.206C209.15 371.882 207.788 373.241 206.108 373.241C204.428 373.241 203.066 371.882 203.066 370.206C203.066 368.531 204.428 367.172 206.108 367.172ZM228.417 367.172C230.097 367.172 231.459 368.531 231.459 370.206C231.459 371.882 230.097 373.241 228.417 373.241C226.737 373.241 225.375 371.882 225.375 370.206C225.375 368.531 226.737 367.172 228.417 367.172ZM250.726 367.045C252.406 367.045 253.768 368.403 253.768 370.079C253.768 371.755 252.406 373.114 250.726 373.114C249.046 373.114 247.684 371.755 247.684 370.079C247.684 368.403 249.046 367.045 250.726 367.045ZM273.035 367.045C274.715 367.045 276.077 368.403 276.077 370.079C276.077 371.755 274.715 373.114 273.035 373.114C271.355 373.114 269.993 371.755 269.993 370.079C269.993 368.403 271.355 367.045 273.035 367.045ZM295.344 367.045C297.024 367.045 298.386 368.403 298.386 370.079C298.386 371.755 297.024 373.114 295.344 373.114C293.664 373.114 292.302 371.755 292.302 370.079C292.302 368.403 293.664 367.045 295.344 367.045ZM317.653 367.045C319.333 367.045 320.695 368.403 320.695 370.079C320.695 371.755 319.333 373.114 317.653 373.114C315.973 373.114 314.611 371.755 314.611 370.079C314.611 368.403 315.973 367.045 317.653 367.045ZM339.962 367.045C341.642 367.045 343.004 368.403 343.004 370.079C343.004 371.755 341.642 373.114 339.962 373.114C338.282 373.114 336.92 371.755 336.92 370.079C336.92 368.403 338.282 367.045 339.962 367.045ZM362.271 367.045C363.951 367.045 365.313 368.403 365.313 370.079C365.313 371.755 363.951 373.114 362.271 373.114C360.591 373.114 359.229 371.755 359.229 370.079C359.229 368.403 360.591 367.045 362.271 367.045ZM384.58 367.045C386.26 367.045 387.622 368.403 387.622 370.079C387.622 371.755 386.26 373.114 384.58 373.114C382.9 373.114 381.538 371.755 381.538 370.079C381.538 368.403 382.9 367.045 384.58 367.045ZM49.9445 344.919C51.6246 344.919 52.9866 346.278 52.9866 347.954C52.9866 349.629 51.6246 350.988 49.9445 350.988C48.2644 350.988 46.9023 349.629 46.9023 347.954C46.9023 346.278 48.2644 344.919 49.9445 344.919ZM72.2535 344.919C73.9337 344.919 75.2957 346.278 75.2957 347.954C75.2957 349.629 73.9337 350.988 72.2535 350.988C70.5734 350.988 69.2114 349.629 69.2114 347.954C69.2114 346.278 70.5734 344.919 72.2535 344.919ZM94.5626 344.919C96.2427 344.919 97.6047 346.278 97.6047 347.954C97.6047 349.629 96.2427 350.988 94.5626 350.988C92.8824 350.988 91.5204 349.629 91.5204 347.954C91.5204 346.278 92.8824 344.919 94.5626 344.919ZM116.872 344.919C118.552 344.919 119.914 346.278 119.914 347.954C119.914 349.629 118.552 350.988 116.872 350.988C115.191 350.988 113.829 349.629 113.829 347.954C113.829 346.278 115.191 344.919 116.872 344.919ZM139.181 344.919C140.861 344.919 142.223 346.278 142.223 347.954C142.223 349.629 140.861 350.988 139.181 350.988C137.501 350.988 136.139 349.629 136.139 347.954C136.139 346.278 137.501 344.919 139.181 344.919ZM161.49 344.919C163.17 344.919 164.532 346.278 164.532 347.954C164.532 349.629 163.17 350.988 161.49 350.988C159.81 350.988 158.448 349.629 158.448 347.954C158.448 346.278 159.81 344.919 161.49 344.919ZM183.799 344.919C185.479 344.919 186.841 346.278 186.841 347.954C186.841 349.629 185.479 350.988 183.799 350.988C182.119 350.988 180.757 349.629 180.757 347.954C180.757 346.278 182.119 344.919 183.799 344.919ZM206.108 344.919C207.788 344.919 209.15 346.278 209.15 347.954C209.15 349.629 207.788 350.988 206.108 350.988C204.428 350.988 203.066 349.629 203.066 347.954C203.066 346.278 204.428 344.919 206.108 344.919ZM228.417 344.919C230.097 344.919 231.459 346.278 231.459 347.954C231.459 349.629 230.097 350.988 228.417 350.988C226.737 350.988 225.375 349.629 225.375 347.954C225.375 346.278 226.737 344.919 228.417 344.919ZM108.759 3.03399C108.759 4.70989 107.397 6.06848 105.717 6.06848C104.037 6.06848 102.675 4.70989 102.675 3.03399C102.675 1.3581 104.037 -0.000488281 105.717 -0.000488281C107.397 -0.000488281 108.759 1.3581 108.759 3.03399ZM108.759 25.2869C108.759 26.9628 107.397 28.3214 105.717 28.3214C104.037 28.3214 102.675 26.9628 102.675 25.2869C102.675 23.611 104.037 22.2524 105.717 22.2524C107.397 22.2524 108.759 23.611 108.759 25.2869ZM108.759 47.5397C108.759 49.2156 107.397 50.5742 105.717 50.5742C104.037 50.5742 102.675 49.2156 102.675 47.5397C102.675 45.8638 104.037 44.5053 105.717 44.5053C107.397 44.5053 108.759 45.8638 108.759 47.5397ZM108.759 69.7926C108.759 71.4685 107.397 72.8271 105.717 72.8271C104.037 72.8271 102.675 71.4685 102.675 69.7926C102.675 68.1167 104.037 66.7581 105.717 66.7581C107.397 66.7581 108.759 68.1167 108.759 69.7926ZM108.759 92.0455C108.759 93.7214 107.397 95.08 105.717 95.08C104.037 95.08 102.675 93.7214 102.675 92.0455C102.675 90.3696 104.037 89.011 105.717 89.011C107.397 89.011 108.759 90.3696 108.759 92.0455ZM108.759 114.298C108.759 115.974 107.397 117.333 105.717 117.333C104.037 117.333 102.675 115.974 102.675 114.298C102.675 112.622 104.037 111.264 105.717 111.264C107.397 111.264 108.759 112.622 108.759 114.298ZM108.759 136.551C108.759 138.227 107.397 139.586 105.717 139.586C104.037 139.586 102.675 138.227 102.675 136.551C102.675 134.875 104.037 133.517 105.717 133.517C107.397 133.517 108.759 134.875 108.759 136.551ZM108.759 158.804C108.759 160.48 107.397 161.839 105.717 161.839C104.037 161.839 102.675 160.48 102.675 158.804C102.675 157.128 104.037 155.77 105.717 155.77C107.397 155.77 108.759 157.128 108.759 158.804ZM108.759 181.057C108.759 182.733 107.397 184.091 105.717 184.091C104.037 184.091 102.675 182.733 102.675 181.057C102.675 179.381 104.037 178.023 105.717 178.023C107.397 178.023 108.759 179.381 108.759 181.057ZM108.759 203.31C108.759 204.986 107.397 206.344 105.717 206.344C104.037 206.344 102.675 204.986 102.675 203.31C102.675 201.634 104.037 200.275 105.717 200.275C107.397 200.275 108.759 201.634 108.759 203.31ZM108.759 225.563C108.759 227.239 107.397 228.597 105.717 228.597C104.037 228.597 102.675 227.239 102.675 225.563C102.675 223.887 104.037 222.528 105.717 222.528C107.397 222.528 108.759 223.887 108.759 225.563ZM108.759 247.816C108.759 249.492 107.397 250.85 105.717 250.85C104.037 250.85 102.675 249.492 102.675 247.816C102.675 246.14 104.037 244.781 105.717 244.781C107.397 244.781 108.759 246.14 108.759 247.816ZM108.759 270.068C108.759 271.744 107.397 273.103 105.717 273.103C104.037 273.103 102.675 271.744 102.675 270.068C102.675 268.393 104.037 267.034 105.717 267.034C107.397 267.034 108.759 268.393 108.759 270.068ZM108.759 292.321C108.759 293.997 107.397 295.356 105.717 295.356C104.037 295.356 102.675 293.997 102.675 292.321C102.675 290.645 104.037 289.287 105.717 289.287C107.397 289.287 108.759 290.645 108.759 292.321ZM131.068 136.551C131.068 138.227 129.706 139.586 128.026 139.586C126.346 139.586 124.984 138.227 124.984 136.551C124.984 134.875 126.346 133.517 128.026 133.517C129.706 133.517 131.068 134.875 131.068 136.551ZM131.068 158.804C131.068 160.48 129.706 161.839 128.026 161.839C126.346 161.839 124.984 160.48 124.984 158.804C124.984 157.128 126.346 155.77 128.026 155.77C129.706 155.77 131.068 157.128 131.068 158.804ZM131.068 181.057C131.068 182.733 129.706 184.091 128.026 184.091C126.346 184.091 124.984 182.733 124.984 181.057C124.984 179.381 126.346 178.023 128.026 178.023C129.706 178.023 131.068 179.381 131.068 181.057ZM131.068 203.31C131.068 204.986 129.706 206.344 128.026 206.344C126.346 206.344 124.984 204.986 124.984 203.31C124.984 201.634 126.346 200.275 128.026 200.275C129.706 200.275 131.068 201.634 131.068 203.31ZM131.068 3.03399C131.068 4.70989 129.706 6.06848 128.026 6.06848C126.346 6.06848 124.984 4.70989 124.984 3.03399C124.984 1.3581 126.346 -0.000488281 128.026 -0.000488281C129.706 -0.000488281 131.068 1.3581 131.068 3.03399ZM131.068 47.5397C131.068 49.2156 129.706 50.5742 128.026 50.5742C126.346 50.5742 124.984 49.2156 124.984 47.5397C124.984 45.8638 126.346 44.5053 128.026 44.5053C129.706 44.5053 131.068 45.8638 131.068 47.5397ZM131.068 92.0455C131.068 93.7214 129.706 95.08 128.026 95.08C126.346 95.08 124.984 93.7214 124.984 92.0455C124.984 90.3696 126.346 89.011 128.026 89.011C129.706 89.011 131.068 90.3696 131.068 92.0455ZM131.068 114.298C131.068 115.974 129.706 117.333 128.026 117.333C126.346 117.333 124.984 115.974 124.984 114.298C124.984 112.622 126.346 111.264 128.026 111.264C129.706 111.264 131.068 112.622 131.068 114.298ZM131.068 247.816C131.068 249.492 129.706 250.85 128.026 250.85C126.346 250.85 124.984 249.492 124.984 247.816C124.984 246.14 126.346 244.781 128.026 244.781C129.706 244.781 131.068 246.14 131.068 247.816ZM131.068 270.068C131.068 271.744 129.706 273.103 128.026 273.103C126.346 273.103 124.984 271.744 124.984 270.068C124.984 268.393 126.346 267.034 128.026 267.034C129.706 267.034 131.068 268.393 131.068 270.068ZM131.068 25.2869C131.068 26.9628 129.706 28.3214 128.026 28.3214C126.346 28.3214 124.984 26.9628 124.984 25.2869C124.984 23.611 126.346 22.2524 128.026 22.2524C129.706 22.2524 131.068 23.611 131.068 25.2869ZM131.068 292.321C131.068 293.997 129.706 295.356 128.026 295.356C126.346 295.356 124.984 293.997 124.984 292.321C124.984 290.645 126.346 289.287 128.026 289.287C129.706 289.287 131.068 290.645 131.068 292.321ZM131.068 69.7926C131.068 71.4685 129.706 72.8271 128.026 72.8271C126.346 72.8271 124.984 71.4685 124.984 69.7926C124.984 68.1167 126.346 66.7581 128.026 66.7581C129.706 66.7581 131.068 68.1167 131.068 69.7926ZM131.068 225.563C131.068 227.239 129.706 228.597 128.026 228.597C126.346 228.597 124.984 227.239 124.984 225.563C124.984 223.887 126.346 222.528 128.026 222.528C129.706 222.528 131.068 223.887 131.068 225.563ZM153.377 3.03399C153.377 4.70989 152.015 6.06848 150.335 6.06848C148.655 6.06848 147.293 4.70989 147.293 3.03399C147.293 1.3581 148.655 -0.000488281 150.335 -0.000488281C152.015 -0.000488281 153.377 1.3581 153.377 3.03399ZM153.377 47.5397C153.377 49.2156 152.015 50.5742 150.335 50.5742C148.655 50.5742 147.293 49.2156 147.293 47.5397C147.293 45.8638 148.655 44.5053 150.335 44.5053C152.015 44.5053 153.377 45.8638 153.377 47.5397ZM153.377 69.7926C153.377 71.4685 152.015 72.8271 150.335 72.8271C148.655 72.8271 147.293 71.4685 147.293 69.7926C147.293 68.1167 148.655 66.7581 150.335 66.7581C152.015 66.7581 153.377 68.1167 153.377 69.7926ZM153.377 92.0455C153.377 93.7214 152.015 95.08 150.335 95.08C148.655 95.08 147.293 93.7214 147.293 92.0455C147.293 90.3696 148.655 89.011 150.335 89.011C152.015 89.011 153.377 90.3696 153.377 92.0455ZM153.377 114.298C153.377 115.974 152.015 117.333 150.335 117.333C148.655 117.333 147.293 115.974 147.293 114.298C147.293 112.622 148.655 111.264 150.335 111.264C152.015 111.264 153.377 112.622 153.377 114.298ZM153.377 25.2869C153.377 26.9628 152.015 28.3214 150.335 28.3214C148.655 28.3214 147.293 26.9628 147.293 25.2869C147.293 23.611 148.655 22.2524 150.335 22.2524C152.015 22.2524 153.377 23.611 153.377 25.2869ZM153.377 136.551C153.377 138.227 152.015 139.586 150.335 139.586C148.655 139.586 147.293 138.227 147.293 136.551C147.293 134.875 148.655 133.517 150.335 133.517C152.015 133.517 153.377 134.875 153.377 136.551ZM153.377 158.804C153.377 160.48 152.015 161.839 150.335 161.839C148.655 161.839 147.293 160.48 147.293 158.804C147.293 157.128 148.655 155.77 150.335 155.77C152.015 155.77 153.377 157.128 153.377 158.804ZM153.377 181.057C153.377 182.733 152.015 184.091 150.335 184.091C148.655 184.091 147.293 182.733 147.293 181.057C147.293 179.381 148.655 178.023 150.335 178.023C152.015 178.023 153.377 179.381 153.377 181.057ZM153.377 203.31C153.377 204.986 152.015 206.344 150.335 206.344C148.655 206.344 147.293 204.986 147.293 203.31C147.293 201.634 148.655 200.275 150.335 200.275C152.015 200.275 153.377 201.634 153.377 203.31ZM153.377 225.563C153.377 227.239 152.015 228.597 150.335 228.597C148.655 228.597 147.293 227.239 147.293 225.563C147.293 223.887 148.655 222.528 150.335 222.528C152.015 222.528 153.377 223.887 153.377 225.563ZM153.377 247.816C153.377 249.492 152.015 250.85 150.335 250.85C148.655 250.85 147.293 249.492 147.293 247.816C147.293 246.14 148.655 244.781 150.335 244.781C152.015 244.781 153.377 246.14 153.377 247.816ZM153.377 270.068C153.377 271.744 152.015 273.103 150.335 273.103C148.655 273.103 147.293 271.744 147.293 270.068C147.293 268.393 148.655 267.034 150.335 267.034C152.015 267.034 153.377 268.393 153.377 270.068ZM153.377 292.321C153.377 293.997 152.015 295.356 150.335 295.356C148.655 295.356 147.293 293.997 147.293 292.321C147.293 290.645 148.655 289.287 150.335 289.287C152.015 289.287 153.377 290.645 153.377 292.321ZM175.686 3.03399C175.686 4.70989 174.324 6.06848 172.644 6.06848C170.964 6.06848 169.602 4.70989 169.602 3.03399C169.602 1.3581 170.964 -0.000488281 172.644 -0.000488281C174.324 -0.000488281 175.686 1.3581 175.686 3.03399ZM175.686 25.2869C175.686 26.9628 174.324 28.3214 172.644 28.3214C170.964 28.3214 169.602 26.9628 169.602 25.2869C169.602 23.611 170.964 22.2524 172.644 22.2524C174.324 22.2524 175.686 23.611 175.686 25.2869ZM175.686 47.5397C175.686 49.2156 174.324 50.5742 172.644 50.5742C170.964 50.5742 169.602 49.2156 169.602 47.5397C169.602 45.8638 170.964 44.5053 172.644 44.5053C174.324 44.5053 175.686 45.8638 175.686 47.5397ZM175.686 69.7926C175.686 71.4685 174.324 72.8271 172.644 72.8271C170.964 72.8271 169.602 71.4685 169.602 69.7926C169.602 68.1167 170.964 66.7581 172.644 66.7581C174.324 66.7581 175.686 68.1167 175.686 69.7926ZM175.686 92.0455C175.686 93.7214 174.324 95.08 172.644 95.08C170.964 95.08 169.602 93.7214 169.602 92.0455C169.602 90.3696 170.964 89.011 172.644 89.011C174.324 89.011 175.686 90.3696 175.686 92.0455ZM175.686 114.298C175.686 115.974 174.324 117.333 172.644 117.333C170.964 117.333 169.602 115.974 169.602 114.298C169.602 112.622 170.964 111.264 172.644 111.264C174.324 111.264 175.686 112.622 175.686 114.298ZM175.686 136.551C175.686 138.227 174.324 139.586 172.644 139.586C170.964 139.586 169.602 138.227 169.602 136.551C169.602 134.875 170.964 133.517 172.644 133.517C174.324 133.517 175.686 134.875 175.686 136.551ZM175.686 158.804C175.686 160.48 174.324 161.839 172.644 161.839C170.964 161.839 169.602 160.48 169.602 158.804C169.602 157.128 170.964 155.77 172.644 155.77C174.324 155.77 175.686 157.128 175.686 158.804ZM175.686 181.057C175.686 182.733 174.324 184.091 172.644 184.091C170.964 184.091 169.602 182.733 169.602 181.057C169.602 179.381 170.964 178.023 172.644 178.023C174.324 178.023 175.686 179.381 175.686 181.057ZM175.686 203.31C175.686 204.986 174.324 206.344 172.644 206.344C170.964 206.344 169.602 204.986 169.602 203.31C169.602 201.634 170.964 200.275 172.644 200.275C174.324 200.275 175.686 201.634 175.686 203.31ZM175.686 225.563C175.686 227.239 174.324 228.597 172.644 228.597C170.964 228.597 169.602 227.239 169.602 225.563C169.602 223.887 170.964 222.528 172.644 222.528C174.324 222.528 175.686 223.887 175.686 225.563ZM175.686 247.816C175.686 249.492 174.324 250.85 172.644 250.85C170.964 250.85 169.602 249.492 169.602 247.816C169.602 246.14 170.964 244.781 172.644 244.781C174.324 244.781 175.686 246.14 175.686 247.816ZM175.686 270.068C175.686 271.744 174.324 273.103 172.644 273.103C170.964 273.103 169.602 271.744 169.602 270.068C169.602 268.393 170.964 267.034 172.644 267.034C174.324 267.034 175.686 268.393 175.686 270.068ZM175.686 292.321C175.686 293.997 174.324 295.356 172.644 295.356C170.964 295.356 169.602 293.997 169.602 292.321C169.602 290.645 170.964 289.287 172.644 289.287C174.324 289.287 175.686 290.645 175.686 292.321ZM197.995 3.03399C197.995 4.70989 196.633 6.06848 194.953 6.06848C193.273 6.06848 191.911 4.70989 191.911 3.03399C191.911 1.3581 193.273 -0.000488281 194.953 -0.000488281C196.633 -0.000488281 197.995 1.3581 197.995 3.03399ZM197.995 25.2869C197.995 26.9628 196.633 28.3214 194.953 28.3214C193.273 28.3214 191.911 26.9628 191.911 25.2869C191.911 23.611 193.273 22.2524 194.953 22.2524C196.633 22.2524 197.995 23.611 197.995 25.2869ZM197.995 47.5397C197.995 49.2156 196.633 50.5742 194.953 50.5742C193.273 50.5742 191.911 49.2156 191.911 47.5397C191.911 45.8638 193.273 44.5053 194.953 44.5053C196.633 44.5053 197.995 45.8638 197.995 47.5397ZM197.995 69.7926C197.995 71.4685 196.633 72.8271 194.953 72.8271C193.273 72.8271 191.911 71.4685 191.911 69.7926C191.911 68.1167 193.273 66.7581 194.953 66.7581C196.633 66.7581 197.995 68.1167 197.995 69.7926ZM197.995 92.0455C197.995 93.7214 196.633 95.08 194.953 95.08C193.273 95.08 191.911 93.7214 191.911 92.0455C191.911 90.3696 193.273 89.011 194.953 89.011C196.633 89.011 197.995 90.3696 197.995 92.0455ZM197.995 114.298C197.995 115.974 196.633 117.333 194.953 117.333C193.273 117.333 191.911 115.974 191.911 114.298C191.911 112.622 193.273 111.264 194.953 111.264C196.633 111.264 197.995 112.622 197.995 114.298ZM197.995 136.551C197.995 138.227 196.633 139.586 194.953 139.586C193.273 139.586 191.911 138.227 191.911 136.551C191.911 134.875 193.273 133.517 194.953 133.517C196.633 133.517 197.995 134.875 197.995 136.551ZM197.995 158.804C197.995 160.48 196.633 161.839 194.953 161.839C193.273 161.839 191.911 160.48 191.911 158.804C191.911 157.128 193.273 155.77 194.953 155.77C196.633 155.77 197.995 157.128 197.995 158.804ZM197.995 181.057C197.995 182.733 196.633 184.091 194.953 184.091C193.273 184.091 191.911 182.733 191.911 181.057C191.911 179.381 193.273 178.023 194.953 178.023C196.633 178.023 197.995 179.381 197.995 181.057ZM197.995 203.31C197.995 204.986 196.633 206.344 194.953 206.344C193.273 206.344 191.911 204.986 191.911 203.31C191.911 201.634 193.273 200.275 194.953 200.275C196.633 200.275 197.995 201.634 197.995 203.31ZM197.995 225.563C197.995 227.239 196.633 228.597 194.953 228.597C193.273 228.597 191.911 227.239 191.911 225.563C191.911 223.887 193.273 222.528 194.953 222.528C196.633 222.528 197.995 223.887 197.995 225.563ZM197.995 247.816C197.995 249.492 196.633 250.85 194.953 250.85C193.273 250.85 191.911 249.492 191.911 247.816C191.911 246.14 193.273 244.781 194.953 244.781C196.633 244.781 197.995 246.14 197.995 247.816ZM197.995 270.068C197.995 271.744 196.633 273.103 194.953 273.103C193.273 273.103 191.911 271.744 191.911 270.068C191.911 268.393 193.273 267.034 194.953 267.034C196.633 267.034 197.995 268.393 197.995 270.068ZM197.995 292.321C197.995 293.997 196.633 295.356 194.953 295.356C193.273 295.356 191.911 293.997 191.911 292.321C191.911 290.645 193.273 289.287 194.953 289.287C196.633 289.287 197.995 290.645 197.995 292.321ZM220.304 3.03399C220.304 4.70989 218.942 6.06848 217.262 6.06848C215.582 6.06848 214.22 4.70989 214.22 3.03399C214.22 1.3581 215.582 -0.000488281 217.262 -0.000488281C218.942 -0.000488281 220.304 1.3581 220.304 3.03399ZM220.304 25.2869C220.304 26.9628 218.942 28.3214 217.262 28.3214C215.582 28.3214 214.22 26.9628 214.22 25.2869C214.22 23.611 215.582 22.2524 217.262 22.2524C218.942 22.2524 220.304 23.611 220.304 25.2869ZM220.304 47.5397C220.304 49.2156 218.942 50.5742 217.262 50.5742C215.582 50.5742 214.22 49.2156 214.22 47.5397C214.22 45.8638 215.582 44.5053 217.262 44.5053C218.942 44.5053 220.304 45.8638 220.304 47.5397ZM220.304 69.7926C220.304 71.4685 218.942 72.8271 217.262 72.8271C215.582 72.8271 214.22 71.4685 214.22 69.7926C214.22 68.1167 215.582 66.7581 217.262 66.7581C218.942 66.7581 220.304 68.1167 220.304 69.7926ZM220.304 92.0455C220.304 93.7214 218.942 95.08 217.262 95.08C215.582 95.08 214.22 93.7214 214.22 92.0455C214.22 90.3696 215.582 89.011 217.262 89.011C218.942 89.011 220.304 90.3696 220.304 92.0455ZM220.304 114.298C220.304 115.974 218.942 117.333 217.262 117.333C215.582 117.333 214.22 115.974 214.22 114.298C214.22 112.622 215.582 111.264 217.262 111.264C218.942 111.264 220.304 112.622 220.304 114.298ZM220.304 136.551C220.304 138.227 218.942 139.586 217.262 139.586C215.582 139.586 214.22 138.227 214.22 136.551C214.22 134.875 215.582 133.517 217.262 133.517C218.942 133.517 220.304 134.875 220.304 136.551ZM220.304 158.804C220.304 160.48 218.942 161.839 217.262 161.839C215.582 161.839 214.22 160.48 214.22 158.804C214.22 157.128 215.582 155.77 217.262 155.77C218.942 155.77 220.304 157.128 220.304 158.804ZM220.304 181.057C220.304 182.733 218.942 184.091 217.262 184.091C215.582 184.091 214.22 182.733 214.22 181.057C214.22 179.381 215.582 178.023 217.262 178.023C218.942 178.023 220.304 179.381 220.304 181.057ZM220.304 203.31C220.304 204.986 218.942 206.344 217.262 206.344C215.582 206.344 214.22 204.986 214.22 203.31C214.22 201.634 215.582 200.275 217.262 200.275C218.942 200.275 220.304 201.634 220.304 203.31ZM220.304 225.563C220.304 227.239 218.942 228.597 217.262 228.597C215.582 228.597 214.22 227.239 214.22 225.563C214.22 223.887 215.582 222.528 217.262 222.528C218.942 222.528 220.304 223.887 220.304 225.563ZM220.304 247.816C220.304 249.492 218.942 250.85 217.262 250.85C215.582 250.85 214.22 249.492 214.22 247.816C214.22 246.14 215.582 244.781 217.262 244.781C218.942 244.781 220.304 246.14 220.304 247.816ZM220.304 270.068C220.304 271.744 218.942 273.103 217.262 273.103C215.582 273.103 214.22 271.744 214.22 270.068C214.22 268.393 215.582 267.034 217.262 267.034C218.942 267.034 220.304 268.393 220.304 270.068ZM220.304 292.321C220.304 293.997 218.942 295.356 217.262 295.356C215.582 295.356 214.22 293.997 214.22 292.321C214.22 290.645 215.582 289.287 217.262 289.287C218.942 289.287 220.304 290.645 220.304 292.321ZM242.613 3.03399C242.613 4.70989 241.251 6.06848 239.571 6.06848C237.891 6.06848 236.529 4.70989 236.529 3.03399C236.529 1.3581 237.891 -0.000488281 239.571 -0.000488281C241.251 -0.000488281 242.613 1.3581 242.613 3.03399ZM242.613 25.2869C242.613 26.9628 241.251 28.3214 239.571 28.3214C237.891 28.3214 236.529 26.9628 236.529 25.2869C236.529 23.611 237.891 22.2524 239.571 22.2524C241.251 22.2524 242.613 23.611 242.613 25.2869ZM242.613 47.5397C242.613 49.2156 241.251 50.5742 239.571 50.5742C237.891 50.5742 236.529 49.2156 236.529 47.5397C236.529 45.8638 237.891 44.5053 239.571 44.5053C241.251 44.5053 242.613 45.8638 242.613 47.5397ZM242.613 69.7926C242.613 71.4685 241.251 72.8271 239.571 72.8271C237.891 72.8271 236.529 71.4685 236.529 69.7926C236.529 68.1167 237.891 66.7581 239.571 66.7581C241.251 66.7581 242.613 68.1167 242.613 69.7926ZM242.613 92.0455C242.613 93.7214 241.251 95.08 239.571 95.08C237.891 95.08 236.529 93.7214 236.529 92.0455C236.529 90.3696 237.891 89.011 239.571 89.011C241.251 89.011 242.613 90.3696 242.613 92.0455ZM242.613 114.298C242.613 115.974 241.251 117.333 239.571 117.333C237.891 117.333 236.529 115.974 236.529 114.298C236.529 112.622 237.891 111.264 239.571 111.264C241.251 111.264 242.613 112.622 242.613 114.298ZM242.613 136.551C242.613 138.227 241.251 139.586 239.571 139.586C237.891 139.586 236.529 138.227 236.529 136.551C236.529 134.875 237.891 133.517 239.571 133.517C241.251 133.517 242.613 134.875 242.613 136.551ZM242.613 158.804C242.613 160.48 241.251 161.839 239.571 161.839C237.891 161.839 236.529 160.48 236.529 158.804C236.529 157.128 237.891 155.77 239.571 155.77C241.251 155.77 242.613 157.128 242.613 158.804ZM242.613 181.057C242.613 182.733 241.251 184.091 239.571 184.091C237.891 184.091 236.529 182.733 236.529 181.057C236.529 179.381 237.891 178.023 239.571 178.023C241.251 178.023 242.613 179.381 242.613 181.057ZM242.613 203.31C242.613 204.986 241.251 206.344 239.571 206.344C237.891 206.344 236.529 204.986 236.529 203.31C236.529 201.634 237.891 200.275 239.571 200.275C241.251 200.275 242.613 201.634 242.613 203.31ZM242.613 225.563C242.613 227.239 241.251 228.597 239.571 228.597C237.891 228.597 236.529 227.239 236.529 225.563C236.529 223.887 237.891 222.528 239.571 222.528C241.251 222.528 242.613 223.887 242.613 225.563ZM242.613 247.816C242.613 249.492 241.251 250.85 239.571 250.85C237.891 250.85 236.529 249.492 236.529 247.816C236.529 246.14 237.891 244.781 239.571 244.781C241.251 244.781 242.613 246.14 242.613 247.816ZM242.613 270.068C242.613 271.744 241.251 273.103 239.571 273.103C237.891 273.103 236.529 271.744 236.529 270.068C236.529 268.393 237.891 267.034 239.571 267.034C241.251 267.034 242.613 268.393 242.613 270.068ZM242.613 292.321C242.613 293.997 241.251 295.356 239.571 295.356C237.891 295.356 236.529 293.997 236.529 292.321C236.529 290.645 237.891 289.287 239.571 289.287C241.251 289.287 242.613 290.645 242.613 292.321ZM264.923 3.03399C264.923 4.70989 263.561 6.06848 261.88 6.06848C260.2 6.06848 258.838 4.70989 258.838 3.03399C258.838 1.3581 260.2 -0.000488281 261.88 -0.000488281C263.561 -0.000488281 264.923 1.3581 264.923 3.03399ZM264.923 25.2869C264.923 26.9628 263.561 28.3214 261.88 28.3214C260.2 28.3214 258.838 26.9628 258.838 25.2869C258.838 23.611 260.2 22.2524 261.88 22.2524C263.561 22.2524 264.923 23.611 264.923 25.2869ZM264.923 47.5397C264.923 49.2156 263.561 50.5742 261.88 50.5742C260.2 50.5742 258.838 49.2156 258.838 47.5397C258.838 45.8638 260.2 44.5053 261.88 44.5053C263.561 44.5053 264.923 45.8638 264.923 47.5397ZM264.923 69.7926C264.923 71.4685 263.561 72.8271 261.88 72.8271C260.2 72.8271 258.838 71.4685 258.838 69.7926C258.838 68.1167 260.2 66.7581 261.88 66.7581C263.561 66.7581 264.923 68.1167 264.923 69.7926ZM264.923 92.0455C264.923 93.7214 263.561 95.08 261.88 95.08C260.2 95.08 258.838 93.7214 258.838 92.0455C258.838 90.3696 260.2 89.011 261.88 89.011C263.561 89.011 264.923 90.3696 264.923 92.0455ZM264.923 114.298C264.923 115.974 263.561 117.333 261.88 117.333C260.2 117.333 258.838 115.974 258.838 114.298C258.838 112.622 260.2 111.264 261.88 111.264C263.561 111.264 264.923 112.622 264.923 114.298ZM264.923 136.551C264.923 138.227 263.561 139.586 261.88 139.586C260.2 139.586 258.838 138.227 258.838 136.551C258.838 134.875 260.2 133.517 261.88 133.517C263.561 133.517 264.923 134.875 264.923 136.551ZM264.923 158.804C264.923 160.48 263.561 161.839 261.88 161.839C260.2 161.839 258.838 160.48 258.838 158.804C258.838 157.128 260.2 155.77 261.88 155.77C263.561 155.77 264.923 157.128 264.923 158.804ZM264.923 181.057C264.923 182.733 263.561 184.091 261.88 184.091C260.2 184.091 258.838 182.733 258.838 181.057C258.838 179.381 260.2 178.023 261.88 178.023C263.561 178.023 264.923 179.381 264.923 181.057ZM264.923 203.31C264.923 204.986 263.561 206.344 261.88 206.344C260.2 206.344 258.838 204.986 258.838 203.31C258.838 201.634 260.2 200.275 261.88 200.275C263.561 200.275 264.923 201.634 264.923 203.31ZM264.923 225.563C264.923 227.239 263.561 228.597 261.88 228.597C260.2 228.597 258.838 227.239 258.838 225.563C258.838 223.887 260.2 222.528 261.88 222.528C263.561 222.528 264.923 223.887 264.923 225.563ZM264.923 247.816C264.923 249.492 263.561 250.85 261.88 250.85C260.2 250.85 258.838 249.492 258.838 247.816C258.838 246.14 260.2 244.781 261.88 244.781C263.561 244.781 264.923 246.14 264.923 247.816ZM264.923 270.068C264.923 271.744 263.561 273.103 261.88 273.103C260.2 273.103 258.838 271.744 258.838 270.068C258.838 268.393 260.2 267.034 261.88 267.034C263.561 267.034 264.923 268.393 264.923 270.068ZM264.923 292.321C264.923 293.997 263.561 295.356 261.88 295.356C260.2 295.356 258.838 293.997 258.838 292.321C258.838 290.645 260.2 289.287 261.88 289.287C263.561 289.287 264.923 290.645 264.923 292.321Z" fill="#F6F6F6"/>
<path fill-rule="evenodd" clip-rule="evenodd" d="M314.429 81.5866C353.368 97.978 380.77 137.028 387.404 177.765C394.038 218.503 379.616 260.928 351.061 291.059C322.506 321.19 279.817 339.269 235.974 351.321C191.843 363.615 146.558 369.882 111.946 357.107C77.3331 344.331 53.3927 312.271 32.6252 279.73C11.8576 247.429 -5.73709 214.646 1.7623 186.684C9.55013 158.723 42.1437 135.823 75.0256 118.708C107.908 101.594 140.501 90.0233 182.325 81.1045C224.148 71.9446 275.202 65.4362 314.429 81.5866Z" fill="#F6F6F6"/>
<path fill-rule="evenodd" clip-rule="evenodd" d="M6.07982 344.374C7.56517 344.374 8.912 344.98 9.8876 345.957C10.8635 346.935 11.4682 348.284 11.4682 349.773C11.4682 351.261 10.8634 352.611 9.88738 353.589C8.9118 354.566 7.56507 355.172 6.07982 355.172C4.59456 355.172 3.24783 354.566 2.27225 353.589C1.29622 352.611 0.691406 351.261 0.691406 349.773C0.691406 348.284 1.29611 346.935 2.27203 345.957C3.24763 344.98 4.59446 344.374 6.07982 344.374ZM6.07982 344.825C4.71776 344.825 3.48212 345.38 2.58721 346.276C1.69292 347.172 1.13916 348.409 1.13916 349.773C1.13916 351.137 1.69292 352.374 2.58721 353.27C3.48212 354.166 4.71776 354.721 6.07982 354.721C7.44228 354.721 8.67778 354.166 9.57254 353.27C10.4668 352.374 11.0205 351.137 11.0205 349.773C11.0205 348.409 10.4668 347.172 9.57254 346.276C8.67778 345.38 7.44228 344.825 6.07982 344.825ZM321.037 273.339C321.143 273.339 321.249 273.38 321.33 273.462C321.412 273.544 321.453 273.65 321.453 273.757C321.453 273.864 321.412 273.972 321.33 274.053L316.652 278.738L321.33 283.424C321.412 283.506 321.453 283.613 321.453 283.72C321.453 283.827 321.412 283.934 321.33 284.015C321.249 284.097 321.143 284.138 321.037 284.138C320.93 284.138 320.824 284.097 320.743 284.015L316.064 279.327L311.385 284.015C311.304 284.097 311.198 284.138 311.092 284.138C310.986 284.138 310.879 284.097 310.798 284.015C310.717 283.934 310.676 283.827 310.676 283.72C310.676 283.613 310.717 283.506 310.798 283.424L315.475 278.738L310.799 274.053C310.717 273.972 310.676 273.864 310.676 273.757C310.676 273.65 310.717 273.544 310.799 273.461C310.88 273.38 310.986 273.339 311.092 273.339L316.064 278.147L320.743 273.462C320.824 273.38 320.931 273.339 321.037 273.339ZM77.9116 261.162C78.0179 261.162 78.1242 261.203 78.2054 261.284C78.2868 261.366 78.3272 261.473 78.3272 261.58C78.3272 261.687 78.2865 261.795 78.2055 261.876L73.5271 266.561L78.205 271.247C78.2866 271.328 78.3276 271.435 78.3276 271.542C78.3276 271.649 78.2866 271.756 78.205 271.838C78.124 271.919 78.0178 271.96 77.9115 271.96C77.8052 271.96 77.699 271.919 77.6181 271.838L72.9388 267.15L68.2603 271.838C68.1793 271.919 68.0732 271.96 67.9668 271.96C67.8605 271.96 67.7544 271.919 67.6734 271.838C67.5918 271.756 67.5508 271.649 67.5508 271.542C67.5508 271.435 67.5918 271.328 67.6734 271.246L72.3505 266.561L67.6736 261.877C67.5919 261.795 67.5512 261.687 67.5512 261.58C67.5512 261.473 67.5916 261.366 67.673 261.284C67.7542 261.203 67.8605 261.162 67.9668 261.162L72.9388 265.971L77.6192 261.284C77.6999 261.203 77.8057 261.162 77.9116 261.162ZM316.064 157.655C317.549 157.655 318.896 158.26 319.872 159.237C320.848 160.215 321.453 161.565 321.453 163.053C321.453 164.542 320.848 165.892 319.872 166.87C318.896 167.847 317.549 168.453 316.064 168.453C314.578 168.453 313.232 167.847 312.256 166.87C311.28 165.892 310.676 164.542 310.676 163.053C310.676 161.565 311.28 160.215 312.256 159.238C313.232 158.26 314.578 157.655 316.064 157.655ZM316.064 158.106C314.702 158.106 313.466 158.66 312.571 159.557C311.677 160.452 311.124 161.689 311.124 163.053C311.124 164.417 311.677 165.654 312.572 166.55C313.466 167.447 314.702 168.002 316.064 168.002C317.426 168.002 318.661 167.447 319.556 166.55C320.451 165.654 321.005 164.417 321.005 163.053C321.005 161.689 320.451 160.452 319.557 159.557C318.662 158.66 317.426 158.106 316.064 158.106ZM387.896 72.4133C388.002 72.4133 388.108 72.4538 388.189 72.5348C388.271 72.6167 388.312 72.7239 388.312 72.831C388.312 72.9377 388.271 73.0444 388.189 73.1264L383.512 77.8119L388.189 82.4977C388.271 82.5795 388.312 82.6865 388.312 82.7935C388.312 82.9006 388.271 83.0075 388.189 83.0893C388.108 83.1704 388.002 83.2114 387.896 83.2114C387.79 83.2114 387.684 83.1704 387.603 83.0893L382.923 78.4011L378.245 83.0893C378.164 83.1704 378.057 83.2114 377.951 83.2114C377.845 83.2114 377.739 83.1704 377.658 83.0893C377.576 83.0075 377.535 82.9006 377.535 82.7935C377.535 82.6865 377.576 82.5795 377.658 82.4977L382.335 77.8119L377.657 73.1258C377.576 73.0444 377.535 72.9377 377.535 72.831C377.535 72.7239 377.576 72.6167 377.658 72.5348C377.739 72.4538 377.845 72.4133 377.951 72.4133L382.923 77.2212L387.602 72.5354C387.683 72.4541 387.79 72.4133 387.896 72.4133ZM76.4978 73.754C77.6144 74.7369 78.2274 76.0835 78.3163 77.4636C78.4052 78.8437 77.9701 80.2577 76.9888 81.3759C76.043 82.4542 74.7362 83.1016 73.3068 83.1987C71.6417 83.2063 70.3821 82.747 69.3833 81.8666C68.3017 80.9153 67.6554 79.5987 67.5622 78.1584C67.4698 76.7193 67.9421 75.3296 68.8937 74.2457C69.8741 73.1276 71.2172 72.5137 72.5941 72.4246C73.971 72.3356 75.3818 72.7715 76.4978 73.754ZM72.9435 72.8643C71.5704 72.8643 70.204 73.4326 69.2282 74.5442C68.3573 75.5378 67.9243 76.8106 68.0103 78.1302C68.0952 79.4484 68.6877 80.6553 69.6781 81.5273C70.6707 82.4013 71.9452 82.8388 73.2607 82.7494C74.5763 82.6644 75.7817 82.0699 76.6525 81.0773C77.5515 80.0529 77.9511 78.7577 77.8698 77.493C77.7884 76.2284 77.2263 74.9948 76.2035 74.0936C75.2662 73.2696 74.1022 72.8643 72.9435 72.8643Z" stroke="#E5E5E5"/>
<path fill-rule="evenodd" clip-rule="evenodd" d="M274.973 161.132C273.599 161.132 272.48 160.014 272.48 158.639C272.48 157.265 273.599 156.146 274.973 156.146C276.348 156.146 277.466 157.265 277.466 158.639C277.466 160.014 276.348 161.132 274.973 161.132Z" fill="#CACAFB"/>
<path fill-rule="evenodd" clip-rule="evenodd" d="M110.454 161.132C109.079 161.132 107.961 160.014 107.961 158.639C107.961 157.265 109.079 156.146 110.454 156.146C111.828 156.146 112.946 157.265 112.946 158.639C112.946 160.014 111.828 161.132 110.454 161.132Z" fill="#CACAFB"/>
<path fill-rule="evenodd" clip-rule="evenodd" d="M120.426 285.776C119.052 285.776 117.934 284.658 117.934 283.284C117.934 281.909 119.052 280.791 120.426 280.791C121.801 280.791 122.919 281.909 122.919 283.284C122.919 284.658 121.801 285.776 120.426 285.776Z" fill="#CACAFB"/>
<path fill-rule="evenodd" clip-rule="evenodd" d="M140.368 131.217C138.993 131.217 137.875 130.099 137.875 128.725C137.875 127.35 138.993 126.232 140.368 126.232C141.742 126.232 142.86 127.35 142.86 128.725C142.86 130.099 141.742 131.217 140.368 131.217Z" fill="#CACAFB"/>
<path fill-rule="evenodd" clip-rule="evenodd" d="M230.106 310.705C228.732 310.705 227.613 309.587 227.613 308.212C227.613 306.838 228.732 305.719 230.106 305.719C231.481 305.719 232.599 306.838 232.599 308.212C232.599 309.587 231.481 310.705 230.106 310.705Z" fill="#CACAFB"/>
<path d="M227.702 217.8C228.072 216.473 229.446 215.698 230.772 216.067C236.604 217.691 241.075 222.265 242.259 227.937C242.54 229.285 241.675 230.605 240.328 230.887C238.98 231.168 237.66 230.303 237.378 228.956C236.584 225.15 233.51 222.005 229.435 220.87C228.109 220.501 227.333 219.126 227.702 217.8Z" fill="#E1000F"/>
<path fill-rule="evenodd" clip-rule="evenodd" d="M202.684 230.933C202.684 217.184 213.863 206.004 227.611 206.004C241.358 206.004 252.538 217.184 252.538 230.933C252.538 237.33 250.118 243.171 246.144 247.589L260.839 273.043C262.904 276.62 261.679 281.194 258.102 283.26C254.653 285.251 250.277 284.182 248.117 280.896L247.887 280.522L233.275 255.213C231.455 255.637 229.559 255.862 227.611 255.862C213.864 255.862 202.684 244.681 202.684 230.933ZM238.076 253.558L252.204 278.029C252.893 279.222 254.417 279.63 255.609 278.942C256.716 278.302 257.148 276.942 256.653 275.797L256.522 275.536L242.366 251.016C241.031 251.999 239.595 252.853 238.076 253.558ZM247.553 230.933C247.553 219.938 238.605 210.99 227.611 210.99C216.617 210.99 207.669 219.938 207.669 230.933C207.669 241.927 216.617 250.876 227.611 250.876C238.605 250.876 247.553 241.927 247.553 230.933Z" fill="#E1000F"/>
<path d="M264.986 160.841C264.842 159.602 263.789 158.639 262.51 158.639H127.903L127.612 158.656C126.372 158.8 125.41 159.854 125.41 161.132V275.805L125.427 276.096C125.571 277.335 126.625 278.298 127.903 278.298H232.598L232.888 278.281C234.128 278.137 235.09 277.083 235.09 275.805L235.074 275.514C234.93 274.274 233.876 273.312 232.598 273.312H130.396V183.568H222.627L222.917 183.551C224.157 183.407 225.119 182.354 225.119 181.075C225.119 179.698 224.003 178.582 222.627 178.582H130.396V163.625H260.018V178.582H237.583L237.292 178.599C236.053 178.743 235.09 179.797 235.09 181.075C235.09 182.452 236.206 183.568 237.583 183.568H260.018V255.862L260.034 256.152C260.178 257.392 261.232 258.355 262.51 258.355C263.887 258.355 265.003 257.238 265.003 255.862V161.132L264.986 160.841Z" fill="#000091"/>
<path d="M137.874 173.596C136.499 173.596 135.381 172.478 135.381 171.104C135.381 169.729 136.499 168.611 137.874 168.611C139.248 168.611 140.367 169.729 140.367 171.104C140.367 172.478 139.248 173.596 137.874 173.596Z" fill="#000091"/>
<path d="M145.352 171.104C145.352 172.478 146.47 173.596 147.845 173.596C149.219 173.596 150.337 172.478 150.337 171.104C150.337 169.729 149.219 168.611 147.845 168.611C146.47 168.611 145.352 169.729 145.352 171.104Z" fill="#000091"/>
<path d="M157.816 173.596C156.441 173.596 155.323 172.478 155.323 171.104C155.323 169.729 156.441 168.611 157.816 168.611C159.19 168.611 160.308 169.729 160.308 171.104C160.308 172.478 159.19 173.596 157.816 173.596Z" fill="#000091"/>
<path d="M252.539 168.611C253.916 168.611 255.032 169.727 255.032 171.104C255.032 172.382 254.07 173.436 252.83 173.58L252.539 173.596H177.757C176.381 173.596 175.265 172.48 175.265 171.104C175.265 169.825 176.227 168.771 177.467 168.627L177.757 168.611H252.539Z" fill="#000091"/>
<path d="M195.207 201.018C195.207 199.641 194.091 198.525 192.714 198.525H147.845L147.554 198.542C146.314 198.686 145.352 199.74 145.352 201.018C145.352 202.395 146.468 203.511 147.845 203.511H192.714L193.005 203.494C194.244 203.35 195.207 202.297 195.207 201.018Z" fill="#000091"/>
<path d="M182.743 213.483C184.12 213.483 185.236 214.599 185.236 215.976C185.236 217.254 184.273 218.308 183.034 218.452L182.743 218.468H147.845C146.468 218.468 145.352 217.352 145.352 215.976C145.352 214.697 146.314 213.643 147.554 213.499L147.845 213.483H182.743Z" fill="#000091"/>
<path d="M180.25 230.933C180.25 229.556 179.134 228.44 177.757 228.44H147.845L147.554 228.457C146.314 228.601 145.352 229.654 145.352 230.933C145.352 232.31 146.468 233.426 147.845 233.426H177.757L178.048 233.409C179.288 233.265 180.25 232.211 180.25 230.933Z" fill="#000091"/>
</g>
<defs>
<clipPath id="clip0_1601_146795">
<rect width="389" height="440" fill="white" transform="translate(0 -0.000488281)"/>
</clipPath>
</defs>
</svg>
