<svg width="16" height="16" viewBox="0 0 16 16" fill="none" xmlns="http://www.w3.org/2000/svg">
<path d="M11.3333 14H4.66667C2.45753 14 0.666667 12.2091 0.666667 10C0.666667 8.2564 1.78231 6.77333 3.33869 6.22571C3.33513 6.15093 3.33333 6.07567 3.33333 6C3.33333 3.42267 5.42267 1.33333 8 1.33333C10.5773 1.33333 12.6667 3.42267 12.6667 6C12.6667 6.07567 12.6649 6.15093 12.6613 6.22571C14.2177 6.77333 15.3333 8.2564 15.3333 10C15.3333 12.2091 13.5425 14 11.3333 14ZM4.66667 12.6667H11.3333C12.8061 12.6667 14 11.4727 14 10C14 8.52727 12.8061 7.33333 11.3333 7.33333C11.2374 7.33333 11.1427 7.3384 11.0494 7.34827C11.2319 6.93607 11.3333 6.47986 11.3333 6C11.3333 4.15905 9.84093 2.66667 8 2.66667C6.15905 2.66667 4.66667 4.15905 4.66667 6C4.66667 6.47986 4.76806 6.93607 4.9506 7.34827C4.85731 7.3384 4.76258 7.33333 4.66667 7.33333C3.19391 7.33333 2 8.52727 2 10C2 11.4727 3.19391 12.6667 4.66667 12.6667Z" fill="#000091"/>
<path d="M5.35938 8.57214L8.18804 11.4008L12.902 6.68681L11.9587 5.74414L8.18804 9.51547L6.30204 7.62947L5.35938 8.57214Z" fill="#000091"/>
</svg>
