<svg width="56" height="57" viewBox="0 0 56 57" fill="none" xmlns="http://www.w3.org/2000/svg">
<path fill-rule="evenodd" clip-rule="evenodd" d="M52.4969 43.9859C52.1109 43.9859 51.7969 43.6719 51.7969 43.2859C51.7969 42.8999 52.1109 42.5859 52.4969 42.5859C52.8829 42.5859 53.1969 42.8999 53.1969 43.2859C53.1969 43.6719 52.8829 43.9859 52.4969 43.9859Z" fill="#ECECFE"/>
<path fill-rule="evenodd" clip-rule="evenodd" d="M38.4969 3.38633C38.1109 3.38633 37.7969 3.07231 37.7969 2.68633C37.7969 2.30032 38.1109 1.98633 38.4969 1.98633C38.8829 1.98633 39.1969 2.30032 39.1969 2.68633C39.1969 3.07231 38.8829 3.38633 38.4969 3.38633Z" fill="#ECECFE"/>
<path fill-rule="evenodd" clip-rule="evenodd" d="M2.09844 38.3863C1.71246 38.3863 1.39844 38.0723 1.39844 37.6863C1.39844 37.3003 1.71246 36.9863 2.09844 36.9863C2.48442 36.9863 2.79844 37.3003 2.79844 37.6863C2.79844 38.0723 2.48442 38.3863 2.09844 38.3863Z" fill="#ECECFE"/>
<path d="M28.6969 13.1855C29.0835 13.1855 29.3969 13.4989 29.3969 13.8855C29.3969 14.2445 29.1266 14.5404 28.7785 14.5808L28.6969 14.5855H17.4969C17.1103 14.5855 16.7969 14.2721 16.7969 13.8855C16.7969 13.5266 17.0671 13.2307 17.4152 13.1903L17.4969 13.1855H28.6969Z" fill="#E1000F"/>
<path d="M35.6969 17.3855C36.0835 17.3855 36.3969 17.6989 36.3969 18.0855C36.3969 18.4445 36.1266 18.7404 35.7785 18.7808L35.6969 18.7855H17.4969C17.1103 18.7855 16.7969 18.4721 16.7969 18.0855C16.7969 17.7266 17.0671 17.4307 17.4152 17.3903L17.4969 17.3855H35.6969Z" fill="#E1000F"/>
<path d="M32.1969 22.2855C32.1969 21.8989 31.8835 21.5855 31.4969 21.5855H17.4969L17.4152 21.5903C17.0671 21.6307 16.7969 21.9266 16.7969 22.2855C16.7969 22.6721 17.1103 22.9855 17.4969 22.9855H31.4969L31.5785 22.9808C31.9266 22.9404 32.1969 22.6445 32.1969 22.2855Z" fill="#E1000F"/>
<path d="M35.7016 25.7863C36.0882 25.7863 36.4016 26.0997 36.4016 26.4863C36.4016 26.8453 36.1313 27.1412 35.7832 27.1816L35.7016 27.1863H17.5016C17.115 27.1863 16.8016 26.8729 16.8016 26.4863C16.8016 26.1273 17.0718 25.8315 17.4199 25.791L17.5016 25.7863H35.7016Z" fill="#000091"/>
<path d="M36.4016 34.8863C36.4016 34.4997 36.0882 34.1863 35.7016 34.1863H17.5016L17.4199 34.191C17.0718 34.2315 16.8016 34.5273 16.8016 34.8863C16.8016 35.2729 17.115 35.5863 17.5016 35.5863H35.7016L35.7832 35.5816C36.1313 35.5412 36.4016 35.2453 36.4016 34.8863Z" fill="#000091"/>
<path d="M32.2016 30.6863C32.2016 30.2997 31.8882 29.9863 31.5016 29.9863H17.5016L17.4199 29.991C17.0718 30.0315 16.8016 30.3273 16.8016 30.6863C16.8016 31.0729 17.115 31.3863 17.5016 31.3863H31.5016L31.5832 31.3816C31.9313 31.3412 32.2016 31.0453 32.2016 30.6863Z" fill="#000091"/>
<path d="M31.5016 42.5863C31.8882 42.5863 32.2016 42.8997 32.2016 43.2863C32.2016 43.6453 31.9313 43.9412 31.5832 43.9816L31.5016 43.9863H17.5016C17.115 43.9863 16.8016 43.6729 16.8016 43.2863C16.8016 42.9273 17.0718 42.6315 17.4199 42.591L17.5016 42.5863H31.5016Z" fill="#000091"/>
<path d="M28.0016 39.0863C28.0016 38.6997 27.6882 38.3863 27.3016 38.3863H17.5016L17.4199 38.391C17.0718 38.4315 16.8016 38.7273 16.8016 39.0863C16.8016 39.4729 17.115 39.7863 17.5016 39.7863H27.3016L27.3832 39.7816C27.7313 39.7412 28.0016 39.4453 28.0016 39.0863Z" fill="#000091"/>
<path fill-rule="evenodd" clip-rule="evenodd" d="M13.3016 8.98633H39.9016C40.2882 8.98633 40.6016 9.29973 40.6016 9.68633V47.4863C40.6016 47.8729 40.2882 48.1863 39.9016 48.1863H13.3016C12.915 48.1863 12.6016 47.8729 12.6016 47.4863V9.68633C12.6016 9.29973 12.915 8.98633 13.3016 8.98633ZM39.2016 46.7863V10.3863H14.0016V46.7863H39.2016Z" fill="#000091"/>
<path d="M42.7016 14.5863C43.0606 14.5863 43.3564 14.8566 43.3969 15.2047L43.4016 15.2863V50.2863C43.4016 50.6453 43.1313 50.9412 42.7832 50.9816L42.7016 50.9863H18.9016C18.515 50.9863 18.2016 50.6729 18.2016 50.2863C18.2016 49.9273 18.4718 49.6315 18.8199 49.591L18.9016 49.5863H42.0016V15.2863C42.0016 14.9273 42.2718 14.6315 42.6199 14.591L42.7016 14.5863Z" fill="#000091"/>
</svg>
