<svg width="80" height="80" viewBox="0 0 80 80" fill="none" xmlns="http://www.w3.org/2000/svg">
  <style>
    .fr-artwork-decorative {
      fill: #ECECFF;
    }
    .fr-artwork-minor {
      fill: #E1000F;
    }
    .fr-artwork-major {
      fill: #000091;
    }
  </style>

  <symbol id="artwork-decorative">
    <path d="M59.5854 76.0009C59.0085 76.0009 58.5391 75.5315 58.5391 74.9546C58.5391 74.3776 59.0085 73.9082 59.5854 73.9082C60.1624 73.9082 60.6318 74.3776 60.6318 74.9546C60.6318 75.5315 60.1624 76.0009 59.5854 76.0009Z M67.9526 9.0322C67.3757 9.0322 66.9062 8.56279 66.9062 7.98583C66.9062 7.40881 67.3757 6.93945 67.9526 6.93945C68.5296 6.93945 68.999 7.40881 68.999 7.98583C68.999 8.56279 68.5296 9.0322 67.9526 9.0322Z M7.26512 13.2177C6.68815 13.2177 6.21875 12.7483 6.21875 12.1714C6.21875 11.5944 6.68815 11.125 7.26512 11.125C7.84209 11.125 8.31149 11.5944 8.31149 12.1714C8.31149 12.7483 7.84209 13.2177 7.26512 13.2177Z" />
  </symbol>
  
  <symbol id="artwork-minor">
    <path d="M26.8516 27.002H38.9922V17.0098H40.9922V27.002H52.9531V17.0098H54.9531V27.002H67V29.002H26.8516V62.9961H24.8516V53.001L13 53.002V51.002L24.8516 51.001V41.0029L13 41.0039V39.0039L24.8516 39.0029V29.002H13V27.002H24.8516V17.0098H26.8516V27.002Z" />
  </symbol>

  <symbol id="artwork-major">
    <path d="M68.1025 15.0068C68.6067 15.0582 69 15.4843 69 16.002V64.002C69 64.5542 68.5523 65.002 68 65.002H12C11.4477 65.002 11 64.5542 11 64.002V16.002L11.0049 15.8994C11.0562 15.3953 11.4823 15.002 12 15.002H68L68.1025 15.0068ZM13 63.002H67V53.0098H54.9531V62.9961H52.9531V53.0098H41V62.9961H39V53.0098H26.8516V51.0098H39V41.0098H26.8516V39.0098H39V29.0059H41V39.0098H52.9531V29.0059H54.9531V39.0098H67V17.002H13V63.002ZM54.9531 51.0098H67V41.0098H54.9531V51.0098ZM41 51.0098H52.9531V41.0098H41V51.0098Z" />
  </symbol>

  <use class="fr-artwork-decorative" href="#artwork-decorative"/>
  <use class="fr-artwork-minor" href="#artwork-minor"/>
  <use class="fr-artwork-major" href="#artwork-major"/>
</svg>
