<svg width="80" height="80" viewBox="0 0 80 80" fill="none" xmlns="http://www.w3.org/2000/svg">
  <style>
    .fr-artwork-decorative {
      fill: #ECECFF;
    }
    .fr-artwork-minor {
      fill: #E1000F;
    }
    .fr-artwork-major {
      fill: #000091;
    }
  </style>

  <symbol id="artwork-decorative">
    <path d="M59.8527 76.0002C59.292 76.0002 58.8359 75.5441 58.8359 74.9835C58.8359 74.4228 59.292 73.9668 59.8527 73.9668C60.4133 73.9668 60.8694 74.4228 60.8694 74.9835C60.8694 75.5441 60.4133 76.0002 59.8527 76.0002Z M67.9855 10.9299C67.4249 10.9299 66.9688 10.4738 66.9688 9.9132C66.9688 9.35254 67.4249 8.89648 67.9855 8.89648C68.5461 8.89648 69.0022 9.35254 69.0022 9.9132C69.0022 10.4738 68.5461 10.9299 67.9855 10.9299Z M9.01672 14.9963C8.4561 14.9963 8 14.5402 8 13.9796C8 13.4189 8.4561 12.9629 9.01672 12.9629C9.57734 12.9629 10.0334 13.4189 10.0334 13.9796C10.0334 14.5402 9.57734 14.9963 9.01672 14.9963Z" />
  </symbol>
  
  <symbol id="artwork-minor">
    <path d="M40.4229 53.8861C40.927 53.9374 41.3203 54.3635 41.3203 54.8812C41.3203 55.3989 40.927 55.825 40.4229 55.8763L40.3203 55.8812H20.9898C20.4375 55.8812 19.9898 55.4335 19.9898 54.8812C19.9898 54.3289 20.4375 53.8812 20.9898 53.8812H40.3203L40.4229 53.8861Z M59.1107 47.8411C59.6149 47.8925 60.0082 48.3186 60.0082 48.8363C60.0082 49.3539 59.6149 49.78 59.1107 49.8314L59.0082 49.8363H20.9898C20.4375 49.8363 19.9898 49.3885 19.9898 48.8363C19.9898 48.284 20.4375 47.8363 20.9898 47.8363H59.0082L59.1107 47.8411Z M51.4385 24.0184C51.9426 24.0697 52.3359 24.4959 52.3359 25.0135V42.8319C52.3359 43.3841 51.8882 43.8319 51.3359 43.8319H20.9898C20.4375 43.8319 19.9898 43.3841 19.9898 42.8319L19.9947 26.0135V24.911C20.046 24.4069 20.4722 24.0135 20.9898 24.0135H51.3359L51.4385 24.0184ZM21.9898 41.8319H50.3359V26.0135H21.9898V41.8319Z" />
  </symbol>

  <symbol id="artwork-major">
    <path d="M64.0137 19.007C64.5179 19.0583 65.0039 19.4842 65.0039 20.0019V59.9961C65.0039 60.5484 64.5723 60.998 64.02 60.998H15.9847C15.4324 60.998 14.9921 60.5664 14.9921 60.0141V21.0053V20.0032C15.0434 19.4991 15.4729 19.0098 15.9906 19.0098L63.3307 19.007H64.0137ZM16.9892 59.0018H63.0072V21.0053H16.9892V59.0018Z M68.1025 15.0049C68.6067 15.0562 69 15.4823 69 16V64C69 64.5523 68.5523 65 68 65H12C11.4477 65 11 64.5523 11 64V16L11.0049 15.8975C11.0562 15.3933 11.4823 15 12 15H68L68.1025 15.0049ZM13 63H67V17H13V63Z" />
  </symbol>

  <use class="fr-artwork-decorative" href="#artwork-decorative"/>
  <use class="fr-artwork-minor" href="#artwork-minor"/>
  <use class="fr-artwork-major" href="#artwork-major"/>
</svg>
