<svg width="56" height="57" viewBox="0 0 56 57" fill="none" xmlns="http://www.w3.org/2000/svg">
<path fill-rule="evenodd" clip-rule="evenodd" d="M44.8127 13.8908C45.1656 13.9267 45.5059 14.2249 45.5059 14.5873V42.5832C45.5059 42.9698 45.2037 43.2846 44.8171 43.2846H11.1924C10.8058 43.2846 10.4976 42.9824 10.4976 42.5958V15.2896V14.5882C10.5335 14.2353 10.8342 13.8928 11.1966 13.8928L44.3346 13.8908H44.8127ZM11.8955 41.8872H44.1082V15.2896H11.8955V41.8872Z" fill="#000091"/>
<path fill-rule="evenodd" clip-rule="evenodd" d="M47.6749 11.0894C48.0278 11.1253 48.3031 11.4236 48.3031 11.7859V45.3859C48.3031 45.7725 47.9897 46.0859 47.6031 46.0859H8.40312C8.01653 46.0859 7.70312 45.7725 7.70312 45.3859V11.7859L7.70654 11.7142C7.74248 11.3613 8.04075 11.0859 8.40312 11.0859H47.6031L47.6749 11.0894ZM9.10312 44.6859H46.9031V12.4859H9.10312V44.6859Z" fill="#000091"/>
<path d="M28.2991 38.3062C28.652 38.3421 28.9273 38.6404 28.9273 39.0028C28.9273 39.3651 28.652 39.6634 28.2991 39.6993L28.2273 39.7028H14.696C14.3094 39.7028 13.996 39.3894 13.996 39.0028C13.996 38.6162 14.3094 38.3028 14.696 38.3028H28.2273L28.2991 38.3062Z" fill="#E1000F"/>
<path d="M41.3806 34.0747C41.7335 34.1107 42.0089 34.4089 42.0089 34.7713C42.0089 35.1337 41.7335 35.432 41.3806 35.4679L41.3089 35.4713H14.696C14.3094 35.4713 13.996 35.1579 13.996 34.7713C13.996 34.3847 14.3094 34.0713 14.696 34.0713H41.3089L41.3806 34.0747Z" fill="#E1000F"/>
<path fill-rule="evenodd" clip-rule="evenodd" d="M36.0101 17.3988C36.3629 17.4348 36.6383 17.733 36.6383 18.0954V30.5682C36.6383 30.9548 36.3249 31.2682 35.9383 31.2682H14.696C14.3094 31.2682 13.996 30.9548 13.996 30.5682L13.9994 18.7954V18.0236C14.0354 17.6707 14.3336 17.3954 14.696 17.3954H35.9383L36.0101 17.3988ZM15.396 29.8682H35.2383V18.7954H15.396V29.8682Z" fill="#E1000F"/>
<path fill-rule="evenodd" clip-rule="evenodd" d="M41.8992 53.7867C41.5068 53.7867 41.1875 53.4674 41.1875 53.075C41.1875 52.6825 41.5068 52.3633 41.8992 52.3633C42.2916 52.3633 42.6109 52.6825 42.6109 53.075C42.6109 53.4674 42.2916 53.7867 41.8992 53.7867Z" fill="#ECECFE"/>
<path fill-rule="evenodd" clip-rule="evenodd" d="M47.5867 8.23591C47.1943 8.23591 46.875 7.91664 46.875 7.5242C46.875 7.13174 47.1943 6.8125 47.5867 6.8125C47.9791 6.8125 48.2984 7.13174 48.2984 7.5242C48.2984 7.91664 47.9791 8.23591 47.5867 8.23591Z" fill="#ECECFE"/>
<path fill-rule="evenodd" clip-rule="evenodd" d="M6.31327 11.0836C5.92083 11.0836 5.60156 10.7643 5.60156 10.3719C5.60156 9.97939 5.92083 9.66016 6.31327 9.66016C6.7057 9.66016 7.02497 9.97939 7.02497 10.3719C7.02497 10.7643 6.7057 11.0836 6.31327 11.0836Z" fill="#ECECFE"/>
</svg>
