<svg width="56" height="57" viewBox="0 0 56 57" fill="none" xmlns="http://www.w3.org/2000/svg">
<path d="M6.09062 8.35625C6.09062 8.77625 5.81062 9.05625 5.39062 9.05625C4.97062 9.05625 4.69062 8.77625 4.69062 8.35625C4.69062 7.93625 4.97062 7.65625 5.39062 7.65625C5.81062 7.65625 6.09062 7.93625 6.09062 8.35625Z" fill="#ECECFE"/>
<path d="M34.7906 4.85625C34.7906 5.27625 34.5106 5.55625 34.0906 5.55625C33.6706 5.55625 33.3906 5.27625 33.3906 4.85625C33.3906 4.43625 33.6706 4.15625 34.0906 4.15625C34.5106 4.15625 34.7906 4.43625 34.7906 4.85625Z" fill="#ECECFE"/>
<path d="M53.6906 22.3562C53.6906 22.7762 53.4106 23.0562 52.9906 23.0562C52.5706 23.0562 52.2906 22.7762 52.2906 22.3562C52.2906 21.9362 52.5706 21.6562 52.9906 21.6562C53.4106 21.6562 53.6906 21.9362 53.6906 22.3562Z" fill="#ECECFE"/>
<path d="M41.7906 52.4562C41.7906 52.8762 41.5106 53.1562 41.0906 53.1562C40.6706 53.1562 40.3906 52.8762 40.3906 52.4562C40.3906 52.0363 40.6706 51.7562 41.0906 51.7562C41.5106 51.7562 41.7906 52.0363 41.7906 52.4562Z" fill="#ECECFE"/>
<path d="M3.29062 43.3563C3.29062 43.7762 3.01063 44.0562 2.59062 44.0562C2.17062 44.0562 1.89062 43.7762 1.89062 43.3563C1.89062 42.9362 2.17062 42.6562 2.59062 42.6562C3.01063 42.6562 3.29062 42.9362 3.29062 43.3563Z" fill="#ECECFE"/>
<path d="M26.0431 32.9259C25.8331 32.9259 25.5531 32.8559 25.3431 32.7859C24.8531 32.5059 24.5731 32.0159 24.5731 31.3859V25.0859C24.5731 24.4559 24.9231 23.8959 25.3431 23.6859C25.8331 23.4059 26.3931 23.4759 26.9531 23.8259C27.4431 24.1059 29.0531 25.0859 30.4531 25.9259C31.1531 26.3459 31.7831 26.7659 32.1331 26.9059C32.6931 27.2559 32.9731 27.7459 32.9731 28.2359C32.9731 28.7959 32.6931 29.2859 32.1331 29.6359L31.8531 29.8459C30.6631 30.6159 27.7931 32.3659 27.0231 32.7859C26.6731 32.8559 26.3231 32.9259 26.0431 32.9259ZM26.0431 24.8759C26.0431 24.8759 25.9731 24.9459 25.9731 25.0859V31.3159C25.9731 31.4559 26.0431 31.5259 26.0431 31.5259C26.0431 31.5259 26.1131 31.5259 26.2531 31.4559C26.9531 31.1059 29.8931 29.2859 31.0131 28.5859L31.2931 28.3759C31.4331 28.3059 31.5031 28.2359 31.5031 28.2359C31.5031 28.2359 31.4331 28.1659 31.3631 28.0959C31.0131 27.8859 30.3831 27.5359 29.6831 27.0459C28.3531 26.2759 26.7431 25.2259 26.2531 25.0159C26.1131 24.8759 26.0431 24.8759 26.0431 24.8759Z" fill="#E1000F"/>
<path d="M12.6031 15.2859C12.6031 15.7059 12.3231 15.9859 11.9031 15.9859C11.4831 15.9859 11.2031 15.7059 11.2031 15.2859C11.2031 14.8659 11.4831 14.5859 11.9031 14.5859C12.3231 14.5859 12.6031 14.8659 12.6031 15.2859Z" fill="#E1000F"/>
<path d="M15.4031 15.2859C15.4031 15.7059 15.1231 15.9859 14.7031 15.9859C14.2831 15.9859 14.0031 15.7059 14.0031 15.2859C14.0031 14.8659 14.2831 14.5859 14.7031 14.5859C15.1231 14.5859 15.4031 14.8659 15.4031 15.2859Z" fill="#E1000F"/>
<path d="M16.4531 40.4859C15.4731 40.4859 14.7031 39.7159 14.7031 38.7359C14.7031 37.7559 15.4731 36.9859 16.4531 36.9859C17.4331 36.9859 18.2031 37.7559 18.2031 38.7359C18.2031 39.7159 17.4331 40.4859 16.4531 40.4859ZM16.4531 38.3859C16.2431 38.3859 16.1031 38.5259 16.1031 38.7359C16.1031 38.9459 16.2431 39.0859 16.4531 39.0859C16.6631 39.0859 16.8031 38.9459 16.8031 38.7359C16.8031 38.5259 16.6631 38.3859 16.4531 38.3859Z" fill="#E1000F"/>
<path d="M14.7031 39.4359H11.9031C11.4831 39.4359 11.2031 39.1559 11.2031 38.7359C11.2031 38.3159 11.4831 38.0359 11.9031 38.0359H14.7031C15.1231 38.0359 15.4031 38.3159 15.4031 38.7359C15.4031 39.0859 15.1231 39.4359 14.7031 39.4359Z" fill="#E1000F"/>
<path d="M35.7031 15.9859H20.3031C19.8831 15.9859 19.6031 15.7059 19.6031 15.2859C19.6031 14.8659 19.8831 14.5859 20.3031 14.5859H35.7031C36.1231 14.5859 36.4031 14.8659 36.4031 15.2859C36.4031 15.6359 36.1231 15.9859 35.7031 15.9859Z" fill="#E1000F"/>
<path d="M44.1031 15.9859H38.5031C38.0831 15.9859 37.8031 15.7059 37.8031 15.2859C37.8031 14.8659 38.0831 14.5859 38.5031 14.5859H44.1031C44.5231 14.5859 44.8031 14.8659 44.8031 15.2859C44.8031 15.6359 44.5231 15.9859 44.1031 15.9859Z" fill="#E1000F"/>
<path d="M18.2031 15.2859C18.2031 15.7059 17.9231 15.9859 17.5031 15.9859C17.0831 15.9859 16.8031 15.7059 16.8031 15.2859C16.8031 14.8659 17.0831 14.5859 17.5031 14.5859C17.9231 14.5859 18.2031 14.8659 18.2031 15.2859Z" fill="#E1000F"/>
<path d="M37.7984 42.5852H9.09844C8.67844 42.5852 8.39844 42.3052 8.39844 41.8852C8.39844 41.4652 8.67844 41.1852 9.09844 41.1852H37.7984C38.2184 41.1852 38.4984 41.4652 38.4984 41.8852C38.4984 42.2352 38.2184 42.5852 37.7984 42.5852Z" fill="#000091"/>
<path d="M46.8984 42.5852H42.6984C42.2784 42.5852 41.9984 42.3052 41.9984 41.8852C41.9984 41.4652 42.2784 41.1852 42.6984 41.1852H46.8984C47.3184 41.1852 47.5984 41.4652 47.5984 41.8852C47.5984 42.2352 47.3184 42.5852 46.8984 42.5852Z" fill="#000091"/>
<path d="M9.09844 45.3852C8.67844 45.3852 8.39844 45.1052 8.39844 44.6852V12.4852C8.39844 12.0652 8.67844 11.7852 9.09844 11.7852H46.8984C47.3184 11.7852 47.5984 12.0652 47.5984 12.4852V44.6852C47.5984 45.1052 47.3184 45.3852 46.8984 45.3852H9.09844ZM9.79844 43.9852H46.1984V13.1852H9.79844V43.9852Z" fill="#000091"/>
<path d="M46.8984 18.7852H9.09844C8.67844 18.7852 8.39844 18.5052 8.39844 18.0852C8.39844 17.6652 8.67844 17.3852 9.09844 17.3852H46.8984C47.3184 17.3852 47.5984 17.6652 47.5984 18.0852C47.5984 18.4352 47.3184 18.7852 46.8984 18.7852Z" fill="#000091"/>
<path d="M20.2984 38.3852H44.0984C44.5184 38.3852 44.7984 38.6652 44.7984 39.0852C44.7984 39.5052 44.5184 39.7852 44.0984 39.7852H20.2984C19.8784 39.7852 19.5984 39.5052 19.5984 39.0852C19.5984 38.6652 19.9484 38.3852 20.2984 38.3852Z" fill="#000091"/>
<path d="M44.0984 36.2852H11.8984C11.4784 36.2852 11.1984 36.0052 11.1984 35.5852V20.8852C11.1984 20.4652 11.4784 20.1852 11.8984 20.1852H44.0984C44.5184 20.1852 44.7984 20.4652 44.7984 20.8852V35.5852C44.7984 35.9352 44.5184 36.2852 44.0984 36.2852ZM12.5984 34.8852H43.3984V21.5852H12.5984V34.8852Z" fill="#000091"/>
</svg>
