<svg width="56" height="57" viewBox="0 0 56 57" fill="none" xmlns="http://www.w3.org/2000/svg">
<path fill-rule="evenodd" clip-rule="evenodd" d="M47.6749 11.0913C48.0278 11.1272 48.3031 11.4255 48.3031 11.7879V45.3879C48.3031 45.7745 47.9897 46.0879 47.6031 46.0879H8.40312C8.01653 46.0879 7.70312 45.7745 7.70312 45.3879V11.7879L7.70654 11.7161C7.74248 11.3632 8.04075 11.0879 8.40312 11.0879H47.6031L47.6749 11.0913ZM9.10312 44.6879H46.9031V37.6934H38.4703V44.6838H37.0703V37.6934H28.7031V44.6838H27.3031V37.6934H18.7992V36.2934H27.3031V29.2934H18.7992V27.8934H27.3031V20.8906H28.7031V27.8934H37.0703V20.8906H38.4703V27.8934H46.9031V12.4879H9.10312V44.6879ZM38.4703 36.2934H46.9031V29.2934H38.4703V36.2934ZM28.7031 36.2934H37.0703V29.2934H28.7031V36.2934Z" fill="#000091"/>
<path d="M18.7992 19.4879H27.2977V12.4934H28.6977V19.4879H37.0703V12.4934H38.4703V19.4879H46.9031V20.8879H18.7992V44.6838H17.3992V37.6872L9.10312 37.6879V36.2879L17.3992 36.2872V29.2886L9.10312 29.2893V27.8893L17.3992 27.8886V20.8879H9.10312V19.4879H17.3992V12.4934H18.7992V19.4879Z" fill="#E1000F"/>
<path fill-rule="evenodd" clip-rule="evenodd" d="M41.709 53.7872C41.3051 53.7872 40.9766 53.4586 40.9766 53.0547C40.9766 52.6508 41.3051 52.3223 41.709 52.3223C42.1129 52.3223 42.4415 52.6508 42.4415 53.0547C42.4415 53.4586 42.1129 53.7872 41.709 53.7872Z" fill="#ECECFE"/>
<path fill-rule="evenodd" clip-rule="evenodd" d="M47.5684 6.90828C47.1645 6.90828 46.8359 6.5797 46.8359 6.17582C46.8359 5.77191 47.1645 5.44336 47.5684 5.44336C47.9723 5.44336 48.3009 5.77191 48.3009 6.17582C48.3009 6.5797 47.9723 6.90828 47.5684 6.90828Z" fill="#ECECFE"/>
<path fill-rule="evenodd" clip-rule="evenodd" d="M5.08402 9.83797C4.68014 9.83797 4.35156 9.50939 4.35156 9.10551C4.35156 8.70159 4.68014 8.37305 5.08402 8.37305C5.4879 8.37305 5.81648 8.70159 5.81648 9.10551C5.81648 9.50939 5.4879 9.83797 5.08402 9.83797Z" fill="#ECECFE"/>
</svg>
