<svg width="48" height="48" viewBox="0 0 48 48" fill="none" xmlns="http://www.w3.org/2000/svg">
<path d="M23.8 46.6C36.3921 46.6 46.6 36.3921 46.6 23.8C46.6 11.2079 36.3921 1 23.8 1C11.2079 1 1 11.2079 1 23.8C1 36.3921 11.2079 46.6 23.8 46.6Z" fill="#E5F3EC" stroke="#008941" stroke-width="2"/>
<path d="M16.6 21.6404C18.5882 21.6404 20.2 20.0287 20.2 18.0404C20.2 16.0522 18.5882 14.4404 16.6 14.4404C14.6118 14.4404 13 16.0522 13 18.0404C13 20.0287 14.6118 21.6404 16.6 21.6404Z" fill="#008941"/>
<path d="M30.9984 21.6404C32.9867 21.6404 34.5984 20.0287 34.5984 18.0404C34.5984 16.0522 32.9867 14.4404 30.9984 14.4404C29.0102 14.4404 27.3984 16.0522 27.3984 18.0404C27.3984 20.0287 29.0102 21.6404 30.9984 21.6404Z" fill="#008941"/>
<path d="M16 29.8002C16.6 32.1819 19.0018 35.2002 23.8 35.2002C28.5982 35.2002 31 32.1819 31.6 29.8002" stroke="#008941" stroke-width="2.3" stroke-linecap="round"/>
</svg>
