<svg width="442" height="364" viewBox="0 0 442 364" fill="none" xmlns="http://www.w3.org/2000/svg">
<path d="M388.902 139.926C388.307 186.795 350.084 224.607 303.018 224.609L303.018 138.817L388.909 138.817L388.902 139.926Z" fill="#CE614A"/>
<path d="M204.595 0.0488726L302.825 0.00698179C302.889 0.00689411 302.954 0.00581816 303.018 0.00581816C379.774 0.00587221 441.997 62.1532 442 138.817H303.018V224.609H303.016C303.014 301.273 240.79 363.422 164.034 363.422C132.626 363.422 103.652 353.014 80.3779 335.465C126.913 315.427 160.302 270.724 164.037 217.844V137.961H164.042C164.166 117.688 168.638 98.4467 176.578 81.1191C142.898 69.5167 118.703 37.5812 118.701 0H204.595V0.0488726Z" fill="#8BA7F8"/>
<path d="M277.963 69.4112C277.963 87.5084 263.275 102.179 245.156 102.179C227.038 102.179 212.35 87.5084 212.35 69.4112C212.35 51.314 227.038 36.6433 245.156 36.6433C263.275 36.6433 277.963 51.314 277.963 69.4112Z" fill="white"/>
<path d="M257.421 39.0112C269.464 43.8628 277.964 55.6449 277.964 69.4111C277.964 83.1772 269.464 94.9582 257.421 99.8099C245.379 94.9579 236.879 83.1768 236.879 69.4111C236.879 55.6453 245.378 43.8631 257.421 39.0112Z" fill="#343434"/>
<path d="M304.815 0.0172516C380.742 0.977985 441.996 62.7521 442 138.816H303.018V0.00561523L304.815 0.0172516Z" fill="#F6C43C"/>
<path d="M138.982 277.627C62.2264 277.627 0.00337202 215.48 0 138.816L277.963 138.816C277.96 215.48 215.737 277.627 138.982 277.627Z" fill="#2F4077"/>
</svg>
