<svg width="75" height="28" viewBox="0 0 75 28" fill="none" xmlns="http://www.w3.org/2000/svg">
<path d="M29.9607 10.7808C29.9149 14.3918 26.9699 17.3051 23.3438 17.3052L23.3438 10.6953L29.9612 10.6953L29.9607 10.7808Z" fill="#CE614A"/>
<path d="M15.7657 0.00376541L23.3338 0.000537915C23.3388 0.00053116 23.3438 0.000448263 23.3487 0.000448263C29.2624 0.000452426 34.0564 4.78862 34.0566 10.6952H23.3487V17.3051H23.3485C23.3484 23.2117 18.5543 28 12.6406 28C10.2208 28 7.98848 27.1981 6.19531 25.846C9.78065 24.3022 12.3531 20.8581 12.6408 16.7838V10.6293H12.6413C12.6508 9.06735 12.9954 7.58487 13.6071 6.24986C11.0122 5.35594 9.14808 2.89546 9.14794 0H15.7657V0.00376541Z" fill="#8BA7F8"/>
<path d="M21.4146 5.34688C21.4146 6.74119 20.283 7.87149 18.887 7.87149C17.491 7.87149 16.3594 6.74119 16.3594 5.34688C16.3594 3.95257 17.491 2.82227 18.887 2.82227C20.283 2.82227 21.4146 3.95257 21.4146 5.34688Z" fill="white"/>
<path d="M19.8326 3.00586C20.7605 3.37965 21.4154 4.28741 21.4154 5.34803C21.4154 6.40864 20.7605 7.31631 19.8326 7.69011C18.9048 7.31629 18.25 6.40861 18.25 5.34803C18.25 4.28744 18.9048 3.37967 19.8326 3.00586Z" fill="#343434"/>
<path d="M23.4822 0.000896525C29.332 0.0749166 34.0514 4.83432 34.0516 10.6947H23.3438V0L23.4822 0.000896525Z" fill="#F6C43C"/>
<path d="M10.7079 21.39C4.79425 21.39 0.000259798 16.6019 0 10.6953L21.4158 10.6953C21.4155 16.6019 16.6215 21.39 10.7079 21.39Z" fill="#2F4077"/>
<path d="M42.0547 20.8496L47.3547 6.84961H51.0747L56.3747 20.8496H53.3547L52.0147 17.2096H46.4147L45.0747 20.8496H42.0547ZM47.2947 14.7896H51.1347L49.2147 9.52961L47.2947 14.7896Z" fill="white"/>
<path d="M58.802 20.8496V10.7696H61.342V11.7696C62.002 11.0896 62.862 10.5696 64.002 10.5696C64.342 10.5696 64.642 10.6296 64.882 10.7096V13.2096C64.562 13.1296 64.222 13.0696 63.762 13.0696C62.522 13.0696 61.722 13.7496 61.342 14.3896V20.8496H58.802Z" fill="white"/>
<path d="M69.2787 21.1496C67.2587 21.1496 65.8787 19.9896 65.8787 18.1296C65.8787 16.6096 67.0588 15.4696 69.2188 15.1096L72.2987 14.5896V14.3296C72.2987 13.2696 71.4988 12.5896 70.3388 12.5896C69.3588 12.5896 68.5988 13.0496 68.0588 13.7896L66.1987 12.3696C67.0987 11.1296 68.5788 10.3696 70.4188 10.3696C73.3388 10.3696 74.8387 12.1096 74.8387 14.3296V20.8496H72.2987V19.8696C71.6587 20.6496 70.4587 21.1496 69.2787 21.1496ZM68.3988 18.0096C68.3988 18.6896 68.9387 19.1296 69.7987 19.1296C70.9587 19.1296 71.7987 18.5896 72.2987 17.7896V16.3696L69.8988 16.7696C68.8388 16.9496 68.3988 17.3896 68.3988 18.0096Z" fill="white"/>
</svg>
