<svg width="154" height="154" viewBox="0 0 154 154" fill="none" xmlns="http://www.w3.org/2000/svg">
<path d="M97.2285 31.4316L87.0314 47.4393L107.565 60.5212C107.565 60.5212 121.398 64.0076 128.823 65.5548L117.865 44.3525L97.2285 31.4316Z" fill="#D0CFCE"/>
<path d="M57.9896 52.9219L80.3902 88.7611L86.2015 93.2421L102.211 118.731L100.271 119.967L94.4512 123.674L92.5113 124.91L76.3391 99.5261L74.5703 92.4699L52.1697 56.6286L57.9896 52.9219Z" fill="#6A462F"/>
<path d="M101.644 56.6286L78.9806 92.5448L77.3743 99.7058L61.0396 124.987L59.0996 123.751L53.2797 120.042L51.3397 118.808L67.5119 93.4217L73.1585 88.8381L95.8243 52.9219L101.644 56.6286Z" fill="#A57939"/>
<path d="M80.3478 31.961C76.3594 30.0143 71.9751 29.0158 67.537 29.0435C63.099 29.0712 58.7275 30.1244 54.7637 32.1208C47.472 35.7446 40.6173 40.1881 34.3324 45.365L37.182 49.838L33.1682 52.2706L31.1594 49.1175C29.8624 48.8504 28.5124 49.099 27.3956 49.8105C26.2788 50.522 25.483 51.6404 25.1769 52.9287L33.4174 65.8637C34.689 65.9401 35.9522 65.6127 37.0266 64.9282C38.101 64.2438 38.9316 63.2373 39.3999 62.0526L37.2877 58.7373L41.2806 56.2718L44.5293 61.3714L65.065 48.2897L59.1936 39.0734C59.1936 39.0734 72.9361 30.3179 80.3478 31.961Z" fill="#9B9B9A"/>
<path d="M81.0489 89.2676L86.2015 93.2416L102.211 118.731L100.271 119.967L94.4512 123.674L92.5112 124.91L80.2233 105.626L76.9102 100.424" stroke="black" stroke-width="2" stroke-linecap="round" stroke-linejoin="round"/>
<path d="M72.5811 89.3065L69.161 83.8737L52.1697 56.6286L57.9896 52.9219L73.2741 77.4528L76.8033 83.061" stroke="black" stroke-width="2" stroke-linecap="round" stroke-linejoin="round"/>
<path d="M80.3478 31.961C76.3594 30.0143 71.9751 29.0158 67.537 29.0435C63.099 29.0712 58.7275 30.1244 54.7637 32.1208C47.472 35.7446 40.6173 40.1881 34.3324 45.365L37.182 49.838L33.1682 52.2706L31.1594 49.1175C29.8624 48.8504 28.5124 49.099 27.3956 49.8105C26.2788 50.522 25.483 51.6404 25.1769 52.9287L33.4174 65.8637C34.689 65.9401 35.9522 65.6127 37.0266 64.9282C38.101 64.2438 38.9316 63.2373 39.3999 62.0526L37.2877 58.7373L41.2806 56.2718L44.5293 61.3714L65.065 48.2897L59.1936 39.0734C59.1936 39.0734 72.9361 30.3179 80.3478 31.961Z" stroke="black" stroke-width="2" stroke-linecap="round" stroke-linejoin="round"/>
<path d="M97.2285 31.4316L87.0314 47.4393L107.565 60.5212C107.565 60.5212 121.398 64.0076 128.823 65.5548L117.865 44.3525L97.2285 31.4316Z" stroke="black" stroke-width="2" stroke-linecap="round" stroke-linejoin="round"/>
<path d="M76.8032 83.061L95.8243 52.9219L101.644 56.6286L78.9806 92.5448L77.3743 99.7058L61.0396 124.987L59.0996 123.751L53.2797 120.042L51.3397 118.808L67.5119 93.4217L73.1585 88.8381L76.8032 83.061Z" stroke="black" stroke-width="2" stroke-linecap="round" stroke-linejoin="round"/>
</svg>
