<svg width="103" height="85" viewBox="0 0 103 85" fill="none" xmlns="http://www.w3.org/2000/svg">
<path d="M94.2102 49.251C95.7516 54.4692 92.4296 58.8573 87.0894 57.9084C87.8007 63.125 82.6981 67.7507 76.5262 64.7852C78.8993 70.8318 73.3198 74.271 68.9301 71.6619C71.1827 74.3891 67.6247 83.6397 53.8583 74.8635L51.221 73.4132L20.1709 56.3384L17.8287 55.0504C17.8287 55.0504 6.37595 45.7026 4.12169 41.7898C-2.9301 29.5953 5.64524 10.015 20.8841 6.7556L33.6368 4.46875L42.0487 17.2283L63.0399 26.8688L83.578 38.4004L89.4952 44.4494L94.2102 49.251Z" fill="#FCEA2B"/>
<path d="M94.2102 49.2519C105.001 41.8902 102.304 18.6973 94.0515 8.53387C79.1403 6.1913 76.3899 4.74144 60.366 2.20299L38.6423 1.20993C37.0863 0.801676 35.4337 0.993227 34.0124 1.74658C32.591 2.49994 31.5048 3.76004 30.9691 5.27691C29.6775 10.0076 27.7326 14.5351 25.1906 18.7286C24.6275 20.1055 24.6269 21.6484 25.1889 23.0258C25.7509 24.4031 26.8306 25.5051 28.1963 26.0951C31.2598 26.8605 32.6598 25.4753 35.3572 23.3881C37.6686 21.1818 39.7185 18.7171 41.4665 16.0424L63.3669 26.0036L83.7901 37.5061C87.8266 40.2324 91.8374 46.8892 94.2426 49.2607" fill="#FCEA2B"/>
<path d="M44.2568 71.4286C44.9541 70.3625 46.0427 69.6133 47.2876 69.343C48.5325 69.0726 49.8337 69.3027 50.9104 69.9835C53.1663 71.2881 54.8265 73.776 53.2835 76.5071L50.4352 81.4861C49.6739 82.5103 48.5657 83.2222 47.3176 83.4887C46.0696 83.7552 44.7672 83.558 43.654 82.934C42.5408 82.31 41.693 81.3019 41.2691 80.0982C40.8452 78.8945 40.8742 77.5776 41.3507 76.3937L44.2568 71.426V71.4286Z" fill="#FCEA2B"/>
<path d="M35.1531 66.3387C35.8504 65.2726 36.939 64.5235 38.1839 64.2531C39.4288 63.9828 40.73 64.2128 41.8067 64.8937C44.0626 66.1983 45.7228 68.6861 44.1798 71.4173L41.3315 76.3962C40.5702 77.4202 39.462 78.132 38.2141 78.3984C36.9662 78.6648 35.664 78.4676 34.5509 77.8437C33.4378 77.2198 32.59 76.2119 32.166 75.0084C31.742 73.8049 31.7708 72.4882 32.247 71.3044L35.1531 66.3367V66.3387Z" fill="#FCEA2B"/>
<path d="M26.0655 61.2645C26.7628 60.1984 27.8514 59.4493 29.0962 59.1789C30.3411 58.9085 31.6424 59.1386 32.7191 59.8195C34.9749 61.124 36.6351 63.6119 35.0922 66.343L32.2438 71.322C31.4825 72.346 30.3744 73.0578 29.1265 73.3242C27.8786 73.5906 26.5764 73.3934 25.4633 72.7695C24.3502 72.1456 23.5024 71.1377 23.0784 69.9342C22.6544 68.7307 22.6831 67.414 23.1593 66.2302L26.0655 61.2624V61.2645Z" fill="#FCEA2B"/>
<path d="M16.9939 56.1747C17.6912 55.1086 18.7798 54.3594 20.0247 54.0891C21.2696 53.8187 22.5709 54.0488 23.6475 54.7296C25.9034 56.0342 27.5636 58.5221 26.0206 61.2532L23.1723 66.2322C22.411 67.2562 21.3028 67.9679 20.0549 68.2343C18.807 68.5007 17.5048 68.3035 16.3917 67.6797C15.2787 67.0558 14.4309 66.0479 14.0068 64.8444C13.5828 63.6409 13.6116 62.3241 14.0878 61.1403L16.9939 56.1726V56.1747Z" fill="#FCEA2B"/>
<path d="M17.8287 55.0507C17.8287 55.0507 6.37595 45.7029 4.12169 41.79C-2.9301 29.5955 5.64524 10.0152 20.8841 6.75586" stroke="black" stroke-width="2" stroke-linecap="round" stroke-linejoin="round"/>
<path d="M55.8171 53.5098L76.5133 64.7827" stroke="black" stroke-width="2" stroke-linecap="round" stroke-linejoin="round"/>
<path d="M48.0461 61.2168L68.9189 71.65" stroke="black" stroke-width="2" stroke-linecap="round" stroke-linejoin="round"/>
<path d="M87.0782 57.893L78.8897 50.8958L65.5969 43.9355" stroke="black" stroke-width="2" stroke-linecap="round" stroke-linejoin="round"/>
<path d="M53.8582 74.8644C67.6246 83.6406 71.1826 74.3899 68.93 71.6628C73.3197 74.2719 78.8992 70.8327 76.5261 64.786C82.698 67.7516 87.8006 63.1258 87.0893 57.9092C92.4295 58.8582 95.7515 54.4701 94.2101 49.2519C105.001 41.8902 102.304 18.6973 94.0515 8.53387C79.1403 6.1913 76.3899 4.74144 60.366 2.20299L38.6423 1.20993C37.0863 0.801676 35.4337 0.993227 34.0124 1.74658C32.591 2.49994 31.5048 3.76004 30.9691 5.27691C29.6775 10.0076 27.7326 14.5351 25.1906 18.7286C24.6275 20.1055 24.6269 21.6484 25.1889 23.0258C25.7509 24.4031 26.8306 25.5051 28.1963 26.0951C31.2598 26.8605 32.6598 25.4753 35.3572 23.3881C37.6686 21.1818 39.7185 18.7171 41.4665 16.0424L63.3669 26.0036L83.7901 37.5061C87.8266 40.2324 91.8374 46.8892 94.2426 49.2607" stroke="black" stroke-width="2" stroke-linecap="round" stroke-linejoin="round"/>
<path d="M44.2568 71.4286C44.9541 70.3625 46.0427 69.6133 47.2876 69.343C48.5325 69.0726 49.8337 69.3027 50.9104 69.9835C53.1663 71.2881 54.8265 73.776 53.2835 76.5071L50.4352 81.4861C49.6739 82.5103 48.5657 83.2222 47.3176 83.4887C46.0696 83.7552 44.7672 83.558 43.654 82.934C42.5408 82.31 41.693 81.3019 41.2691 80.0982C40.8452 78.8945 40.8742 77.5776 41.3507 76.3937L44.2568 71.426V71.4286Z" stroke="black" stroke-width="2" stroke-linecap="round" stroke-linejoin="round"/>
<path d="M35.1531 66.3387C35.8504 65.2726 36.939 64.5235 38.1839 64.2531C39.4288 63.9828 40.73 64.2128 41.8067 64.8937C44.0626 66.1983 45.7228 68.6861 44.1798 71.4173L41.3315 76.3962C40.5702 77.4202 39.462 78.132 38.2141 78.3984C36.9662 78.6648 35.664 78.4676 34.5509 77.8437C33.4378 77.2198 32.59 76.2119 32.166 75.0084C31.742 73.8049 31.7708 72.4882 32.247 71.3044L35.1531 66.3367V66.3387Z" stroke="black" stroke-width="2" stroke-linecap="round" stroke-linejoin="round"/>
<path d="M26.0655 61.2645C26.7628 60.1984 27.8514 59.4493 29.0962 59.1789C30.3411 58.9085 31.6424 59.1386 32.7191 59.8195C34.9749 61.124 36.6351 63.6119 35.0922 66.343L32.2438 71.322C31.4825 72.346 30.3744 73.0578 29.1265 73.3242C27.8786 73.5906 26.5764 73.3934 25.4633 72.7695C24.3502 72.1456 23.5024 71.1377 23.0784 69.9342C22.6544 68.7307 22.6831 67.414 23.1593 66.2302L26.0655 61.2624V61.2645Z" stroke="black" stroke-width="2" stroke-linecap="round" stroke-linejoin="round"/>
<path d="M16.9939 56.1747C17.6912 55.1086 18.7798 54.3594 20.0247 54.0891C21.2696 53.8187 22.5709 54.0488 23.6475 54.7296C25.9034 56.0342 27.5636 58.5221 26.0206 61.2532L23.1723 66.2322C22.411 67.2562 21.3028 67.9679 20.0549 68.2343C18.807 68.5007 17.5048 68.3035 16.3917 67.6797C15.2787 67.0558 14.4309 66.0479 14.0068 64.8444C13.5828 63.6409 13.6116 62.3241 14.0878 61.1403L16.9939 56.1726V56.1747Z" stroke="black" stroke-width="2" stroke-linecap="round" stroke-linejoin="round"/>
</svg>
