<svg width="154" height="154" viewBox="0 0 154 154" fill="none" xmlns="http://www.w3.org/2000/svg">
<path d="M114.18 67.333C121.275 56.214 118.013 41.4489 106.894 34.3542C95.7752 27.2595 81.0101 30.5218 73.9153 41.6408C66.8205 52.7597 70.0827 67.5248 81.2016 74.6196C92.3205 81.7143 107.086 78.452 114.18 67.333Z" fill="white"/>
<path d="M114.303 68.114C117.428 63.218 119.188 54.1793 117.935 48.5061C117.076 44.6217 112.255 40.2936 109.596 37.4727C110.983 42.5085 111.817 53.1954 104.922 63.0786C99.0702 71.4656 90.6109 75.1319 85.7837 76.0351C94.8714 78.7795 108.95 76.5003 114.303 68.114Z" fill="#92D3F5"/>
<path d="M110.746 28.3204C103.755 23.8636 95.4506 22.392 87.3525 24.1769C79.2568 25.9663 72.3414 30.8011 67.8798 37.7899C58.6749 52.2188 62.9228 71.4494 77.3515 80.6564C91.7783 89.8637 111.006 85.618 120.218 71.1869C124.677 64.1981 126.149 55.8887 124.359 47.793C122.57 39.6971 117.737 32.7819 110.746 28.3204ZM114.674 67.6494C110.014 74.9531 102.093 78.9457 94.0098 78.9457C89.5085 78.9477 84.9582 77.7084 80.8892 75.112C69.5163 67.8556 66.1698 52.6984 73.4262 41.3274C76.9417 35.8189 82.3914 32.007 88.7721 30.5989C95.1547 29.1907 101.7 30.3474 107.211 33.8648C112.72 37.3781 116.53 42.8278 117.94 49.2107C119.35 55.5912 118.189 62.1388 114.674 67.6494Z" fill="#D0CFCE"/>
<path d="M67.2529 86.1211L52.4561 108.227L44.5195 120.665C43.4975 122.269 45.3316 127.532 46.9352 128.555C47.708 129.048 52.3519 128.579 52.3519 128.579L77 91.8063L67.2529 86.1211Z" fill="#3F3F3F"/>
<path d="M120.44 71.3274C129.74 56.7515 125.464 37.3957 110.888 28.0951C96.3118 18.7945 76.956 23.071 67.6554 37.647C58.3548 52.2229 62.6313 71.5787 77.2073 80.8793C91.7832 90.1799 111.139 85.9034 120.44 71.3274Z" stroke="black" stroke-width="2" stroke-miterlimit="10" stroke-linecap="round" stroke-linejoin="round"/>
<path d="M114.18 67.3349C121.275 56.216 118.013 41.4508 106.894 34.3561C95.7752 27.2614 81.0101 30.5237 73.9153 41.6427C66.8205 52.7617 70.0827 67.5268 81.2016 74.6215C92.3205 81.7162 107.086 78.4539 114.18 67.3349Z" stroke="black" stroke-width="2" stroke-miterlimit="10" stroke-linecap="round" stroke-linejoin="round"/>
<path d="M66.969 85.4824L76.3923 91.4948L53.9427 126.68C52.3388 129.193 48.9292 129.885 46.327 128.225C43.7249 126.564 42.9155 123.181 44.5194 120.667L66.969 85.4824Z" stroke="black" stroke-width="2" stroke-miterlimit="10" stroke-linecap="round" stroke-linejoin="round"/>
</svg>
