<svg width="146" height="146" viewBox="0 0 146 146" fill="none" xmlns="http://www.w3.org/2000/svg">
<path d="M83.1452 53.0067H79.9233C78.8041 53.0067 77.8967 53.9139 77.8967 55.0332V63.9782C77.8967 65.0973 76.9895 66.0047 75.8702 66.0047H67.0872C65.9681 66.0047 65.0607 65.0975 65.0607 63.9782V55.0332C65.0607 53.9141 64.1535 53.0067 63.0341 53.0067H59.8327C58.1883 53.0067 57.2286 51.1515 58.1786 49.8093L69.8347 33.3421C70.6423 32.2011 72.3351 32.2011 73.1428 33.3421L84.7989 49.8093C85.7493 51.1515 84.7895 53.0067 83.1452 53.0067Z" fill="#92D3F5"/>
<path d="M123.694 85.5496V107.328C123.694 110.798 120.873 113.598 117.424 113.598H28.3885C25.0287 113.598 22.3052 110.875 22.3052 107.515V85.3626C22.3052 82.0028 25.0287 79.2793 28.3885 79.2793H39.3521C41.624 79.2793 43.8686 80.3398 45.0025 82.3084C46.0263 84.0857 47.9288 85.2777 50.1032 85.2777L72.9893 85.2986L95.8756 85.2777C98.0498 85.2777 99.9522 84.0857 100.976 82.3084C102.11 80.3398 104.355 79.2793 106.627 79.2793H117.424C120.873 79.2793 123.694 82.0801 123.694 85.5496Z" fill="#D0CFCE"/>
<path d="M83.1452 53.0067H79.9233C78.8041 53.0067 77.8967 53.9139 77.8967 55.0332V63.9782C77.8967 65.0973 76.9895 66.0047 75.8702 66.0047H67.0872C65.9681 66.0047 65.0607 65.0975 65.0607 63.9782V55.0332C65.0607 53.9141 64.1535 53.0067 63.0341 53.0067H59.8327C58.1883 53.0067 57.2286 51.1515 58.1786 49.8093L69.8347 33.3421C70.6423 32.2011 72.3351 32.2011 73.1428 33.3421L84.7989 49.8093C85.7493 51.1515 84.7895 53.0067 83.1452 53.0067Z" stroke="black" stroke-width="2" stroke-miterlimit="10"/>
<path d="M123.694 85.5496V107.328C123.694 110.798 120.873 113.598 117.424 113.598H28.3885C25.0287 113.598 22.3052 110.875 22.3052 107.515V85.3626C22.3052 82.0028 25.0287 79.2793 28.3885 79.2793H39.3521C41.624 79.2793 43.8686 80.3398 45.0025 82.3084C46.0263 84.0857 47.9288 85.2777 50.1032 85.2777L72.9893 85.2986L95.8756 85.2777C98.0498 85.2777 99.9522 84.0857 100.976 82.3084C102.11 80.3398 104.355 79.2793 106.627 79.2793H117.424C120.873 79.2793 123.694 82.0801 123.694 85.5496Z" stroke="black" stroke-width="2" stroke-miterlimit="10" stroke-linecap="round" stroke-linejoin="round"/>
</svg>
