<svg width="282" height="319" viewBox="0 0 282 319" fill="none" xmlns="http://www.w3.org/2000/svg">
<g clip-path="url(#clip0_11124_266595)">
<path fill-rule="evenodd" clip-rule="evenodd" d="M227.941 59.1506C256.169 71.0344 276.034 99.3457 280.843 128.88C285.652 158.415 275.197 189.173 254.497 211.018C233.796 232.863 202.849 245.97 171.066 254.708C139.074 263.621 106.245 268.165 81.1534 258.903C56.0615 249.64 38.7063 226.397 23.6512 202.804C8.59603 179.386 -4.15902 155.619 1.27756 135.346C6.92323 115.074 30.5514 98.4719 54.3887 86.0639C78.2261 73.6558 101.854 65.2673 132.174 58.8011C162.493 52.1602 199.504 47.4416 227.941 59.1506Z" fill="#F6F6F6"/>
<path fill-rule="evenodd" clip-rule="evenodd" d="M187.802 105.801C186.809 105.801 186.002 104.993 186.002 104.001C186.002 103.008 186.809 102.201 187.802 102.201C188.794 102.201 189.602 103.008 189.602 104.001C189.602 104.993 188.794 105.801 187.802 105.801ZM139.202 219.201C138.209 219.201 137.402 218.393 137.402 217.401C137.402 216.408 138.209 215.601 139.202 215.601C140.194 215.601 141.002 216.408 141.002 217.401C141.002 218.393 140.194 219.201 139.202 219.201ZM92.4016 100.401C91.409 100.401 90.6016 99.5933 90.6016 98.6008C90.6016 97.6082 91.409 96.8008 92.4016 96.8008C93.3941 96.8008 94.2016 97.6082 94.2016 98.6008C94.2016 99.5933 93.3941 100.401 92.4016 100.401Z" fill="#CACAFB"/>
<path d="M97.8008 123.8C97.8008 124.793 98.6083 125.6 99.6008 125.6C100.593 125.6 101.401 124.793 101.401 123.8C101.401 122.807 100.593 122 99.6008 122C98.6083 122 97.8008 122.807 97.8008 123.8Z" fill="#E1000F"/>
<path d="M105.001 123.8C105.001 124.793 105.808 125.6 106.801 125.6C107.793 125.6 108.601 124.793 108.601 123.8C108.601 122.807 107.793 122 106.801 122C105.808 122 105.001 122.807 105.001 123.8Z" fill="#E1000F"/>
<path d="M112.201 123.8C112.201 124.793 113.008 125.6 114.001 125.6C114.993 125.6 115.801 124.793 115.801 123.8C115.801 122.807 114.993 122 114.001 122C113.008 122 112.201 122.807 112.201 123.8Z" fill="#E1000F"/>
<path d="M184.201 123.8C184.201 122.806 183.395 122 182.401 122H128.401L128.191 122.012C127.296 122.116 126.601 122.877 126.601 123.8C126.601 124.794 127.407 125.6 128.401 125.6H182.401L182.611 125.588C183.506 125.484 184.201 124.723 184.201 123.8Z" fill="#E1000F"/>
<path fill-rule="evenodd" clip-rule="evenodd" d="M189.602 114.801C190.525 114.801 191.285 115.496 191.389 116.391L191.402 116.601V145.401C191.402 146.395 190.596 147.201 189.602 147.201C188.678 147.201 187.918 146.506 187.814 145.611L187.802 145.401V118.401H94.2016L94.2006 129.2L160.802 129.201C161.796 129.201 162.602 130.007 162.602 131.001C162.602 131.924 161.907 132.685 161.011 132.789L160.802 132.801H94.2006L94.2016 197.601H135.602C136.525 197.601 137.285 198.296 137.389 199.191L137.402 199.401C137.402 200.324 136.707 201.085 135.811 201.189L135.602 201.201H92.4016C91.4785 201.201 90.7176 200.506 90.6137 199.611L90.6016 199.401V116.601C90.6016 115.678 91.2964 114.917 92.1916 114.813L92.4016 114.801H189.602ZM128.402 165.201C129.396 165.201 130.202 166.007 130.202 167.001C130.202 167.924 129.507 168.685 128.611 168.789L128.402 168.801H106.802C105.807 168.801 105.002 167.995 105.002 167.001C105.002 166.078 105.696 165.317 106.592 165.213L106.802 165.201H128.402ZM132.002 154.401C132.996 154.401 133.802 155.207 133.802 156.201C133.802 157.124 133.107 157.885 132.211 157.989L132.002 158.001H106.802C105.807 158.001 105.002 157.195 105.002 156.201C105.002 155.278 105.696 154.517 106.592 154.413L106.802 154.401H132.002ZM139.202 143.601C140.196 143.601 141.002 144.407 141.002 145.401C141.002 146.324 140.307 147.085 139.411 147.189L139.202 147.201H106.802C105.807 147.201 105.002 146.395 105.002 145.401C105.002 144.478 105.696 143.717 106.592 143.613L106.802 143.601H139.202Z" fill="#000091"/>
<path fill-rule="evenodd" clip-rule="evenodd" d="M189.917 171.167H192.333C193.668 171.167 194.75 172.249 194.75 173.584V197.751C194.75 199.085 193.668 200.167 192.333 200.167H153.667C152.332 200.167 151.25 199.085 151.25 197.751V173.584C151.25 172.249 152.332 171.167 153.667 171.167H156.083V168.751C156.083 162.707 159.308 157.122 164.542 154.1C169.776 151.079 176.224 151.079 181.458 154.1C186.692 157.122 189.917 162.707 189.917 168.751V171.167ZM156.083 176.001V195.334H189.917V176.001H156.083ZM170.583 180.834H175.417V190.501H170.583V180.834ZM185.083 171.167V168.751C185.083 162.077 179.673 156.667 173 156.667C166.327 156.667 160.917 162.077 160.917 168.751V171.167H185.083Z" fill="#E1000F"/>
</g>
<defs>
<clipPath id="clip0_11124_266595">
<rect width="282" height="319" fill="white"/>
</clipPath>
</defs>
</svg>
