<svg width="282" height="320" viewBox="0 0 282 320" fill="none" xmlns="http://www.w3.org/2000/svg">
<g clip-path="url(#clip0_2_8675)">
<path fill-rule="evenodd" clip-rule="evenodd" d="M36.2054 315.1C37.4233 315.1 38.4107 316.085 38.4107 317.3C38.4107 318.515 37.4233 319.5 36.2054 319.5C34.9874 319.5 34 318.515 34 317.3C34 316.085 34.9874 315.1 36.2054 315.1ZM52.378 315.1C53.596 315.1 54.5833 316.085 54.5833 317.3C54.5833 318.515 53.596 319.5 52.378 319.5C51.16 319.5 50.1726 318.515 50.1726 317.3C50.1726 316.085 51.16 315.1 52.378 315.1ZM68.5506 315.1C69.7686 315.1 70.756 316.085 70.756 317.3C70.756 318.515 69.7686 319.5 68.5506 319.5C67.3326 319.5 66.3452 318.515 66.3452 317.3C66.3452 316.085 67.3326 315.1 68.5506 315.1ZM84.7232 315.1C85.9412 315.1 86.9286 316.085 86.9286 317.3C86.9286 318.515 85.9412 319.5 84.7232 319.5C83.5052 319.5 82.5179 318.515 82.5179 317.3C82.5179 316.085 83.5052 315.1 84.7232 315.1ZM100.896 315.1C102.114 315.1 103.101 316.085 103.101 317.3C103.101 318.515 102.114 319.5 100.896 319.5C99.6778 319.5 98.6905 318.515 98.6905 317.3C98.6905 316.085 99.6778 315.1 100.896 315.1ZM117.068 315.1C118.286 315.1 119.274 316.085 119.274 317.3C119.274 318.515 118.286 319.5 117.068 319.5C115.85 319.5 114.863 318.515 114.863 317.3C114.863 316.085 115.85 315.1 117.068 315.1ZM133.241 315.1C134.459 315.1 135.446 316.085 135.446 317.3C135.446 318.515 134.459 319.5 133.241 319.5C132.023 319.5 131.036 318.515 131.036 317.3C131.036 316.085 132.023 315.1 133.241 315.1ZM149.414 315.1C150.632 315.1 151.619 316.085 151.619 317.3C151.619 318.515 150.632 319.5 149.414 319.5C148.196 319.5 147.208 318.515 147.208 317.3C147.208 316.085 148.196 315.1 149.414 315.1ZM165.586 315.1C166.804 315.1 167.792 316.085 167.792 317.3C167.792 318.515 166.804 319.5 165.586 319.5C164.368 319.5 163.381 318.515 163.381 317.3C163.381 316.085 164.368 315.1 165.586 315.1ZM181.759 315.008C182.977 315.008 183.964 315.993 183.964 317.208C183.964 318.423 182.977 319.408 181.759 319.408C180.541 319.408 179.554 318.423 179.554 317.208C179.554 315.993 180.541 315.008 181.759 315.008ZM197.932 315.008C199.15 315.008 200.137 315.993 200.137 317.208C200.137 318.423 199.15 319.408 197.932 319.408C196.714 319.408 195.726 318.423 195.726 317.208C195.726 315.993 196.714 315.008 197.932 315.008ZM214.104 315.008C215.322 315.008 216.31 315.993 216.31 317.208C216.31 318.423 215.322 319.408 214.104 319.408C212.886 319.408 211.899 318.423 211.899 317.208C211.899 315.993 212.886 315.008 214.104 315.008ZM230.277 315.008C231.495 315.008 232.482 315.993 232.482 317.208C232.482 318.423 231.495 319.408 230.277 319.408C229.059 319.408 228.071 318.423 228.071 317.208C228.071 315.993 229.059 315.008 230.277 315.008ZM246.449 315.008C247.667 315.008 248.655 315.993 248.655 317.208C248.655 318.423 247.667 319.408 246.449 319.408C245.231 319.408 244.244 318.423 244.244 317.208C244.244 315.993 245.231 315.008 246.449 315.008ZM262.622 315.008C263.84 315.008 264.827 315.993 264.827 317.208C264.827 318.423 263.84 319.408 262.622 319.408C261.404 319.408 260.417 318.423 260.417 317.208C260.417 315.993 261.404 315.008 262.622 315.008ZM278.795 315.008C280.013 315.008 281 315.993 281 317.208C281 318.423 280.013 319.408 278.795 319.408C277.577 319.408 276.589 318.423 276.589 317.208C276.589 315.993 277.577 315.008 278.795 315.008ZM165.586 298.967C166.804 298.967 167.792 299.952 167.792 301.167C167.792 302.382 166.804 303.367 165.586 303.367C164.368 303.367 163.381 302.382 163.381 301.167C163.381 299.952 164.368 298.967 165.586 298.967ZM181.759 298.874C182.977 298.874 183.964 299.859 183.964 301.074C183.964 302.289 182.977 303.274 181.759 303.274C180.541 303.274 179.554 302.289 179.554 301.074C179.554 299.859 180.541 298.874 181.759 298.874ZM197.932 298.874C199.15 298.874 200.137 299.859 200.137 301.074C200.137 302.289 199.15 303.274 197.932 303.274C196.714 303.274 195.726 302.289 195.726 301.074C195.726 299.859 196.714 298.874 197.932 298.874ZM214.104 298.874C215.322 298.874 216.31 299.859 216.31 301.074C216.31 302.289 215.322 303.274 214.104 303.274C212.886 303.274 211.899 302.289 211.899 301.074C211.899 299.859 212.886 298.874 214.104 298.874ZM36.2054 298.967C37.4233 298.967 38.4107 299.952 38.4107 301.167C38.4107 302.382 37.4233 303.367 36.2054 303.367C34.9874 303.367 34 302.382 34 301.167C34 299.952 34.9874 298.967 36.2054 298.967ZM68.5506 298.967C69.7686 298.967 70.756 299.952 70.756 301.167C70.756 302.382 69.7686 303.367 68.5506 303.367C67.3326 303.367 66.3452 302.382 66.3452 301.167C66.3452 299.952 67.3326 298.967 68.5506 298.967ZM100.896 298.967C102.114 298.967 103.101 299.952 103.101 301.167C103.101 302.382 102.114 303.367 100.896 303.367C99.6778 303.367 98.6905 302.382 98.6905 301.167C98.6905 299.952 99.6778 298.967 100.896 298.967ZM133.241 298.967C134.459 298.967 135.446 299.952 135.446 301.167C135.446 302.382 134.459 303.367 133.241 303.367C132.023 303.367 131.036 302.382 131.036 301.167C131.036 299.952 132.023 298.967 133.241 298.967ZM149.414 298.967C150.632 298.967 151.619 299.952 151.619 301.167C151.619 302.382 150.632 303.367 149.414 303.367C148.196 303.367 147.208 302.382 147.208 301.167C147.208 299.952 148.196 298.967 149.414 298.967ZM246.449 298.874C247.667 298.874 248.655 299.859 248.655 301.074C248.655 302.289 247.667 303.274 246.449 303.274C245.231 303.274 244.244 302.289 244.244 301.074C244.244 299.859 245.231 298.874 246.449 298.874ZM52.378 298.967C53.596 298.967 54.5833 299.952 54.5833 301.167C54.5833 302.382 53.596 303.367 52.378 303.367C51.16 303.367 50.1726 302.382 50.1726 301.167C50.1726 299.952 51.16 298.967 52.378 298.967ZM262.622 298.874C263.84 298.874 264.827 299.859 264.827 301.074C264.827 302.289 263.84 303.274 262.622 303.274C261.404 303.274 260.417 302.289 260.417 301.074C260.417 299.859 261.404 298.874 262.622 298.874ZM84.7232 298.967C85.9412 298.967 86.9286 299.952 86.9286 301.167C86.9286 302.382 85.9412 303.367 84.7232 303.367C83.5052 303.367 82.5179 302.382 82.5179 301.167C82.5179 299.952 83.5052 298.967 84.7232 298.967ZM278.795 298.874C280.013 298.874 281 299.859 281 301.074C281 302.289 280.013 303.274 278.795 303.274C277.577 303.274 276.589 302.289 276.589 301.074C276.589 299.859 277.577 298.874 278.795 298.874ZM117.068 298.967C118.286 298.967 119.274 299.952 119.274 301.167C119.274 302.382 118.286 303.367 117.068 303.367C115.85 303.367 114.863 302.382 114.863 301.167C114.863 299.952 115.85 298.967 117.068 298.967ZM230.277 298.874C231.495 298.874 232.482 299.859 232.482 301.074C232.482 302.289 231.495 303.274 230.277 303.274C229.059 303.274 228.071 302.289 228.071 301.074C228.071 299.859 229.059 298.874 230.277 298.874ZM68.5506 282.833C69.7686 282.833 70.756 283.818 70.756 285.033C70.756 286.248 69.7686 287.233 68.5506 287.233C67.3326 287.233 66.3452 286.248 66.3452 285.033C66.3452 283.818 67.3326 282.833 68.5506 282.833ZM100.896 282.833C102.114 282.833 103.101 283.818 103.101 285.033C103.101 286.248 102.114 287.233 100.896 287.233C99.6778 287.233 98.6905 286.248 98.6905 285.033C98.6905 283.818 99.6778 282.833 100.896 282.833ZM117.068 282.833C118.286 282.833 119.274 283.818 119.274 285.033C119.274 286.248 118.286 287.233 117.068 287.233C115.85 287.233 114.863 286.248 114.863 285.033C114.863 283.818 115.85 282.833 117.068 282.833ZM133.241 282.833C134.459 282.833 135.446 283.818 135.446 285.033C135.446 286.248 134.459 287.233 133.241 287.233C132.023 287.233 131.036 286.248 131.036 285.033C131.036 283.818 132.023 282.833 133.241 282.833ZM149.414 282.833C150.632 282.833 151.619 283.818 151.619 285.033C151.619 286.248 150.632 287.233 149.414 287.233C148.196 287.233 147.208 286.248 147.208 285.033C147.208 283.818 148.196 282.833 149.414 282.833ZM36.2054 282.833C37.4233 282.833 38.4107 283.818 38.4107 285.033C38.4107 286.248 37.4233 287.233 36.2054 287.233C34.9874 287.233 34 286.248 34 285.033C34 283.818 34.9874 282.833 36.2054 282.833ZM52.378 282.833C53.596 282.833 54.5833 283.818 54.5833 285.033C54.5833 286.248 53.596 287.233 52.378 287.233C51.16 287.233 50.1726 286.248 50.1726 285.033C50.1726 283.818 51.16 282.833 52.378 282.833ZM84.7232 282.833C85.9412 282.833 86.9286 283.818 86.9286 285.033C86.9286 286.248 85.9412 287.233 84.7232 287.233C83.5052 287.233 82.5179 286.248 82.5179 285.033C82.5179 283.818 83.5052 282.833 84.7232 282.833ZM165.586 282.833C166.804 282.833 167.792 283.818 167.792 285.033C167.792 286.248 166.804 287.233 165.586 287.233C164.368 287.233 163.381 286.248 163.381 285.033C163.381 283.818 164.368 282.833 165.586 282.833ZM181.759 282.741C182.977 282.741 183.964 283.726 183.964 284.941C183.964 286.156 182.977 287.141 181.759 287.141C180.541 287.141 179.554 286.156 179.554 284.941C179.554 283.726 180.541 282.741 181.759 282.741ZM197.932 282.741C199.15 282.741 200.137 283.726 200.137 284.941C200.137 286.156 199.15 287.141 197.932 287.141C196.714 287.141 195.726 286.156 195.726 284.941C195.726 283.726 196.714 282.741 197.932 282.741ZM214.104 282.741C215.322 282.741 216.31 283.726 216.31 284.941C216.31 286.156 215.322 287.141 214.104 287.141C212.886 287.141 211.899 286.156 211.899 284.941C211.899 283.726 212.886 282.741 214.104 282.741ZM230.277 282.741C231.495 282.741 232.482 283.726 232.482 284.941C232.482 286.156 231.495 287.141 230.277 287.141C229.059 287.141 228.071 286.156 228.071 284.941C228.071 283.726 229.059 282.741 230.277 282.741ZM246.449 282.741C247.667 282.741 248.655 283.726 248.655 284.941C248.655 286.156 247.667 287.141 246.449 287.141C245.231 287.141 244.244 286.156 244.244 284.941C244.244 283.726 245.231 282.741 246.449 282.741ZM262.622 282.741C263.84 282.741 264.827 283.726 264.827 284.941C264.827 286.156 263.84 287.141 262.622 287.141C261.404 287.141 260.417 286.156 260.417 284.941C260.417 283.726 261.404 282.741 262.622 282.741ZM278.795 282.741C280.013 282.741 281 283.726 281 284.941C281 286.156 280.013 287.141 278.795 287.141C277.577 287.141 276.589 286.156 276.589 284.941C276.589 283.726 277.577 282.741 278.795 282.741ZM36.2054 266.7C37.4233 266.7 38.4107 267.685 38.4107 268.9C38.4107 270.115 37.4233 271.1 36.2054 271.1C34.9874 271.1 34 270.115 34 268.9C34 267.685 34.9874 266.7 36.2054 266.7ZM52.378 266.7C53.596 266.7 54.5833 267.685 54.5833 268.9C54.5833 270.115 53.596 271.1 52.378 271.1C51.16 271.1 50.1726 270.115 50.1726 268.9C50.1726 267.685 51.16 266.7 52.378 266.7ZM68.5506 266.7C69.7686 266.7 70.756 267.685 70.756 268.9C70.756 270.115 69.7686 271.1 68.5506 271.1C67.3326 271.1 66.3452 270.115 66.3452 268.9C66.3452 267.685 67.3326 266.7 68.5506 266.7ZM84.7232 266.7C85.9412 266.7 86.9286 267.685 86.9286 268.9C86.9286 270.115 85.9412 271.1 84.7232 271.1C83.5052 271.1 82.5179 270.115 82.5179 268.9C82.5179 267.685 83.5052 266.7 84.7232 266.7ZM100.896 266.7C102.114 266.7 103.101 267.685 103.101 268.9C103.101 270.115 102.114 271.1 100.896 271.1C99.6778 271.1 98.6905 270.115 98.6905 268.9C98.6905 267.685 99.6778 266.7 100.896 266.7ZM117.068 266.7C118.286 266.7 119.274 267.685 119.274 268.9C119.274 270.115 118.286 271.1 117.068 271.1C115.85 271.1 114.863 270.115 114.863 268.9C114.863 267.685 115.85 266.7 117.068 266.7ZM133.241 266.7C134.459 266.7 135.446 267.685 135.446 268.9C135.446 270.115 134.459 271.1 133.241 271.1C132.023 271.1 131.036 270.115 131.036 268.9C131.036 267.685 132.023 266.7 133.241 266.7ZM149.414 266.7C150.632 266.7 151.619 267.685 151.619 268.9C151.619 270.115 150.632 271.1 149.414 271.1C148.196 271.1 147.208 270.115 147.208 268.9C147.208 267.685 148.196 266.7 149.414 266.7ZM165.586 266.7C166.804 266.7 167.792 267.685 167.792 268.9C167.792 270.115 166.804 271.1 165.586 271.1C164.368 271.1 163.381 270.115 163.381 268.9C163.381 267.685 164.368 266.7 165.586 266.7ZM181.759 266.608C182.977 266.608 183.964 267.593 183.964 268.808C183.964 270.023 182.977 271.008 181.759 271.008C180.541 271.008 179.554 270.023 179.554 268.808C179.554 267.593 180.541 266.608 181.759 266.608ZM197.932 266.608C199.15 266.608 200.137 267.593 200.137 268.808C200.137 270.023 199.15 271.008 197.932 271.008C196.714 271.008 195.726 270.023 195.726 268.808C195.726 267.593 196.714 266.608 197.932 266.608ZM214.104 266.608C215.322 266.608 216.31 267.593 216.31 268.808C216.31 270.023 215.322 271.008 214.104 271.008C212.886 271.008 211.899 270.023 211.899 268.808C211.899 267.593 212.886 266.608 214.104 266.608ZM230.277 266.608C231.495 266.608 232.482 267.593 232.482 268.808C232.482 270.023 231.495 271.008 230.277 271.008C229.059 271.008 228.071 270.023 228.071 268.808C228.071 267.593 229.059 266.608 230.277 266.608ZM246.449 266.608C247.667 266.608 248.655 267.593 248.655 268.808C248.655 270.023 247.667 271.008 246.449 271.008C245.231 271.008 244.244 270.023 244.244 268.808C244.244 267.593 245.231 266.608 246.449 266.608ZM262.622 266.608C263.84 266.608 264.827 267.593 264.827 268.808C264.827 270.023 263.84 271.008 262.622 271.008C261.404 271.008 260.417 270.023 260.417 268.808C260.417 267.593 261.404 266.608 262.622 266.608ZM278.795 266.608C280.013 266.608 281 267.593 281 268.808C281 270.023 280.013 271.008 278.795 271.008C277.577 271.008 276.589 270.023 276.589 268.808C276.589 267.593 277.577 266.608 278.795 266.608ZM36.2054 250.567C37.4233 250.567 38.4107 251.552 38.4107 252.767C38.4107 253.982 37.4233 254.967 36.2054 254.967C34.9874 254.967 34 253.982 34 252.767C34 251.552 34.9874 250.567 36.2054 250.567ZM52.378 250.567C53.596 250.567 54.5833 251.552 54.5833 252.767C54.5833 253.982 53.596 254.967 52.378 254.967C51.16 254.967 50.1726 253.982 50.1726 252.767C50.1726 251.552 51.16 250.567 52.378 250.567ZM68.5506 250.567C69.7686 250.567 70.756 251.552 70.756 252.767C70.756 253.982 69.7686 254.967 68.5506 254.967C67.3326 254.967 66.3452 253.982 66.3452 252.767C66.3452 251.552 67.3326 250.567 68.5506 250.567ZM84.7232 250.567C85.9412 250.567 86.9286 251.552 86.9286 252.767C86.9286 253.982 85.9412 254.967 84.7232 254.967C83.5052 254.967 82.5179 253.982 82.5179 252.767C82.5179 251.552 83.5052 250.567 84.7232 250.567ZM100.896 250.567C102.114 250.567 103.101 251.552 103.101 252.767C103.101 253.982 102.114 254.967 100.896 254.967C99.6778 254.967 98.6905 253.982 98.6905 252.767C98.6905 251.552 99.6778 250.567 100.896 250.567ZM117.068 250.567C118.286 250.567 119.274 251.552 119.274 252.767C119.274 253.982 118.286 254.967 117.068 254.967C115.85 254.967 114.863 253.982 114.863 252.767C114.863 251.552 115.85 250.567 117.068 250.567ZM133.241 250.567C134.459 250.567 135.446 251.552 135.446 252.767C135.446 253.982 134.459 254.967 133.241 254.967C132.023 254.967 131.036 253.982 131.036 252.767C131.036 251.552 132.023 250.567 133.241 250.567ZM149.414 250.567C150.632 250.567 151.619 251.552 151.619 252.767C151.619 253.982 150.632 254.967 149.414 254.967C148.196 254.967 147.208 253.982 147.208 252.767C147.208 251.552 148.196 250.567 149.414 250.567ZM165.586 250.567C166.804 250.567 167.792 251.552 167.792 252.767C167.792 253.982 166.804 254.967 165.586 254.967C164.368 254.967 163.381 253.982 163.381 252.767C163.381 251.552 164.368 250.567 165.586 250.567ZM78.8423 2.7C78.8423 3.91503 77.8549 4.9 76.6369 4.9C75.4189 4.9 74.4315 3.91503 74.4315 2.7C74.4315 1.48497 75.4189 0.5 76.6369 0.5C77.8549 0.5 78.8423 1.48497 78.8423 2.7ZM78.8423 18.8333C78.8423 20.0484 77.8549 21.0333 76.6369 21.0333C75.4189 21.0333 74.4315 20.0484 74.4315 18.8333C74.4315 17.6183 75.4189 16.6333 76.6369 16.6333C77.8549 16.6333 78.8423 17.6183 78.8423 18.8333ZM78.8423 34.9667C78.8423 36.1817 77.8549 37.1667 76.6369 37.1667C75.4189 37.1667 74.4315 36.1817 74.4315 34.9667C74.4315 33.7516 75.4189 32.7667 76.6369 32.7667C77.8549 32.7667 78.8423 33.7516 78.8423 34.9667ZM78.8423 51.1C78.8423 52.315 77.8549 53.3 76.6369 53.3C75.4189 53.3 74.4315 52.315 74.4315 51.1C74.4315 49.885 75.4189 48.9 76.6369 48.9C77.8549 48.9 78.8423 49.885 78.8423 51.1ZM78.8423 67.2333C78.8423 68.4484 77.8549 69.4333 76.6369 69.4333C75.4189 69.4333 74.4315 68.4484 74.4315 67.2333C74.4315 66.0183 75.4189 65.0333 76.6369 65.0333C77.8549 65.0333 78.8423 66.0183 78.8423 67.2333ZM78.8423 83.3667C78.8423 84.5817 77.8549 85.5667 76.6369 85.5667C75.4189 85.5667 74.4315 84.5817 74.4315 83.3667C74.4315 82.1516 75.4189 81.1667 76.6369 81.1667C77.8549 81.1667 78.8423 82.1516 78.8423 83.3667ZM78.8423 99.5C78.8423 100.715 77.8549 101.7 76.6369 101.7C75.4189 101.7 74.4315 100.715 74.4315 99.5C74.4315 98.285 75.4189 97.3 76.6369 97.3C77.8549 97.3 78.8423 98.285 78.8423 99.5ZM78.8423 115.633C78.8423 116.848 77.8549 117.833 76.6369 117.833C75.4189 117.833 74.4315 116.848 74.4315 115.633C74.4315 114.418 75.4189 113.433 76.6369 113.433C77.8549 113.433 78.8423 114.418 78.8423 115.633ZM78.8423 131.767C78.8423 132.982 77.8549 133.967 76.6369 133.967C75.4189 133.967 74.4315 132.982 74.4315 131.767C74.4315 130.552 75.4189 129.567 76.6369 129.567C77.8549 129.567 78.8423 130.552 78.8423 131.767ZM78.8423 147.9C78.8423 149.115 77.8549 150.1 76.6369 150.1C75.4189 150.1 74.4315 149.115 74.4315 147.9C74.4315 146.685 75.4189 145.7 76.6369 145.7C77.8549 145.7 78.8423 146.685 78.8423 147.9ZM78.8423 164.033C78.8423 165.248 77.8549 166.233 76.6369 166.233C75.4189 166.233 74.4315 165.248 74.4315 164.033C74.4315 162.818 75.4189 161.833 76.6369 161.833C77.8549 161.833 78.8423 162.818 78.8423 164.033ZM78.8423 180.167C78.8423 181.382 77.8549 182.367 76.6369 182.367C75.4189 182.367 74.4315 181.382 74.4315 180.167C74.4315 178.952 75.4189 177.967 76.6369 177.967C77.8549 177.967 78.8423 178.952 78.8423 180.167ZM78.8423 196.3C78.8423 197.515 77.8549 198.5 76.6369 198.5C75.4189 198.5 74.4315 197.515 74.4315 196.3C74.4315 195.085 75.4189 194.1 76.6369 194.1C77.8549 194.1 78.8423 195.085 78.8423 196.3ZM78.8423 212.433C78.8423 213.648 77.8549 214.633 76.6369 214.633C75.4189 214.633 74.4315 213.648 74.4315 212.433C74.4315 211.218 75.4189 210.233 76.6369 210.233C77.8549 210.233 78.8423 211.218 78.8423 212.433ZM95.0149 99.5C95.0149 100.715 94.0275 101.7 92.8095 101.7C91.5915 101.7 90.6042 100.715 90.6042 99.5C90.6042 98.285 91.5915 97.3 92.8095 97.3C94.0275 97.3 95.0149 98.285 95.0149 99.5ZM95.0149 115.633C95.0149 116.848 94.0275 117.833 92.8095 117.833C91.5915 117.833 90.6042 116.848 90.6042 115.633C90.6042 114.418 91.5915 113.433 92.8095 113.433C94.0275 113.433 95.0149 114.418 95.0149 115.633ZM95.0149 131.767C95.0149 132.982 94.0275 133.967 92.8095 133.967C91.5915 133.967 90.6042 132.982 90.6042 131.767C90.6042 130.552 91.5915 129.567 92.8095 129.567C94.0275 129.567 95.0149 130.552 95.0149 131.767ZM95.0149 147.9C95.0149 149.115 94.0275 150.1 92.8095 150.1C91.5915 150.1 90.6042 149.115 90.6042 147.9C90.6042 146.685 91.5915 145.7 92.8095 145.7C94.0275 145.7 95.0149 146.685 95.0149 147.9ZM95.0149 2.7C95.0149 3.91503 94.0275 4.9 92.8095 4.9C91.5915 4.9 90.6042 3.91503 90.6042 2.7C90.6042 1.48497 91.5915 0.5 92.8095 0.5C94.0275 0.5 95.0149 1.48497 95.0149 2.7ZM95.0149 34.9667C95.0149 36.1817 94.0275 37.1667 92.8095 37.1667C91.5915 37.1667 90.6042 36.1817 90.6042 34.9667C90.6042 33.7516 91.5915 32.7667 92.8095 32.7667C94.0275 32.7667 95.0149 33.7516 95.0149 34.9667ZM95.0149 67.2333C95.0149 68.4484 94.0275 69.4333 92.8095 69.4333C91.5915 69.4333 90.6042 68.4484 90.6042 67.2333C90.6042 66.0183 91.5915 65.0333 92.8095 65.0333C94.0275 65.0333 95.0149 66.0183 95.0149 67.2333ZM95.0149 83.3667C95.0149 84.5817 94.0275 85.5667 92.8095 85.5667C91.5915 85.5667 90.6042 84.5817 90.6042 83.3667C90.6042 82.1516 91.5915 81.1667 92.8095 81.1667C94.0275 81.1667 95.0149 82.1516 95.0149 83.3667ZM95.0149 180.167C95.0149 181.382 94.0275 182.367 92.8095 182.367C91.5915 182.367 90.6042 181.382 90.6042 180.167C90.6042 178.952 91.5915 177.967 92.8095 177.967C94.0275 177.967 95.0149 178.952 95.0149 180.167ZM95.0149 196.3C95.0149 197.515 94.0275 198.5 92.8095 198.5C91.5915 198.5 90.6042 197.515 90.6042 196.3C90.6042 195.085 91.5915 194.1 92.8095 194.1C94.0275 194.1 95.0149 195.085 95.0149 196.3ZM95.0149 18.8333C95.0149 20.0484 94.0275 21.0333 92.8095 21.0333C91.5915 21.0333 90.6042 20.0484 90.6042 18.8333C90.6042 17.6183 91.5915 16.6333 92.8095 16.6333C94.0275 16.6333 95.0149 17.6183 95.0149 18.8333ZM95.0149 212.433C95.0149 213.648 94.0275 214.633 92.8095 214.633C91.5915 214.633 90.6042 213.648 90.6042 212.433C90.6042 211.218 91.5915 210.233 92.8095 210.233C94.0275 210.233 95.0149 211.218 95.0149 212.433ZM95.0149 51.1C95.0149 52.315 94.0275 53.3 92.8095 53.3C91.5915 53.3 90.6042 52.315 90.6042 51.1C90.6042 49.885 91.5915 48.9 92.8095 48.9C94.0275 48.9 95.0149 49.885 95.0149 51.1ZM95.0149 164.033C95.0149 165.248 94.0275 166.233 92.8095 166.233C91.5915 166.233 90.6042 165.248 90.6042 164.033C90.6042 162.818 91.5915 161.833 92.8095 161.833C94.0275 161.833 95.0149 162.818 95.0149 164.033ZM111.188 2.7C111.188 3.91503 110.2 4.9 108.982 4.9C107.764 4.9 106.777 3.91503 106.777 2.7C106.777 1.48497 107.764 0.5 108.982 0.5C110.2 0.5 111.188 1.48497 111.188 2.7ZM111.188 34.9667C111.188 36.1817 110.2 37.1667 108.982 37.1667C107.764 37.1667 106.777 36.1817 106.777 34.9667C106.777 33.7516 107.764 32.7667 108.982 32.7667C110.2 32.7667 111.188 33.7516 111.188 34.9667ZM111.188 51.1C111.188 52.315 110.2 53.3 108.982 53.3C107.764 53.3 106.777 52.315 106.777 51.1C106.777 49.885 107.764 48.9 108.982 48.9C110.2 48.9 111.188 49.885 111.188 51.1ZM111.188 67.2333C111.188 68.4484 110.2 69.4333 108.982 69.4333C107.764 69.4333 106.777 68.4484 106.777 67.2333C106.777 66.0183 107.764 65.0333 108.982 65.0333C110.2 65.0333 111.188 66.0183 111.188 67.2333ZM111.188 83.3667C111.188 84.5817 110.2 85.5667 108.982 85.5667C107.764 85.5667 106.777 84.5817 106.777 83.3667C106.777 82.1516 107.764 81.1667 108.982 81.1667C110.2 81.1667 111.188 82.1516 111.188 83.3667ZM111.188 18.8333C111.188 20.0484 110.2 21.0333 108.982 21.0333C107.764 21.0333 106.777 20.0484 106.777 18.8333C106.777 17.6183 107.764 16.6333 108.982 16.6333C110.2 16.6333 111.188 17.6183 111.188 18.8333ZM111.188 99.5C111.188 100.715 110.2 101.7 108.982 101.7C107.764 101.7 106.777 100.715 106.777 99.5C106.777 98.285 107.764 97.3 108.982 97.3C110.2 97.3 111.188 98.285 111.188 99.5ZM111.188 115.633C111.188 116.848 110.2 117.833 108.982 117.833C107.764 117.833 106.777 116.848 106.777 115.633C106.777 114.418 107.764 113.433 108.982 113.433C110.2 113.433 111.188 114.418 111.188 115.633ZM111.188 131.767C111.188 132.982 110.2 133.967 108.982 133.967C107.764 133.967 106.777 132.982 106.777 131.767C106.777 130.552 107.764 129.567 108.982 129.567C110.2 129.567 111.188 130.552 111.188 131.767ZM111.188 147.9C111.188 149.115 110.2 150.1 108.982 150.1C107.764 150.1 106.777 149.115 106.777 147.9C106.777 146.685 107.764 145.7 108.982 145.7C110.2 145.7 111.188 146.685 111.188 147.9ZM111.188 164.033C111.188 165.248 110.2 166.233 108.982 166.233C107.764 166.233 106.777 165.248 106.777 164.033C106.777 162.818 107.764 161.833 108.982 161.833C110.2 161.833 111.188 162.818 111.188 164.033ZM111.188 180.167C111.188 181.382 110.2 182.367 108.982 182.367C107.764 182.367 106.777 181.382 106.777 180.167C106.777 178.952 107.764 177.967 108.982 177.967C110.2 177.967 111.188 178.952 111.188 180.167ZM111.188 196.3C111.188 197.515 110.2 198.5 108.982 198.5C107.764 198.5 106.777 197.515 106.777 196.3C106.777 195.085 107.764 194.1 108.982 194.1C110.2 194.1 111.188 195.085 111.188 196.3ZM111.188 212.433C111.188 213.648 110.2 214.633 108.982 214.633C107.764 214.633 106.777 213.648 106.777 212.433C106.777 211.218 107.764 210.233 108.982 210.233C110.2 210.233 111.188 211.218 111.188 212.433ZM127.36 2.7C127.36 3.91503 126.373 4.9 125.155 4.9C123.937 4.9 122.949 3.91503 122.949 2.7C122.949 1.48497 123.937 0.5 125.155 0.5C126.373 0.5 127.36 1.48497 127.36 2.7ZM127.36 18.8333C127.36 20.0484 126.373 21.0333 125.155 21.0333C123.937 21.0333 122.949 20.0484 122.949 18.8333C122.949 17.6183 123.937 16.6333 125.155 16.6333C126.373 16.6333 127.36 17.6183 127.36 18.8333ZM127.36 34.9667C127.36 36.1817 126.373 37.1667 125.155 37.1667C123.937 37.1667 122.949 36.1817 122.949 34.9667C122.949 33.7516 123.937 32.7667 125.155 32.7667C126.373 32.7667 127.36 33.7516 127.36 34.9667ZM127.36 51.1C127.36 52.315 126.373 53.3 125.155 53.3C123.937 53.3 122.949 52.315 122.949 51.1C122.949 49.885 123.937 48.9 125.155 48.9C126.373 48.9 127.36 49.885 127.36 51.1ZM127.36 67.2333C127.36 68.4484 126.373 69.4333 125.155 69.4333C123.937 69.4333 122.949 68.4484 122.949 67.2333C122.949 66.0183 123.937 65.0333 125.155 65.0333C126.373 65.0333 127.36 66.0183 127.36 67.2333ZM127.36 83.3667C127.36 84.5817 126.373 85.5667 125.155 85.5667C123.937 85.5667 122.949 84.5817 122.949 83.3667C122.949 82.1516 123.937 81.1667 125.155 81.1667C126.373 81.1667 127.36 82.1516 127.36 83.3667ZM127.36 99.5C127.36 100.715 126.373 101.7 125.155 101.7C123.937 101.7 122.949 100.715 122.949 99.5C122.949 98.285 123.937 97.3 125.155 97.3C126.373 97.3 127.36 98.285 127.36 99.5ZM127.36 115.633C127.36 116.848 126.373 117.833 125.155 117.833C123.937 117.833 122.949 116.848 122.949 115.633C122.949 114.418 123.937 113.433 125.155 113.433C126.373 113.433 127.36 114.418 127.36 115.633ZM127.36 131.767C127.36 132.982 126.373 133.967 125.155 133.967C123.937 133.967 122.949 132.982 122.949 131.767C122.949 130.552 123.937 129.567 125.155 129.567C126.373 129.567 127.36 130.552 127.36 131.767ZM127.36 147.9C127.36 149.115 126.373 150.1 125.155 150.1C123.937 150.1 122.949 149.115 122.949 147.9C122.949 146.685 123.937 145.7 125.155 145.7C126.373 145.7 127.36 146.685 127.36 147.9ZM127.36 164.033C127.36 165.248 126.373 166.233 125.155 166.233C123.937 166.233 122.949 165.248 122.949 164.033C122.949 162.818 123.937 161.833 125.155 161.833C126.373 161.833 127.36 162.818 127.36 164.033ZM127.36 180.167C127.36 181.382 126.373 182.367 125.155 182.367C123.937 182.367 122.949 181.382 122.949 180.167C122.949 178.952 123.937 177.967 125.155 177.967C126.373 177.967 127.36 178.952 127.36 180.167ZM127.36 196.3C127.36 197.515 126.373 198.5 125.155 198.5C123.937 198.5 122.949 197.515 122.949 196.3C122.949 195.085 123.937 194.1 125.155 194.1C126.373 194.1 127.36 195.085 127.36 196.3ZM127.36 212.433C127.36 213.648 126.373 214.633 125.155 214.633C123.937 214.633 122.949 213.648 122.949 212.433C122.949 211.218 123.937 210.233 125.155 210.233C126.373 210.233 127.36 211.218 127.36 212.433ZM143.533 2.7C143.533 3.91503 142.545 4.9 141.327 4.9C140.109 4.9 139.122 3.91503 139.122 2.7C139.122 1.48497 140.109 0.5 141.327 0.5C142.545 0.5 143.533 1.48497 143.533 2.7ZM143.533 18.8333C143.533 20.0484 142.545 21.0333 141.327 21.0333C140.109 21.0333 139.122 20.0484 139.122 18.8333C139.122 17.6183 140.109 16.6333 141.327 16.6333C142.545 16.6333 143.533 17.6183 143.533 18.8333ZM143.533 34.9667C143.533 36.1817 142.545 37.1667 141.327 37.1667C140.109 37.1667 139.122 36.1817 139.122 34.9667C139.122 33.7516 140.109 32.7667 141.327 32.7667C142.545 32.7667 143.533 33.7516 143.533 34.9667ZM143.533 51.1C143.533 52.315 142.545 53.3 141.327 53.3C140.109 53.3 139.122 52.315 139.122 51.1C139.122 49.885 140.109 48.9 141.327 48.9C142.545 48.9 143.533 49.885 143.533 51.1ZM143.533 67.2333C143.533 68.4484 142.545 69.4333 141.327 69.4333C140.109 69.4333 139.122 68.4484 139.122 67.2333C139.122 66.0183 140.109 65.0333 141.327 65.0333C142.545 65.0333 143.533 66.0183 143.533 67.2333ZM143.533 83.3667C143.533 84.5817 142.545 85.5667 141.327 85.5667C140.109 85.5667 139.122 84.5817 139.122 83.3667C139.122 82.1516 140.109 81.1667 141.327 81.1667C142.545 81.1667 143.533 82.1516 143.533 83.3667ZM143.533 99.5C143.533 100.715 142.545 101.7 141.327 101.7C140.109 101.7 139.122 100.715 139.122 99.5C139.122 98.285 140.109 97.3 141.327 97.3C142.545 97.3 143.533 98.285 143.533 99.5ZM143.533 115.633C143.533 116.848 142.545 117.833 141.327 117.833C140.109 117.833 139.122 116.848 139.122 115.633C139.122 114.418 140.109 113.433 141.327 113.433C142.545 113.433 143.533 114.418 143.533 115.633ZM143.533 131.767C143.533 132.982 142.545 133.967 141.327 133.967C140.109 133.967 139.122 132.982 139.122 131.767C139.122 130.552 140.109 129.567 141.327 129.567C142.545 129.567 143.533 130.552 143.533 131.767ZM143.533 147.9C143.533 149.115 142.545 150.1 141.327 150.1C140.109 150.1 139.122 149.115 139.122 147.9C139.122 146.685 140.109 145.7 141.327 145.7C142.545 145.7 143.533 146.685 143.533 147.9ZM143.533 164.033C143.533 165.248 142.545 166.233 141.327 166.233C140.109 166.233 139.122 165.248 139.122 164.033C139.122 162.818 140.109 161.833 141.327 161.833C142.545 161.833 143.533 162.818 143.533 164.033ZM143.533 180.167C143.533 181.382 142.545 182.367 141.327 182.367C140.109 182.367 139.122 181.382 139.122 180.167C139.122 178.952 140.109 177.967 141.327 177.967C142.545 177.967 143.533 178.952 143.533 180.167ZM143.533 196.3C143.533 197.515 142.545 198.5 141.327 198.5C140.109 198.5 139.122 197.515 139.122 196.3C139.122 195.085 140.109 194.1 141.327 194.1C142.545 194.1 143.533 195.085 143.533 196.3ZM143.533 212.433C143.533 213.648 142.545 214.633 141.327 214.633C140.109 214.633 139.122 213.648 139.122 212.433C139.122 211.218 140.109 210.233 141.327 210.233C142.545 210.233 143.533 211.218 143.533 212.433ZM159.705 2.7C159.705 3.91503 158.718 4.9 157.5 4.9C156.282 4.9 155.295 3.91503 155.295 2.7C155.295 1.48497 156.282 0.5 157.5 0.5C158.718 0.5 159.705 1.48497 159.705 2.7ZM159.705 18.8333C159.705 20.0484 158.718 21.0333 157.5 21.0333C156.282 21.0333 155.295 20.0484 155.295 18.8333C155.295 17.6183 156.282 16.6333 157.5 16.6333C158.718 16.6333 159.705 17.6183 159.705 18.8333ZM159.705 34.9667C159.705 36.1817 158.718 37.1667 157.5 37.1667C156.282 37.1667 155.295 36.1817 155.295 34.9667C155.295 33.7516 156.282 32.7667 157.5 32.7667C158.718 32.7667 159.705 33.7516 159.705 34.9667ZM159.705 51.1C159.705 52.315 158.718 53.3 157.5 53.3C156.282 53.3 155.295 52.315 155.295 51.1C155.295 49.885 156.282 48.9 157.5 48.9C158.718 48.9 159.705 49.885 159.705 51.1ZM159.705 67.2333C159.705 68.4484 158.718 69.4333 157.5 69.4333C156.282 69.4333 155.295 68.4484 155.295 67.2333C155.295 66.0183 156.282 65.0333 157.5 65.0333C158.718 65.0333 159.705 66.0183 159.705 67.2333ZM159.705 83.3667C159.705 84.5817 158.718 85.5667 157.5 85.5667C156.282 85.5667 155.295 84.5817 155.295 83.3667C155.295 82.1516 156.282 81.1667 157.5 81.1667C158.718 81.1667 159.705 82.1516 159.705 83.3667ZM159.705 99.5C159.705 100.715 158.718 101.7 157.5 101.7C156.282 101.7 155.295 100.715 155.295 99.5C155.295 98.285 156.282 97.3 157.5 97.3C158.718 97.3 159.705 98.285 159.705 99.5ZM159.705 115.633C159.705 116.848 158.718 117.833 157.5 117.833C156.282 117.833 155.295 116.848 155.295 115.633C155.295 114.418 156.282 113.433 157.5 113.433C158.718 113.433 159.705 114.418 159.705 115.633ZM159.705 131.767C159.705 132.982 158.718 133.967 157.5 133.967C156.282 133.967 155.295 132.982 155.295 131.767C155.295 130.552 156.282 129.567 157.5 129.567C158.718 129.567 159.705 130.552 159.705 131.767ZM159.705 147.9C159.705 149.115 158.718 150.1 157.5 150.1C156.282 150.1 155.295 149.115 155.295 147.9C155.295 146.685 156.282 145.7 157.5 145.7C158.718 145.7 159.705 146.685 159.705 147.9ZM159.705 164.033C159.705 165.248 158.718 166.233 157.5 166.233C156.282 166.233 155.295 165.248 155.295 164.033C155.295 162.818 156.282 161.833 157.5 161.833C158.718 161.833 159.705 162.818 159.705 164.033ZM159.705 180.167C159.705 181.382 158.718 182.367 157.5 182.367C156.282 182.367 155.295 181.382 155.295 180.167C155.295 178.952 156.282 177.967 157.5 177.967C158.718 177.967 159.705 178.952 159.705 180.167ZM159.705 196.3C159.705 197.515 158.718 198.5 157.5 198.5C156.282 198.5 155.295 197.515 155.295 196.3C155.295 195.085 156.282 194.1 157.5 194.1C158.718 194.1 159.705 195.085 159.705 196.3ZM159.705 212.433C159.705 213.648 158.718 214.633 157.5 214.633C156.282 214.633 155.295 213.648 155.295 212.433C155.295 211.218 156.282 210.233 157.5 210.233C158.718 210.233 159.705 211.218 159.705 212.433ZM175.878 2.7C175.878 3.91503 174.891 4.9 173.673 4.9C172.455 4.9 171.467 3.91503 171.467 2.7C171.467 1.48497 172.455 0.5 173.673 0.5C174.891 0.5 175.878 1.48497 175.878 2.7ZM175.878 18.8333C175.878 20.0484 174.891 21.0333 173.673 21.0333C172.455 21.0333 171.467 20.0484 171.467 18.8333C171.467 17.6183 172.455 16.6333 173.673 16.6333C174.891 16.6333 175.878 17.6183 175.878 18.8333ZM175.878 34.9667C175.878 36.1817 174.891 37.1667 173.673 37.1667C172.455 37.1667 171.467 36.1817 171.467 34.9667C171.467 33.7516 172.455 32.7667 173.673 32.7667C174.891 32.7667 175.878 33.7516 175.878 34.9667ZM175.878 51.1C175.878 52.315 174.891 53.3 173.673 53.3C172.455 53.3 171.467 52.315 171.467 51.1C171.467 49.885 172.455 48.9 173.673 48.9C174.891 48.9 175.878 49.885 175.878 51.1ZM175.878 67.2333C175.878 68.4484 174.891 69.4333 173.673 69.4333C172.455 69.4333 171.467 68.4484 171.467 67.2333C171.467 66.0183 172.455 65.0333 173.673 65.0333C174.891 65.0333 175.878 66.0183 175.878 67.2333ZM175.878 83.3667C175.878 84.5817 174.891 85.5667 173.673 85.5667C172.455 85.5667 171.467 84.5817 171.467 83.3667C171.467 82.1516 172.455 81.1667 173.673 81.1667C174.891 81.1667 175.878 82.1516 175.878 83.3667ZM175.878 99.5C175.878 100.715 174.891 101.7 173.673 101.7C172.455 101.7 171.467 100.715 171.467 99.5C171.467 98.285 172.455 97.3 173.673 97.3C174.891 97.3 175.878 98.285 175.878 99.5ZM175.878 115.633C175.878 116.848 174.891 117.833 173.673 117.833C172.455 117.833 171.467 116.848 171.467 115.633C171.467 114.418 172.455 113.433 173.673 113.433C174.891 113.433 175.878 114.418 175.878 115.633ZM175.878 131.767C175.878 132.982 174.891 133.967 173.673 133.967C172.455 133.967 171.467 132.982 171.467 131.767C171.467 130.552 172.455 129.567 173.673 129.567C174.891 129.567 175.878 130.552 175.878 131.767ZM175.878 147.9C175.878 149.115 174.891 150.1 173.673 150.1C172.455 150.1 171.467 149.115 171.467 147.9C171.467 146.685 172.455 145.7 173.673 145.7C174.891 145.7 175.878 146.685 175.878 147.9ZM175.878 164.033C175.878 165.248 174.891 166.233 173.673 166.233C172.455 166.233 171.467 165.248 171.467 164.033C171.467 162.818 172.455 161.833 173.673 161.833C174.891 161.833 175.878 162.818 175.878 164.033ZM175.878 180.167C175.878 181.382 174.891 182.367 173.673 182.367C172.455 182.367 171.467 181.382 171.467 180.167C171.467 178.952 172.455 177.967 173.673 177.967C174.891 177.967 175.878 178.952 175.878 180.167ZM175.878 196.3C175.878 197.515 174.891 198.5 173.673 198.5C172.455 198.5 171.467 197.515 171.467 196.3C171.467 195.085 172.455 194.1 173.673 194.1C174.891 194.1 175.878 195.085 175.878 196.3ZM175.878 212.433C175.878 213.648 174.891 214.633 173.673 214.633C172.455 214.633 171.467 213.648 171.467 212.433C171.467 211.218 172.455 210.233 173.673 210.233C174.891 210.233 175.878 211.218 175.878 212.433ZM192.051 2.7C192.051 3.91503 191.063 4.9 189.845 4.9C188.627 4.9 187.64 3.91503 187.64 2.7C187.64 1.48497 188.627 0.5 189.845 0.5C191.063 0.5 192.051 1.48497 192.051 2.7ZM192.051 18.8333C192.051 20.0484 191.063 21.0333 189.845 21.0333C188.627 21.0333 187.64 20.0484 187.64 18.8333C187.64 17.6183 188.627 16.6333 189.845 16.6333C191.063 16.6333 192.051 17.6183 192.051 18.8333ZM192.051 34.9667C192.051 36.1817 191.063 37.1667 189.845 37.1667C188.627 37.1667 187.64 36.1817 187.64 34.9667C187.64 33.7516 188.627 32.7667 189.845 32.7667C191.063 32.7667 192.051 33.7516 192.051 34.9667ZM192.051 51.1C192.051 52.315 191.063 53.3 189.845 53.3C188.627 53.3 187.64 52.315 187.64 51.1C187.64 49.885 188.627 48.9 189.845 48.9C191.063 48.9 192.051 49.885 192.051 51.1ZM192.051 67.2333C192.051 68.4484 191.063 69.4333 189.845 69.4333C188.627 69.4333 187.64 68.4484 187.64 67.2333C187.64 66.0183 188.627 65.0333 189.845 65.0333C191.063 65.0333 192.051 66.0183 192.051 67.2333ZM192.051 83.3667C192.051 84.5817 191.063 85.5667 189.845 85.5667C188.627 85.5667 187.64 84.5817 187.64 83.3667C187.64 82.1516 188.627 81.1667 189.845 81.1667C191.063 81.1667 192.051 82.1516 192.051 83.3667ZM192.051 99.5C192.051 100.715 191.063 101.7 189.845 101.7C188.627 101.7 187.64 100.715 187.64 99.5C187.64 98.285 188.627 97.3 189.845 97.3C191.063 97.3 192.051 98.285 192.051 99.5ZM192.051 115.633C192.051 116.848 191.063 117.833 189.845 117.833C188.627 117.833 187.64 116.848 187.64 115.633C187.64 114.418 188.627 113.433 189.845 113.433C191.063 113.433 192.051 114.418 192.051 115.633ZM192.051 131.767C192.051 132.982 191.063 133.967 189.845 133.967C188.627 133.967 187.64 132.982 187.64 131.767C187.64 130.552 188.627 129.567 189.845 129.567C191.063 129.567 192.051 130.552 192.051 131.767ZM192.051 147.9C192.051 149.115 191.063 150.1 189.845 150.1C188.627 150.1 187.64 149.115 187.64 147.9C187.64 146.685 188.627 145.7 189.845 145.7C191.063 145.7 192.051 146.685 192.051 147.9ZM192.051 164.033C192.051 165.248 191.063 166.233 189.845 166.233C188.627 166.233 187.64 165.248 187.64 164.033C187.64 162.818 188.627 161.833 189.845 161.833C191.063 161.833 192.051 162.818 192.051 164.033ZM192.051 180.167C192.051 181.382 191.063 182.367 189.845 182.367C188.627 182.367 187.64 181.382 187.64 180.167C187.64 178.952 188.627 177.967 189.845 177.967C191.063 177.967 192.051 178.952 192.051 180.167ZM192.051 196.3C192.051 197.515 191.063 198.5 189.845 198.5C188.627 198.5 187.64 197.515 187.64 196.3C187.64 195.085 188.627 194.1 189.845 194.1C191.063 194.1 192.051 195.085 192.051 196.3ZM192.051 212.433C192.051 213.648 191.063 214.633 189.845 214.633C188.627 214.633 187.64 213.648 187.64 212.433C187.64 211.218 188.627 210.233 189.845 210.233C191.063 210.233 192.051 211.218 192.051 212.433Z" fill="#F6F6F6"/>
<path fill-rule="evenodd" clip-rule="evenodd" d="M227.941 59.6506C256.169 71.5344 276.034 99.8457 280.843 129.38C285.652 158.915 275.197 189.673 254.497 211.518C233.796 233.363 202.849 246.47 171.066 255.208C139.074 264.121 106.245 268.665 81.1534 259.403C56.0615 250.14 38.7063 226.897 23.6512 203.304C8.59603 179.886 -4.15902 156.119 1.27756 135.846C6.92323 115.574 30.5514 98.9719 54.3887 86.5639C78.2261 74.1558 101.854 65.7673 132.174 59.3011C162.493 52.6602 199.504 47.9416 227.941 59.6506Z" fill="#F6F6F6"/>
<path fill-rule="evenodd" clip-rule="evenodd" d="M4.40625 250.171C5.48304 250.171 6.4594 250.611 7.16665 251.319C7.87413 252.028 8.3125 253.006 8.3125 254.086C8.3125 255.165 7.87405 256.143 7.16649 256.852C6.45926 257.561 5.48296 258 4.40625 258C3.32954 258 2.35324 257.561 1.64601 256.852C0.938453 256.143 0.5 255.165 0.5 254.086C0.5 253.006 0.938373 252.028 1.64585 251.319C2.3531 250.611 3.32946 250.171 4.40625 250.171ZM4.40625 250.498C3.41885 250.498 2.52309 250.901 1.87434 251.551C1.22604 252.2 0.82459 253.097 0.82459 254.086C0.82459 255.075 1.22604 255.971 1.87434 256.621C2.52309 257.271 3.41885 257.673 4.40625 257.673C5.39395 257.673 6.28961 257.271 6.93825 256.621C7.58656 255.972 7.98791 255.075 7.98791 254.086C7.98791 253.097 7.58656 252.2 6.93825 251.55C6.28961 250.901 5.39395 250.498 4.40625 250.498ZM232.73 198.671C232.807 198.671 232.883 198.701 232.943 198.761C233.002 198.82 233.031 198.897 233.031 198.974C233.031 199.052 233.002 199.13 232.942 199.189L229.551 202.585L232.942 205.983C233.002 206.042 233.031 206.119 233.031 206.197C233.031 206.275 233.002 206.352 232.942 206.412C232.884 206.47 232.807 206.5 232.73 206.5C232.653 206.5 232.576 206.47 232.517 206.412L229.125 203.013L225.733 206.412C225.674 206.47 225.597 206.5 225.52 206.5C225.443 206.5 225.366 206.47 225.308 206.412C225.248 206.352 225.219 206.275 225.219 206.197C225.219 206.119 225.248 206.042 225.308 205.983L228.698 202.585L225.308 199.189C225.248 199.13 225.219 199.052 225.219 198.974C225.219 198.897 225.248 198.82 225.308 198.76C225.367 198.701 225.443 198.671 225.52 198.671L229.125 202.157L232.517 198.76C232.576 198.701 232.653 198.671 232.73 198.671ZM56.4796 189.843C56.5568 189.843 56.6338 189.873 56.6927 189.932C56.7517 189.991 56.781 190.068 56.781 190.146C56.781 190.224 56.7514 190.301 56.6927 190.36L53.3012 193.757L56.6923 197.154C56.7515 197.213 56.7812 197.291 56.7812 197.368C56.7812 197.446 56.7515 197.524 56.6923 197.583C56.6337 197.642 56.5567 197.671 56.4796 197.671C56.4026 197.671 56.3256 197.642 56.2669 197.583L52.8747 194.184L49.4831 197.583C49.4244 197.642 49.3474 197.671 49.2704 197.671C49.1933 197.671 49.1163 197.642 49.0577 197.583C48.9985 197.524 48.9688 197.446 48.9688 197.368C48.9688 197.291 48.9985 197.213 49.0577 197.154L52.4482 193.757L49.0578 190.361C48.9986 190.301 48.969 190.224 48.969 190.146C48.969 190.068 48.9983 189.991 49.0573 189.932C49.1162 189.873 49.1932 189.843 49.2704 189.843L52.8747 193.33L56.2677 189.931C56.3262 189.872 56.4029 189.843 56.4796 189.843ZM229.125 114.8C230.202 114.8 231.178 115.239 231.885 115.947C232.593 116.656 233.031 117.635 233.031 118.714C233.031 119.793 232.593 120.772 231.885 121.481C231.178 122.189 230.202 122.629 229.125 122.629C228.048 122.629 227.072 122.189 226.365 121.481C225.657 120.772 225.219 119.793 225.219 118.714C225.219 117.635 225.657 116.656 226.365 115.948C227.072 115.239 228.048 114.8 229.125 114.8ZM229.125 115.127C228.137 115.127 227.242 115.529 226.593 116.179C225.945 116.828 225.543 117.725 225.543 118.714C225.543 119.703 225.945 120.6 226.593 121.249C227.242 121.899 228.137 122.302 229.125 122.302C230.112 122.302 231.008 121.899 231.657 121.249C232.305 120.6 232.707 119.703 232.707 118.714C232.707 117.725 232.305 116.828 231.657 116.179C231.008 115.529 230.112 115.127 229.125 115.127ZM281.199 53C281.276 53 281.352 53.0293 281.411 53.0881C281.47 53.1474 281.5 53.2251 281.5 53.3028C281.5 53.3802 281.47 53.4576 281.411 53.517L278.02 56.914L281.411 60.3112C281.47 60.3705 281.5 60.448 281.5 60.5256C281.5 60.6033 281.47 60.6808 281.411 60.7401C281.352 60.7989 281.275 60.8286 281.198 60.8286C281.121 60.8286 281.044 60.7989 280.986 60.7401L277.593 57.3412L274.202 60.7401C274.143 60.7989 274.066 60.8286 273.989 60.8286C273.912 60.8286 273.835 60.7989 273.776 60.7401C273.717 60.6808 273.688 60.6033 273.688 60.5256C273.688 60.448 273.717 60.3705 273.776 60.3112L277.167 56.914L273.776 53.5165C273.717 53.4576 273.688 53.3802 273.688 53.3028C273.688 53.2251 273.717 53.1474 273.776 53.0881C273.835 53.0293 273.912 53 273.989 53L277.593 56.4857L280.985 53.0885C281.044 53.0296 281.121 53 281.199 53ZM55.4548 53.972C56.2642 54.6846 56.7086 55.6609 56.7731 56.6614C56.8375 57.662 56.5221 58.6872 55.8107 59.4979C55.1251 60.2796 54.1777 60.749 53.1415 60.8194C51.9344 60.8249 51.0213 60.4919 50.2972 59.8536C49.5131 59.1639 49.0446 58.2094 48.977 57.1652C48.9101 56.1218 49.2524 55.1143 49.9422 54.3284C50.653 53.5179 51.6267 53.0727 52.6248 53.0082C53.623 52.9437 54.6457 53.2597 55.4548 53.972ZM52.8781 53.3269C51.8827 53.3269 50.8921 53.739 50.1847 54.5449C49.5535 55.2652 49.2395 56.188 49.3018 57.1448C49.3634 58.1004 49.7929 58.9754 50.5109 59.6076C51.2305 60.2413 52.1545 60.5585 53.1081 60.4936C54.0618 60.4321 54.9356 60.001 55.5669 59.2814C56.2186 58.5387 56.5083 57.5996 56.4493 56.6828C56.3904 55.7659 55.9829 54.8716 55.2414 54.2182C54.5619 53.6208 53.7181 53.3269 52.8781 53.3269Z" stroke="#E5E5E5"/>
<path fill-rule="evenodd" clip-rule="evenodd" d="M187.8 106.3C186.808 106.3 186 105.492 186 104.5C186 103.507 186.808 102.7 187.8 102.7C188.793 102.7 189.6 103.507 189.6 104.5C189.6 105.492 188.793 106.3 187.8 106.3ZM139.2 219.7C138.208 219.7 137.4 218.892 137.4 217.9C137.4 216.907 138.208 216.1 139.2 216.1C140.193 216.1 141 216.907 141 217.9C141 218.892 140.193 219.7 139.2 219.7ZM92.4001 100.9C91.4076 100.9 90.6001 100.092 90.6001 99.0998C90.6001 98.1072 91.4076 97.2998 92.4001 97.2998C93.3926 97.2998 94.2001 98.1072 94.2001 99.0998C94.2001 100.092 93.3926 100.9 92.4001 100.9Z" fill="#CACAFB"/>
<path fill-rule="evenodd" clip-rule="evenodd" d="M99.6003 126.1C98.6078 126.1 97.8003 125.293 97.8003 124.3C97.8003 123.307 98.6078 122.5 99.6003 122.5C100.593 122.5 101.4 123.307 101.4 124.3C101.4 125.293 100.593 126.1 99.6003 126.1ZM106.8 126.1C105.808 126.1 105 125.293 105 124.3C105 123.307 105.808 122.5 106.8 122.5C107.793 122.5 108.6 123.307 108.6 124.3C108.6 125.293 107.793 126.1 106.8 126.1ZM114 126.1C113.008 126.1 112.2 125.293 112.2 124.3C112.2 123.307 113.008 122.5 114 122.5C114.993 122.5 115.8 123.307 115.8 124.3C115.8 125.293 114.993 126.1 114 126.1ZM179.88 162.46C180.614 163.011 180.808 164.014 180.365 164.791L180.24 164.98L172.496 175.307C173.067 176.164 173.4 177.193 173.4 178.3C173.4 181.282 170.983 183.7 168 183.7C165.018 183.7 162.6 181.282 162.6 178.3C162.6 177.5 162.774 176.74 163.087 176.057L163.128 175.973L159.528 172.373C158.825 171.67 158.825 170.53 159.528 169.827C160.176 169.178 161.197 169.128 161.904 169.677L162.073 169.827L165.673 173.427L165.758 173.386C166.441 173.074 167.2 172.9 168 172.9C168.563 172.9 169.106 172.986 169.616 173.146L177.36 162.82C177.957 162.025 179.085 161.864 179.88 162.46ZM168 176.5C167.006 176.5 166.2 177.306 166.2 178.3C166.2 179.294 167.006 180.1 168 180.1C168.994 180.1 169.8 179.294 169.8 178.3C169.8 177.306 168.994 176.5 168 176.5ZM182.4 122.5C183.394 122.5 184.2 123.306 184.2 124.3C184.2 125.223 183.505 125.984 182.61 126.088L182.4 126.1H128.4C127.406 126.1 126.6 125.294 126.6 124.3C126.6 123.377 127.295 122.616 128.19 122.512L128.4 122.5H182.4Z" fill="#E1000F"/>
<path fill-rule="evenodd" clip-rule="evenodd" d="M168 147.7C184.9 147.7 198.6 161.4 198.6 178.3C198.6 185.434 196.149 192.197 191.735 197.615C191.107 198.385 189.973 198.501 189.203 197.873C188.432 197.245 188.316 196.112 188.944 195.341C192.839 190.56 195 184.598 195 178.3C195 163.388 182.912 151.3 168 151.3C153.088 151.3 141 163.388 141 178.3C141 191.586 150.596 202.631 163.236 204.881L163.127 204.773C162.478 204.124 162.429 203.103 162.978 202.397L163.127 202.227C163.776 201.578 164.797 201.528 165.503 202.077L165.673 202.227L169.273 205.827C169.31 205.864 169.346 205.903 169.38 205.944L169.273 205.827C169.323 205.877 169.369 205.929 169.411 205.982C169.432 206.008 169.451 206.034 169.47 206.06C169.483 206.079 169.497 206.099 169.51 206.119C169.527 206.145 169.543 206.171 169.558 206.198C169.567 206.214 169.576 206.229 169.584 206.244C169.599 206.272 169.613 206.299 169.627 206.328C169.637 206.349 169.646 206.37 169.655 206.391C169.691 206.475 169.721 206.563 169.744 206.653C169.751 206.681 169.758 206.709 169.763 206.737C169.769 206.766 169.775 206.795 169.779 206.825C169.781 206.834 169.782 206.843 169.783 206.853C169.794 206.933 169.8 207.016 169.8 207.1L169.8 207.133C169.799 207.15 169.799 207.167 169.798 207.184L169.8 207.1C169.8 207.164 169.797 207.227 169.79 207.29C169.788 207.306 169.786 207.323 169.784 207.339C169.78 207.375 169.774 207.41 169.767 207.444C169.764 207.459 169.761 207.474 169.758 207.489C169.751 207.52 169.743 207.551 169.735 207.581C169.729 207.604 169.722 207.627 169.715 207.649C169.707 207.675 169.698 207.699 169.689 207.723C169.681 207.746 169.671 207.77 169.662 207.793C169.623 207.886 169.577 207.974 169.524 208.058C169.515 208.072 169.506 208.086 169.497 208.1C169.478 208.128 169.458 208.156 169.438 208.183C169.433 208.19 169.428 208.197 169.423 208.203L169.406 208.224C169.393 208.24 169.38 208.256 169.367 208.271L169.273 208.373L165.673 211.973C164.97 212.676 163.83 212.676 163.127 211.973C162.478 211.324 162.429 210.303 162.978 209.597L163.127 209.427L163.925 208.631C148.951 206.638 137.4 193.818 137.4 178.3C137.4 161.4 151.1 147.7 168 147.7ZM187.406 199.656C188.028 200.432 187.903 201.565 187.127 202.187C185.924 203.151 184.651 204.023 183.317 204.796C182.456 205.294 181.355 205.001 180.857 204.141C180.359 203.281 180.652 202.179 181.512 201.681C182.689 200.999 183.814 200.229 184.875 199.378C185.651 198.756 186.784 198.881 187.406 199.656ZM189.6 115.3C190.523 115.3 191.284 115.995 191.388 116.89L191.4 117.1V145.9C191.4 146.894 190.594 147.7 189.6 147.7C188.677 147.7 187.916 147.005 187.812 146.11L187.8 145.9V118.9H94.2001L94.1991 129.699L160.8 129.7C161.794 129.7 162.6 130.506 162.6 131.5C162.6 132.423 161.905 133.184 161.01 133.288L160.8 133.3H94.1991L94.2001 198.1H135.6C136.523 198.1 137.284 198.795 137.388 199.69L137.4 199.9C137.4 200.823 136.705 201.584 135.81 201.688L135.6 201.7H92.4001C91.477 201.7 90.7162 201.005 90.6122 200.11L90.6001 199.9V117.1C90.6001 116.177 91.295 115.416 92.1902 115.312L92.4001 115.3H189.6ZM168 158.5C169.355 158.5 170.693 158.636 172.001 158.905C172.974 159.104 173.602 160.056 173.402 161.03C173.202 162.004 172.251 162.631 171.277 162.431C170.207 162.211 169.111 162.1 168 162.1C159.053 162.1 151.8 169.353 151.8 178.3C151.8 187.247 159.053 194.5 168 194.5C176.947 194.5 184.2 187.247 184.2 178.3C184.2 176.064 183.748 173.895 182.883 171.889C182.489 170.976 182.909 169.917 183.822 169.523C184.735 169.129 185.794 169.55 186.188 170.463C187.247 172.917 187.8 175.571 187.8 178.3C187.8 189.235 178.935 198.1 168 198.1C157.065 198.1 148.2 189.235 148.2 178.3C148.2 167.365 157.065 158.5 168 158.5ZM128.4 165.7C129.394 165.7 130.2 166.506 130.2 167.5C130.2 168.423 129.505 169.184 128.61 169.288L128.4 169.3H106.8C105.806 169.3 105 168.494 105 167.5C105 166.577 105.695 165.816 106.59 165.712L106.8 165.7H128.4ZM132 154.9C132.994 154.9 133.8 155.706 133.8 156.7C133.8 157.623 133.105 158.384 132.21 158.488L132 158.5H106.8C105.806 158.5 105 157.694 105 156.7C105 155.777 105.695 155.016 106.59 154.912L106.8 154.9H132ZM139.2 144.1C140.194 144.1 141 144.906 141 145.9C141 146.823 140.305 147.584 139.41 147.688L139.2 147.7H106.8C105.806 147.7 105 146.894 105 145.9C105 144.977 105.695 144.216 106.59 144.112L106.8 144.1H139.2Z" fill="#000091"/>
</g>
<defs>
<clipPath id="clip0_2_8675">
<rect width="282" height="319" fill="white" transform="translate(0 0.5)"/>
</clipPath>
</defs>
</svg>
